  0
SECTION
  2
HEADER
  9
$MEASUREMENT
  70
  1
  9
$INSUNITS
  70
  4
  0
ENDSEC
  0
SECTION
  2
TABLES
  0
TABLE
  2
LTYPE
 70
     1
  0
LTYPE
  2
CONTINUOUS
 70
    64
  3
Ausgezogene Linie
 72
    65
 73
     0
 40
0.0
  0
ENDTAB
  0
TABLE
  2
LAYER
 70
     3
  0
LAYER
  2
Contour
 70
    64
 62
     7
  6
CONTINUOUS
  0
LAYER
  2
Engraving
 70
    64
 62
     7
  6
CONTINUOUS
  0
LAYER
  2
Reference_points
 70
    64
 62
     1
  6
CONTINUOUS
  0
ENDTAB
  0
TABLE
  2
STYLE
 70
     1
  0
STYLE
  2
TXT
 70
    64
 40
0.0
 41
1.0
 50
0.0
 71
     0
 42
3.500000
  3
TXT
  0
ENDTAB
  0
ENDSEC
  0
SECTION
  2
BLOCKS
  0
ENDSEC
  0
SECTION
  2
ENTITIES
  0
LINE
  8
Contour
 62
   7
 39
0.100
  6
CONTINUOUS
 10
19.98000
 20
128.40000
 30
 0
 11
19.98000
 21
0.00000
  0
LINE
  8
Contour
 62
   7
 39
0.100
  6
CONTINUOUS
 10
19.98000
 20
0.00000
 30
 0
 11
0.00000
 21
0.00000
  0
LINE
  8
Contour
 62
   7
 39
0.100
  6
CONTINUOUS
 10
0.00000
 20
0.00000
 30
 0
 11
0.00000
 21
128.40000
  0
LINE
  8
Contour
 62
   7
 39
0.100
  6
CONTINUOUS
 10
0.00000
 20
128.40000
 30
 0
 11
19.98000
 21
128.40000
  0
LINE
  8
Engraving
 62
   7
 39
0.400
  6
CONTINUOUS
 10
1.21800
 20
92.38473
 30
 0
 11
3.78100
 21
92.38473
  0
LINE
  8
Engraving
 62
   7
 39
0.400
  6
CONTINUOUS
 10
3.78100
 20
93.06873
 30
 0
 11
1.21800
 21
93.06873
  0
LINE
  8
Engraving
 62
   7
 39
0.400
  6
CONTINUOUS
 10
1.21800
 20
93.06873
 30
 0
 11
3.78100
 21
94.77740
  0
LINE
  8
Engraving
 62
   7
 39
0.400
  6
CONTINUOUS
 10
3.78100
 20
94.77740
 30
 0
 11
1.21800
 21
94.77740
  0
ARC
  8
Engraving
 62
   7
 39
0.400
  6
CONTINUOUS
 10
1.99077
 20
65.72441
 30
 0
 40
0.83504
 50
118.82122
 51
271.68902
  0
LINE
  8
Engraving
 62
   7
 39
0.400
  6
CONTINUOUS
 10
2.01538
 20
64.88973
 30
 0
 11
2.98362
 21
64.88973
  0
ARC
  8
Engraving
 62
   7
 39
0.400
  6
CONTINUOUS
 10
2.98220
 20
65.74556
 30
 0
 40
0.85583
 50
270.09515
 51
428.42706
  0
LINE
  8
Engraving
 62
   7
 39
0.400
  6
CONTINUOUS
 10
1.21800
 20
67.22573
 30
 0
 11
3.78100
 21
68.08007
  0
LINE
  8
Engraving
 62
   7
 39
0.400
  6
CONTINUOUS
 10
3.78100
 20
68.08007
 30
 0
 11
1.21800
 21
68.93440
  0
ARC
  8
Engraving
 62
   7
 39
0.400
  6
CONTINUOUS
 10
2.92667
 20
18.78902
 30
 0
 40
0.91129
 50
270.00000
 51
450.00000
  0
LINE
  8
Engraving
 62
   7
 39
0.400
  6
CONTINUOUS
 10
2.92667
 20
19.70031
 30
 0
 11
2.07233
 21
19.70031
  0
ARC
  8
Engraving
 62
   7
 39
0.400
  6
CONTINUOUS
 10
2.07233
 20
18.78902
 30
 0
 40
0.91129
 50
90.00000
 51
270.00000
  0
LINE
  8
Engraving
 62
   7
 39
0.400
  6
CONTINUOUS
 10
2.07233
 20
17.87773
 30
 0
 11
2.92667
 21
17.87773
  0
LINE
  8
Engraving
 62
   7
 39
0.400
  6
CONTINUOUS
 10
1.21800
 20
20.38473
 30
 0
 11
2.98362
 21
20.38473
  0
ARC
  8
Engraving
 62
   7
 39
0.400
  6
CONTINUOUS
 10
2.98362
 20
21.23907
 30
 0
 40
0.85433
 50
270.00000
 51
450.00000
  0
LINE
  8
Engraving
 62
   7
 39
0.400
  6
CONTINUOUS
 10
2.98362
 20
22.09340
 30
 0
 11
1.21800
 21
22.09340
  0
LINE
  8
Engraving
 62
   7
 39
0.400
  6
CONTINUOUS
 10
1.21800
 20
22.77673
 30
 0
 11
1.21800
 21
24.48540
  0
LINE
  8
Engraving
 62
   7
 39
0.400
  6
CONTINUOUS
 10
1.21800
 20
24.48540
 30
 0
 11
1.21800
 21
23.63107
  0
LINE
  8
Engraving
 62
   7
 39
0.400
  6
CONTINUOUS
 10
1.21800
 20
23.63107
 30
 0
 11
3.78100
 21
23.63107
  0
LINE
  8
Engraving
 62
   7
 39
0.600
  6
CONTINUOUS
 10
2.57653
 20
114.40100
 30
 0
 11
4.02287
 21
110.06200
  0
LINE
  8
Engraving
 62
   7
 39
0.600
  6
CONTINUOUS
 10
4.02287
 20
110.06200
 30
 0
 11
5.46920
 21
114.40100
  0
ARC
  8
Engraving
 62
   7
 39
0.600
  6
CONTINUOUS
 10
8.03959
 20
113.09276
 30
 0
 40
1.41367
 50
28.82122
 51
181.68902
  0
LINE
  8
Engraving
 62
   7
 39
0.600
  6
CONTINUOUS
 10
6.62653
 20
113.05109
 30
 0
 11
6.62653
 21
111.41191
  0
ARC
  8
Engraving
 62
   7
 39
0.600
  6
CONTINUOUS
 10
8.07540
 20
111.41432
 30
 0
 40
1.44887
 50
180.09515
 51
338.42706
  0
ARC
  8
Engraving
 62
   7
 39
0.600
  6
CONTINUOUS
 10
12.45897
 20
113.28288
 30
 0
 40
1.14398
 50
36.73449
 51
77.79505
  0
ARC
  8
Engraving
 62
   7
 39
0.600
  6
CONTINUOUS
 10
12.12002
 20
111.74068
 30
 0
 40
2.72298
 50
77.68434
 51
106.40648
  0
ARC
  8
Engraving
 62
   7
 39
0.600
  6
CONTINUOUS
 10
11.72241
 20
113.11917
 30
 0
 40
1.28835
 50
106.75938
 51
144.31597
  0
ARC
  8
Engraving
 62
   7
 39
0.600
  6
CONTINUOUS
 10
11.39252
 20
113.35631
 30
 0
 40
0.88206
 50
144.32844
 51
251.30934
  0
LINE
  8
Engraving
 62
   7
 39
0.600
  6
CONTINUOUS
 10
11.10986
 20
112.52077
 30
 0
 11
12.79724
 21
111.94223
  0
ARC
  8
Engraving
 62
   7
 39
0.600
  6
CONTINUOUS
 10
12.51458
 20
111.10669
 30
 0
 40
0.88206
 50
-35.67156
 51
71.30934
  0
ARC
  8
Engraving
 62
   7
 39
0.600
  6
CONTINUOUS
 10
12.18469
 20
111.34383
 30
 0
 40
1.28835
 50
286.75938
 51
324.31597
  0
ARC
  8
Engraving
 62
   7
 39
0.600
  6
CONTINUOUS
 10
11.78708
 20
112.72232
 30
 0
 40
2.72298
 50
257.68434
 51
286.40648
  0
ARC
  8
Engraving
 62
   7
 39
0.600
  6
CONTINUOUS
 10
11.44813
 20
111.18012
 30
 0
 40
1.14398
 50
216.73449
 51
257.79505
  0
LINE
  8
Engraving
 62
   7
 39
0.600
  6
CONTINUOUS
 10
14.53253
 20
114.40100
 30
 0
 11
14.53253
 21
110.06200
  0
LINE
  8
Engraving
 62
   7
 39
0.600
  6
CONTINUOUS
 10
14.53253
 20
110.06200
 30
 0
 11
14.53253
 21
111.70118
  0
LINE
  8
Engraving
 62
   7
 39
0.600
  6
CONTINUOUS
 10
14.53253
 20
111.70118
 30
 0
 11
15.35212
 21
112.47256
  0
LINE
  8
Engraving
 62
   7
 39
0.600
  6
CONTINUOUS
 10
15.35212
 20
112.47256
 30
 0
 11
17.42520
 21
110.06200
  0
LINE
  8
Engraving
 62
   7
 39
0.600
  6
CONTINUOUS
 10
17.42520
 20
110.06200
 30
 0
 11
15.35212
 21
112.47256
  0
LINE
  8
Engraving
 62
   7
 39
0.600
  6
CONTINUOUS
 10
15.35212
 20
112.47256
 30
 0
 11
17.42520
 21
114.40100
  0
CIRCLE
  8
Contour
 62
   7
 39
0.100
  6
CONTINUOUS
 10
7.50000
 20
125.50000
 30
 0
 40
1.50000
  0
CIRCLE
  8
Contour
 62
   7
 39
0.100
  6
CONTINUOUS
 10
7.50000
 20
3.00000
 30
 0
 40
1.50000
  0
CIRCLE
  8
Contour
 62
   7
 39
0.100
  6
CONTINUOUS
 10
9.67500
 20
93.58500
 30
 0
 40
3.25000
  0
CIRCLE
  8
Contour
 62
   7
 39
0.100
  6
CONTINUOUS
 10
9.67500
 20
80.24500
 30
 0
 40
3.75000
  0
CIRCLE
  8
Contour
 62
   7
 39
0.100
  6
CONTINUOUS
 10
9.67500
 20
66.90500
 30
 0
 40
3.25000
  0
CIRCLE
  8
Contour
 62
   7
 39
0.100
  6
CONTINUOUS
 10
9.67500
 20
21.18500
 30
 0
 40
3.25000
  0
ENDSEC
  0
EOF
