G04 #@! TF.GenerationSoftware,KiCad,Pcbnew,5.1.4-e60b266~84~ubuntu18.04.1*
G04 #@! TF.CreationDate,2019-10-14T20:54:47+01:00*
G04 #@! TF.ProjectId,vcsk,7663736b-2e6b-4696-9361-645f70636258,rev?*
G04 #@! TF.SameCoordinates,Original*
G04 #@! TF.FileFunction,Legend,Bot*
G04 #@! TF.FilePolarity,Positive*
%FSLAX46Y46*%
G04 Gerber Fmt 4.6, Leading zero omitted, Abs format (unit mm)*
G04 Created by KiCad (PCBNEW 5.1.4-e60b266~84~ubuntu18.04.1) date 2019-10-14 20:54:47*
%MOMM*%
%LPD*%
G04 APERTURE LIST*
%ADD10C,0.300000*%
%ADD11C,0.010000*%
%ADD12C,0.120000*%
%ADD13C,0.152400*%
%ADD14C,0.150000*%
%ADD15C,0.106400*%
%ADD16C,0.091440*%
%ADD17C,0.071120*%
G04 APERTURE END LIST*
D10*
X103585238Y-110338571D02*
X101585238Y-109338571D01*
X103585238Y-108338571D01*
X101775714Y-105624285D02*
X101680476Y-105767142D01*
X101585238Y-106195714D01*
X101585238Y-106481428D01*
X101680476Y-106910000D01*
X101870952Y-107195714D01*
X102061428Y-107338571D01*
X102442380Y-107481428D01*
X102728095Y-107481428D01*
X103109047Y-107338571D01*
X103299523Y-107195714D01*
X103490000Y-106910000D01*
X103585238Y-106481428D01*
X103585238Y-106195714D01*
X103490000Y-105767142D01*
X103394761Y-105624285D01*
X101680476Y-104481428D02*
X101585238Y-104052857D01*
X101585238Y-103338571D01*
X101680476Y-103052857D01*
X101775714Y-102910000D01*
X101966190Y-102767142D01*
X102156666Y-102767142D01*
X102347142Y-102910000D01*
X102442380Y-103052857D01*
X102537619Y-103338571D01*
X102632857Y-103910000D01*
X102728095Y-104195714D01*
X102823333Y-104338571D01*
X103013809Y-104481428D01*
X103204285Y-104481428D01*
X103394761Y-104338571D01*
X103490000Y-104195714D01*
X103585238Y-103910000D01*
X103585238Y-103195714D01*
X103490000Y-102767142D01*
X101585238Y-101481428D02*
X103585238Y-101481428D01*
X101585238Y-99767142D02*
X102728095Y-101052857D01*
X103585238Y-99767142D02*
X102442380Y-101481428D01*
D11*
G36*
X166997652Y-104596090D02*
G01*
X166997222Y-104517546D01*
X166996058Y-104460702D01*
X166993793Y-104421895D01*
X166990060Y-104397462D01*
X166984494Y-104383738D01*
X166976727Y-104377060D01*
X166966395Y-104373764D01*
X166965057Y-104373444D01*
X166940921Y-104368438D01*
X166893299Y-104359171D01*
X166827259Y-104346608D01*
X166747872Y-104331713D01*
X166660204Y-104315449D01*
X166657125Y-104314881D01*
X166571211Y-104298590D01*
X166495304Y-104283348D01*
X166433955Y-104270139D01*
X166391718Y-104259946D01*
X166373145Y-104253752D01*
X166372816Y-104253457D01*
X166363747Y-104235212D01*
X166348633Y-104197595D01*
X166330738Y-104148729D01*
X166330642Y-104148457D01*
X166307507Y-104086907D01*
X166278035Y-104014343D01*
X166248403Y-103945943D01*
X166246938Y-103942706D01*
X166196374Y-103831298D01*
X166364840Y-103584601D01*
X166416197Y-103508923D01*
X166462111Y-103440369D01*
X166499970Y-103382912D01*
X166527163Y-103340524D01*
X166541079Y-103317175D01*
X166542111Y-103314958D01*
X166537516Y-103297990D01*
X166515345Y-103266299D01*
X166474553Y-103218648D01*
X166414095Y-103153802D01*
X166349773Y-103087603D01*
X166286388Y-103023786D01*
X166228549Y-102966671D01*
X166179825Y-102919695D01*
X166143790Y-102886297D01*
X166124016Y-102869915D01*
X166122998Y-102869306D01*
X166109428Y-102867495D01*
X166087267Y-102874317D01*
X166053522Y-102891460D01*
X166005200Y-102920607D01*
X165939308Y-102963445D01*
X165854483Y-103020552D01*
X165779823Y-103071234D01*
X165712860Y-103116539D01*
X165657484Y-103153850D01*
X165617580Y-103180548D01*
X165597038Y-103194015D01*
X165595644Y-103194863D01*
X165575962Y-103193219D01*
X165537707Y-103180755D01*
X165488111Y-103159952D01*
X165472272Y-103152538D01*
X165401710Y-103120186D01*
X165321647Y-103085672D01*
X165252371Y-103057635D01*
X165200955Y-103037432D01*
X165161881Y-103021385D01*
X165141459Y-103012112D01*
X165139886Y-103010959D01*
X165137279Y-102993904D01*
X165130137Y-102953702D01*
X165119477Y-102895698D01*
X165106315Y-102825237D01*
X165091667Y-102747665D01*
X165076551Y-102668328D01*
X165061982Y-102592569D01*
X165048978Y-102525736D01*
X165038555Y-102473172D01*
X165031730Y-102440224D01*
X165029801Y-102432143D01*
X165025038Y-102423795D01*
X165014282Y-102417494D01*
X164993902Y-102412955D01*
X164960266Y-102409896D01*
X164909745Y-102408033D01*
X164838708Y-102407082D01*
X164743524Y-102406760D01*
X164704508Y-102406743D01*
X164387201Y-102406743D01*
X164372161Y-102482943D01*
X164364005Y-102525337D01*
X164352101Y-102588600D01*
X164337884Y-102665038D01*
X164322790Y-102746957D01*
X164318645Y-102769600D01*
X164303947Y-102845194D01*
X164289495Y-102911047D01*
X164276625Y-102961634D01*
X164266678Y-102991426D01*
X164263713Y-102996388D01*
X164242717Y-103008574D01*
X164202033Y-103026047D01*
X164149678Y-103045423D01*
X164138400Y-103049266D01*
X164068477Y-103074661D01*
X163989582Y-103106183D01*
X163918734Y-103137031D01*
X163918405Y-103137183D01*
X163807267Y-103188553D01*
X163558747Y-103019601D01*
X163310228Y-102850648D01*
X163092942Y-103067571D01*
X163028274Y-103133181D01*
X162971267Y-103193021D01*
X162924967Y-103243733D01*
X162892416Y-103281954D01*
X162876657Y-103304325D01*
X162875657Y-103307534D01*
X162883531Y-103326374D01*
X162905422Y-103364820D01*
X162938733Y-103418670D01*
X162980869Y-103483724D01*
X163028057Y-103554060D01*
X163076190Y-103625445D01*
X163118072Y-103689092D01*
X163151129Y-103740959D01*
X163172782Y-103777005D01*
X163180457Y-103793133D01*
X163173963Y-103812811D01*
X163156850Y-103850125D01*
X163132674Y-103897379D01*
X163129987Y-103902388D01*
X163098073Y-103966023D01*
X163082421Y-104009659D01*
X163082255Y-104036798D01*
X163096796Y-104050943D01*
X163097000Y-104051025D01*
X163114221Y-104058095D01*
X163155101Y-104074958D01*
X163216475Y-104100305D01*
X163295181Y-104132829D01*
X163388053Y-104171222D01*
X163491928Y-104214178D01*
X163592498Y-104255778D01*
X163703484Y-104301496D01*
X163806297Y-104343474D01*
X163897785Y-104380452D01*
X163974799Y-104411173D01*
X164034185Y-104434378D01*
X164072791Y-104448810D01*
X164087200Y-104453257D01*
X164103728Y-104442104D01*
X164130070Y-104412931D01*
X164159113Y-104374029D01*
X164250961Y-104263243D01*
X164356241Y-104176649D01*
X164472734Y-104115284D01*
X164598224Y-104080185D01*
X164730493Y-104072392D01*
X164791543Y-104078057D01*
X164918205Y-104108922D01*
X165030059Y-104162080D01*
X165125999Y-104234233D01*
X165204924Y-104322083D01*
X165265730Y-104422335D01*
X165307313Y-104531690D01*
X165328572Y-104646853D01*
X165328401Y-104764525D01*
X165305699Y-104881410D01*
X165259362Y-104994211D01*
X165188287Y-105099631D01*
X165148089Y-105143632D01*
X165044871Y-105228021D01*
X164932075Y-105286778D01*
X164812990Y-105320296D01*
X164690905Y-105328965D01*
X164569107Y-105313177D01*
X164450884Y-105273322D01*
X164339525Y-105209793D01*
X164238316Y-105122979D01*
X164159113Y-105025971D01*
X164128838Y-104985563D01*
X164102781Y-104957018D01*
X164087175Y-104946743D01*
X164070157Y-104952123D01*
X164029500Y-104967425D01*
X163968358Y-104991388D01*
X163889881Y-105022756D01*
X163797220Y-105060268D01*
X163693528Y-105102667D01*
X163592474Y-105144337D01*
X163481393Y-105190310D01*
X163378459Y-105232893D01*
X163286835Y-105270779D01*
X163209684Y-105302660D01*
X163150169Y-105327229D01*
X163111456Y-105343180D01*
X163097000Y-105349090D01*
X163082315Y-105363052D01*
X163082358Y-105390060D01*
X163097901Y-105433587D01*
X163129716Y-105497110D01*
X163129987Y-105497612D01*
X163154677Y-105545440D01*
X163172662Y-105584103D01*
X163180386Y-105605905D01*
X163180457Y-105606867D01*
X163172622Y-105623279D01*
X163150835Y-105659513D01*
X163117672Y-105711526D01*
X163075709Y-105775275D01*
X163028057Y-105845940D01*
X162979809Y-105917884D01*
X162937849Y-105982726D01*
X162904773Y-106036265D01*
X162883179Y-106074303D01*
X162875657Y-106092467D01*
X162885543Y-106109192D01*
X162913174Y-106142820D01*
X162955505Y-106189990D01*
X163009495Y-106247342D01*
X163072101Y-106311516D01*
X163093017Y-106332503D01*
X163310377Y-106549501D01*
X163552780Y-106384332D01*
X163627219Y-106334136D01*
X163694028Y-106290081D01*
X163749335Y-106254638D01*
X163789271Y-106230281D01*
X163809964Y-106219478D01*
X163811437Y-106219162D01*
X163830942Y-106224857D01*
X163870178Y-106240174D01*
X163922570Y-106262463D01*
X163957645Y-106278107D01*
X164024799Y-106307359D01*
X164092642Y-106334906D01*
X164149966Y-106356263D01*
X164167428Y-106362065D01*
X164214062Y-106378548D01*
X164250095Y-106394660D01*
X164263713Y-106403510D01*
X164272048Y-106423040D01*
X164283863Y-106465666D01*
X164297819Y-106525855D01*
X164312578Y-106598078D01*
X164318645Y-106630400D01*
X164333727Y-106712478D01*
X164348331Y-106791205D01*
X164361020Y-106858891D01*
X164370358Y-106907840D01*
X164372161Y-106917057D01*
X164387201Y-106993257D01*
X164704508Y-106993257D01*
X164808846Y-106993086D01*
X164887787Y-106992384D01*
X164944962Y-106990866D01*
X164984001Y-106988251D01*
X165008535Y-106984254D01*
X165022195Y-106978591D01*
X165028611Y-106970980D01*
X165029801Y-106967857D01*
X165034020Y-106949022D01*
X165042438Y-106907412D01*
X165054039Y-106848370D01*
X165067805Y-106777243D01*
X165082720Y-106699375D01*
X165097768Y-106620113D01*
X165111931Y-106544802D01*
X165124194Y-106478787D01*
X165133539Y-106427413D01*
X165138950Y-106396025D01*
X165139886Y-106389041D01*
X165152404Y-106382715D01*
X165185754Y-106368710D01*
X165233623Y-106349645D01*
X165252371Y-106342366D01*
X165324805Y-106313004D01*
X165404830Y-106278429D01*
X165472272Y-106247463D01*
X165523841Y-106224677D01*
X165566215Y-106209518D01*
X165592166Y-106204458D01*
X165595644Y-106205264D01*
X165612064Y-106215959D01*
X165648583Y-106240380D01*
X165701313Y-106275905D01*
X165766365Y-106319913D01*
X165839849Y-106369783D01*
X165854355Y-106379644D01*
X165940296Y-106437508D01*
X166005739Y-106480044D01*
X166053696Y-106508946D01*
X166087180Y-106525910D01*
X166109205Y-106532633D01*
X166122783Y-106530810D01*
X166122869Y-106530764D01*
X166140703Y-106516414D01*
X166175183Y-106484677D01*
X166222732Y-106438990D01*
X166279778Y-106382796D01*
X166342745Y-106319532D01*
X166349773Y-106312398D01*
X166426980Y-106232670D01*
X166483670Y-106171143D01*
X166520890Y-106126579D01*
X166539685Y-106097743D01*
X166542111Y-106085042D01*
X166531529Y-106066506D01*
X166507084Y-106028039D01*
X166471388Y-105973614D01*
X166427053Y-105907202D01*
X166376689Y-105832775D01*
X166364840Y-105815399D01*
X166196374Y-105568703D01*
X166246938Y-105457294D01*
X166276405Y-105389543D01*
X166306041Y-105316817D01*
X166329670Y-105254297D01*
X166330642Y-105251543D01*
X166348543Y-105202640D01*
X166363680Y-105164943D01*
X166372790Y-105146575D01*
X166372816Y-105146544D01*
X166389283Y-105140715D01*
X166429781Y-105130808D01*
X166489758Y-105117805D01*
X166564660Y-105102691D01*
X166649936Y-105086448D01*
X166657125Y-105085119D01*
X166744986Y-105068825D01*
X166824740Y-105053867D01*
X166891319Y-105041209D01*
X166939653Y-105031814D01*
X166964675Y-105026646D01*
X166965057Y-105026556D01*
X166975701Y-105023411D01*
X166983738Y-105017296D01*
X166989533Y-105004547D01*
X166993453Y-104981500D01*
X166995865Y-104944491D01*
X166997135Y-104889856D01*
X166997629Y-104813933D01*
X166997714Y-104713056D01*
X166997714Y-104700000D01*
X166997652Y-104596090D01*
X166997652Y-104596090D01*
G37*
X166997652Y-104596090D02*
X166997222Y-104517546D01*
X166996058Y-104460702D01*
X166993793Y-104421895D01*
X166990060Y-104397462D01*
X166984494Y-104383738D01*
X166976727Y-104377060D01*
X166966395Y-104373764D01*
X166965057Y-104373444D01*
X166940921Y-104368438D01*
X166893299Y-104359171D01*
X166827259Y-104346608D01*
X166747872Y-104331713D01*
X166660204Y-104315449D01*
X166657125Y-104314881D01*
X166571211Y-104298590D01*
X166495304Y-104283348D01*
X166433955Y-104270139D01*
X166391718Y-104259946D01*
X166373145Y-104253752D01*
X166372816Y-104253457D01*
X166363747Y-104235212D01*
X166348633Y-104197595D01*
X166330738Y-104148729D01*
X166330642Y-104148457D01*
X166307507Y-104086907D01*
X166278035Y-104014343D01*
X166248403Y-103945943D01*
X166246938Y-103942706D01*
X166196374Y-103831298D01*
X166364840Y-103584601D01*
X166416197Y-103508923D01*
X166462111Y-103440369D01*
X166499970Y-103382912D01*
X166527163Y-103340524D01*
X166541079Y-103317175D01*
X166542111Y-103314958D01*
X166537516Y-103297990D01*
X166515345Y-103266299D01*
X166474553Y-103218648D01*
X166414095Y-103153802D01*
X166349773Y-103087603D01*
X166286388Y-103023786D01*
X166228549Y-102966671D01*
X166179825Y-102919695D01*
X166143790Y-102886297D01*
X166124016Y-102869915D01*
X166122998Y-102869306D01*
X166109428Y-102867495D01*
X166087267Y-102874317D01*
X166053522Y-102891460D01*
X166005200Y-102920607D01*
X165939308Y-102963445D01*
X165854483Y-103020552D01*
X165779823Y-103071234D01*
X165712860Y-103116539D01*
X165657484Y-103153850D01*
X165617580Y-103180548D01*
X165597038Y-103194015D01*
X165595644Y-103194863D01*
X165575962Y-103193219D01*
X165537707Y-103180755D01*
X165488111Y-103159952D01*
X165472272Y-103152538D01*
X165401710Y-103120186D01*
X165321647Y-103085672D01*
X165252371Y-103057635D01*
X165200955Y-103037432D01*
X165161881Y-103021385D01*
X165141459Y-103012112D01*
X165139886Y-103010959D01*
X165137279Y-102993904D01*
X165130137Y-102953702D01*
X165119477Y-102895698D01*
X165106315Y-102825237D01*
X165091667Y-102747665D01*
X165076551Y-102668328D01*
X165061982Y-102592569D01*
X165048978Y-102525736D01*
X165038555Y-102473172D01*
X165031730Y-102440224D01*
X165029801Y-102432143D01*
X165025038Y-102423795D01*
X165014282Y-102417494D01*
X164993902Y-102412955D01*
X164960266Y-102409896D01*
X164909745Y-102408033D01*
X164838708Y-102407082D01*
X164743524Y-102406760D01*
X164704508Y-102406743D01*
X164387201Y-102406743D01*
X164372161Y-102482943D01*
X164364005Y-102525337D01*
X164352101Y-102588600D01*
X164337884Y-102665038D01*
X164322790Y-102746957D01*
X164318645Y-102769600D01*
X164303947Y-102845194D01*
X164289495Y-102911047D01*
X164276625Y-102961634D01*
X164266678Y-102991426D01*
X164263713Y-102996388D01*
X164242717Y-103008574D01*
X164202033Y-103026047D01*
X164149678Y-103045423D01*
X164138400Y-103049266D01*
X164068477Y-103074661D01*
X163989582Y-103106183D01*
X163918734Y-103137031D01*
X163918405Y-103137183D01*
X163807267Y-103188553D01*
X163558747Y-103019601D01*
X163310228Y-102850648D01*
X163092942Y-103067571D01*
X163028274Y-103133181D01*
X162971267Y-103193021D01*
X162924967Y-103243733D01*
X162892416Y-103281954D01*
X162876657Y-103304325D01*
X162875657Y-103307534D01*
X162883531Y-103326374D01*
X162905422Y-103364820D01*
X162938733Y-103418670D01*
X162980869Y-103483724D01*
X163028057Y-103554060D01*
X163076190Y-103625445D01*
X163118072Y-103689092D01*
X163151129Y-103740959D01*
X163172782Y-103777005D01*
X163180457Y-103793133D01*
X163173963Y-103812811D01*
X163156850Y-103850125D01*
X163132674Y-103897379D01*
X163129987Y-103902388D01*
X163098073Y-103966023D01*
X163082421Y-104009659D01*
X163082255Y-104036798D01*
X163096796Y-104050943D01*
X163097000Y-104051025D01*
X163114221Y-104058095D01*
X163155101Y-104074958D01*
X163216475Y-104100305D01*
X163295181Y-104132829D01*
X163388053Y-104171222D01*
X163491928Y-104214178D01*
X163592498Y-104255778D01*
X163703484Y-104301496D01*
X163806297Y-104343474D01*
X163897785Y-104380452D01*
X163974799Y-104411173D01*
X164034185Y-104434378D01*
X164072791Y-104448810D01*
X164087200Y-104453257D01*
X164103728Y-104442104D01*
X164130070Y-104412931D01*
X164159113Y-104374029D01*
X164250961Y-104263243D01*
X164356241Y-104176649D01*
X164472734Y-104115284D01*
X164598224Y-104080185D01*
X164730493Y-104072392D01*
X164791543Y-104078057D01*
X164918205Y-104108922D01*
X165030059Y-104162080D01*
X165125999Y-104234233D01*
X165204924Y-104322083D01*
X165265730Y-104422335D01*
X165307313Y-104531690D01*
X165328572Y-104646853D01*
X165328401Y-104764525D01*
X165305699Y-104881410D01*
X165259362Y-104994211D01*
X165188287Y-105099631D01*
X165148089Y-105143632D01*
X165044871Y-105228021D01*
X164932075Y-105286778D01*
X164812990Y-105320296D01*
X164690905Y-105328965D01*
X164569107Y-105313177D01*
X164450884Y-105273322D01*
X164339525Y-105209793D01*
X164238316Y-105122979D01*
X164159113Y-105025971D01*
X164128838Y-104985563D01*
X164102781Y-104957018D01*
X164087175Y-104946743D01*
X164070157Y-104952123D01*
X164029500Y-104967425D01*
X163968358Y-104991388D01*
X163889881Y-105022756D01*
X163797220Y-105060268D01*
X163693528Y-105102667D01*
X163592474Y-105144337D01*
X163481393Y-105190310D01*
X163378459Y-105232893D01*
X163286835Y-105270779D01*
X163209684Y-105302660D01*
X163150169Y-105327229D01*
X163111456Y-105343180D01*
X163097000Y-105349090D01*
X163082315Y-105363052D01*
X163082358Y-105390060D01*
X163097901Y-105433587D01*
X163129716Y-105497110D01*
X163129987Y-105497612D01*
X163154677Y-105545440D01*
X163172662Y-105584103D01*
X163180386Y-105605905D01*
X163180457Y-105606867D01*
X163172622Y-105623279D01*
X163150835Y-105659513D01*
X163117672Y-105711526D01*
X163075709Y-105775275D01*
X163028057Y-105845940D01*
X162979809Y-105917884D01*
X162937849Y-105982726D01*
X162904773Y-106036265D01*
X162883179Y-106074303D01*
X162875657Y-106092467D01*
X162885543Y-106109192D01*
X162913174Y-106142820D01*
X162955505Y-106189990D01*
X163009495Y-106247342D01*
X163072101Y-106311516D01*
X163093017Y-106332503D01*
X163310377Y-106549501D01*
X163552780Y-106384332D01*
X163627219Y-106334136D01*
X163694028Y-106290081D01*
X163749335Y-106254638D01*
X163789271Y-106230281D01*
X163809964Y-106219478D01*
X163811437Y-106219162D01*
X163830942Y-106224857D01*
X163870178Y-106240174D01*
X163922570Y-106262463D01*
X163957645Y-106278107D01*
X164024799Y-106307359D01*
X164092642Y-106334906D01*
X164149966Y-106356263D01*
X164167428Y-106362065D01*
X164214062Y-106378548D01*
X164250095Y-106394660D01*
X164263713Y-106403510D01*
X164272048Y-106423040D01*
X164283863Y-106465666D01*
X164297819Y-106525855D01*
X164312578Y-106598078D01*
X164318645Y-106630400D01*
X164333727Y-106712478D01*
X164348331Y-106791205D01*
X164361020Y-106858891D01*
X164370358Y-106907840D01*
X164372161Y-106917057D01*
X164387201Y-106993257D01*
X164704508Y-106993257D01*
X164808846Y-106993086D01*
X164887787Y-106992384D01*
X164944962Y-106990866D01*
X164984001Y-106988251D01*
X165008535Y-106984254D01*
X165022195Y-106978591D01*
X165028611Y-106970980D01*
X165029801Y-106967857D01*
X165034020Y-106949022D01*
X165042438Y-106907412D01*
X165054039Y-106848370D01*
X165067805Y-106777243D01*
X165082720Y-106699375D01*
X165097768Y-106620113D01*
X165111931Y-106544802D01*
X165124194Y-106478787D01*
X165133539Y-106427413D01*
X165138950Y-106396025D01*
X165139886Y-106389041D01*
X165152404Y-106382715D01*
X165185754Y-106368710D01*
X165233623Y-106349645D01*
X165252371Y-106342366D01*
X165324805Y-106313004D01*
X165404830Y-106278429D01*
X165472272Y-106247463D01*
X165523841Y-106224677D01*
X165566215Y-106209518D01*
X165592166Y-106204458D01*
X165595644Y-106205264D01*
X165612064Y-106215959D01*
X165648583Y-106240380D01*
X165701313Y-106275905D01*
X165766365Y-106319913D01*
X165839849Y-106369783D01*
X165854355Y-106379644D01*
X165940296Y-106437508D01*
X166005739Y-106480044D01*
X166053696Y-106508946D01*
X166087180Y-106525910D01*
X166109205Y-106532633D01*
X166122783Y-106530810D01*
X166122869Y-106530764D01*
X166140703Y-106516414D01*
X166175183Y-106484677D01*
X166222732Y-106438990D01*
X166279778Y-106382796D01*
X166342745Y-106319532D01*
X166349773Y-106312398D01*
X166426980Y-106232670D01*
X166483670Y-106171143D01*
X166520890Y-106126579D01*
X166539685Y-106097743D01*
X166542111Y-106085042D01*
X166531529Y-106066506D01*
X166507084Y-106028039D01*
X166471388Y-105973614D01*
X166427053Y-105907202D01*
X166376689Y-105832775D01*
X166364840Y-105815399D01*
X166196374Y-105568703D01*
X166246938Y-105457294D01*
X166276405Y-105389543D01*
X166306041Y-105316817D01*
X166329670Y-105254297D01*
X166330642Y-105251543D01*
X166348543Y-105202640D01*
X166363680Y-105164943D01*
X166372790Y-105146575D01*
X166372816Y-105146544D01*
X166389283Y-105140715D01*
X166429781Y-105130808D01*
X166489758Y-105117805D01*
X166564660Y-105102691D01*
X166649936Y-105086448D01*
X166657125Y-105085119D01*
X166744986Y-105068825D01*
X166824740Y-105053867D01*
X166891319Y-105041209D01*
X166939653Y-105031814D01*
X166964675Y-105026646D01*
X166965057Y-105026556D01*
X166975701Y-105023411D01*
X166983738Y-105017296D01*
X166989533Y-105004547D01*
X166993453Y-104981500D01*
X166995865Y-104944491D01*
X166997135Y-104889856D01*
X166997629Y-104813933D01*
X166997714Y-104713056D01*
X166997714Y-104700000D01*
X166997652Y-104596090D01*
G36*
X162273034Y-101546405D02*
G01*
X162235503Y-101488979D01*
X162201904Y-101461281D01*
X162140936Y-101439338D01*
X162092692Y-101437595D01*
X162028184Y-101441543D01*
X161963066Y-101590314D01*
X161929798Y-101662651D01*
X161903036Y-101709916D01*
X161879856Y-101734493D01*
X161857333Y-101738763D01*
X161832545Y-101725111D01*
X161816114Y-101710057D01*
X161789765Y-101666254D01*
X161787919Y-101618611D01*
X161808454Y-101574855D01*
X161849248Y-101542711D01*
X161863653Y-101536962D01*
X161908644Y-101509424D01*
X161927818Y-101477742D01*
X161944221Y-101434286D01*
X161882034Y-101434286D01*
X161839717Y-101438128D01*
X161804031Y-101453177D01*
X161763057Y-101484720D01*
X161757733Y-101489408D01*
X161721280Y-101524494D01*
X161701717Y-101554653D01*
X161692717Y-101592385D01*
X161689770Y-101623665D01*
X161689035Y-101679615D01*
X161698340Y-101719445D01*
X161712154Y-101744292D01*
X161742533Y-101783344D01*
X161775387Y-101810375D01*
X161816706Y-101827483D01*
X161872479Y-101836762D01*
X161948695Y-101840307D01*
X161987378Y-101840590D01*
X162033753Y-101839628D01*
X162033753Y-101751993D01*
X162008874Y-101750977D01*
X162004800Y-101748444D01*
X162010335Y-101731726D01*
X162024983Y-101695751D01*
X162045810Y-101647669D01*
X162050286Y-101637614D01*
X162081186Y-101576848D01*
X162108343Y-101543368D01*
X162133780Y-101536010D01*
X162159519Y-101553609D01*
X162170891Y-101568144D01*
X162193636Y-101620590D01*
X162189878Y-101669678D01*
X162162116Y-101710773D01*
X162112848Y-101739242D01*
X162073743Y-101748369D01*
X162033753Y-101751993D01*
X162033753Y-101839628D01*
X162077751Y-101838715D01*
X162144616Y-101831804D01*
X162193305Y-101818116D01*
X162229151Y-101795904D01*
X162257487Y-101763426D01*
X162266645Y-101749267D01*
X162290493Y-101684947D01*
X162291994Y-101614527D01*
X162273034Y-101546405D01*
X162273034Y-101546405D01*
G37*
X162273034Y-101546405D02*
X162235503Y-101488979D01*
X162201904Y-101461281D01*
X162140936Y-101439338D01*
X162092692Y-101437595D01*
X162028184Y-101441543D01*
X161963066Y-101590314D01*
X161929798Y-101662651D01*
X161903036Y-101709916D01*
X161879856Y-101734493D01*
X161857333Y-101738763D01*
X161832545Y-101725111D01*
X161816114Y-101710057D01*
X161789765Y-101666254D01*
X161787919Y-101618611D01*
X161808454Y-101574855D01*
X161849248Y-101542711D01*
X161863653Y-101536962D01*
X161908644Y-101509424D01*
X161927818Y-101477742D01*
X161944221Y-101434286D01*
X161882034Y-101434286D01*
X161839717Y-101438128D01*
X161804031Y-101453177D01*
X161763057Y-101484720D01*
X161757733Y-101489408D01*
X161721280Y-101524494D01*
X161701717Y-101554653D01*
X161692717Y-101592385D01*
X161689770Y-101623665D01*
X161689035Y-101679615D01*
X161698340Y-101719445D01*
X161712154Y-101744292D01*
X161742533Y-101783344D01*
X161775387Y-101810375D01*
X161816706Y-101827483D01*
X161872479Y-101836762D01*
X161948695Y-101840307D01*
X161987378Y-101840590D01*
X162033753Y-101839628D01*
X162033753Y-101751993D01*
X162008874Y-101750977D01*
X162004800Y-101748444D01*
X162010335Y-101731726D01*
X162024983Y-101695751D01*
X162045810Y-101647669D01*
X162050286Y-101637614D01*
X162081186Y-101576848D01*
X162108343Y-101543368D01*
X162133780Y-101536010D01*
X162159519Y-101553609D01*
X162170891Y-101568144D01*
X162193636Y-101620590D01*
X162189878Y-101669678D01*
X162162116Y-101710773D01*
X162112848Y-101739242D01*
X162073743Y-101748369D01*
X162033753Y-101751993D01*
X162033753Y-101839628D01*
X162077751Y-101838715D01*
X162144616Y-101831804D01*
X162193305Y-101818116D01*
X162229151Y-101795904D01*
X162257487Y-101763426D01*
X162266645Y-101749267D01*
X162290493Y-101684947D01*
X162291994Y-101614527D01*
X162273034Y-101546405D01*
G36*
X162281248Y-102047400D02*
G01*
X162273666Y-102030052D01*
X162240872Y-101988644D01*
X162193453Y-101953235D01*
X162142849Y-101931336D01*
X162117902Y-101927771D01*
X162083073Y-101939721D01*
X162064643Y-101965933D01*
X162053484Y-101994036D01*
X162051428Y-102006905D01*
X162066351Y-102013171D01*
X162098825Y-102025544D01*
X162113498Y-102030972D01*
X162164256Y-102061410D01*
X162189573Y-102105480D01*
X162188794Y-102161990D01*
X162187797Y-102166175D01*
X162173493Y-102196345D01*
X162145607Y-102218524D01*
X162100713Y-102233673D01*
X162035385Y-102242750D01*
X161946196Y-102246714D01*
X161898739Y-102247086D01*
X161823929Y-102247270D01*
X161772931Y-102248478D01*
X161740529Y-102251691D01*
X161721505Y-102257891D01*
X161710644Y-102268060D01*
X161702728Y-102283181D01*
X161702330Y-102284054D01*
X161690019Y-102313172D01*
X161685486Y-102327597D01*
X161699191Y-102329814D01*
X161737075Y-102331711D01*
X161794285Y-102333153D01*
X161865973Y-102334002D01*
X161918435Y-102334171D01*
X162019953Y-102333308D01*
X162096968Y-102329930D01*
X162153977Y-102322858D01*
X162195474Y-102310912D01*
X162225957Y-102292910D01*
X162249920Y-102267673D01*
X162266645Y-102242753D01*
X162288903Y-102182829D01*
X162293924Y-102113089D01*
X162281248Y-102047400D01*
X162281248Y-102047400D01*
G37*
X162281248Y-102047400D02*
X162273666Y-102030052D01*
X162240872Y-101988644D01*
X162193453Y-101953235D01*
X162142849Y-101931336D01*
X162117902Y-101927771D01*
X162083073Y-101939721D01*
X162064643Y-101965933D01*
X162053484Y-101994036D01*
X162051428Y-102006905D01*
X162066351Y-102013171D01*
X162098825Y-102025544D01*
X162113498Y-102030972D01*
X162164256Y-102061410D01*
X162189573Y-102105480D01*
X162188794Y-102161990D01*
X162187797Y-102166175D01*
X162173493Y-102196345D01*
X162145607Y-102218524D01*
X162100713Y-102233673D01*
X162035385Y-102242750D01*
X161946196Y-102246714D01*
X161898739Y-102247086D01*
X161823929Y-102247270D01*
X161772931Y-102248478D01*
X161740529Y-102251691D01*
X161721505Y-102257891D01*
X161710644Y-102268060D01*
X161702728Y-102283181D01*
X161702330Y-102284054D01*
X161690019Y-102313172D01*
X161685486Y-102327597D01*
X161699191Y-102329814D01*
X161737075Y-102331711D01*
X161794285Y-102333153D01*
X161865973Y-102334002D01*
X161918435Y-102334171D01*
X162019953Y-102333308D01*
X162096968Y-102329930D01*
X162153977Y-102322858D01*
X162195474Y-102310912D01*
X162225957Y-102292910D01*
X162249920Y-102267673D01*
X162266645Y-102242753D01*
X162288903Y-102182829D01*
X162293924Y-102113089D01*
X162281248Y-102047400D01*
G36*
X162283665Y-102555124D02*
G01*
X162264656Y-102513333D01*
X162241622Y-102480531D01*
X162215867Y-102456497D01*
X162182642Y-102439903D01*
X162137200Y-102429423D01*
X162074793Y-102423729D01*
X161990673Y-102421493D01*
X161935279Y-102421257D01*
X161719174Y-102421257D01*
X161702330Y-102458226D01*
X161690019Y-102487344D01*
X161685486Y-102501769D01*
X161698975Y-102504528D01*
X161735347Y-102506718D01*
X161788458Y-102508058D01*
X161830628Y-102508343D01*
X161891553Y-102509566D01*
X161939885Y-102512864D01*
X161969482Y-102517679D01*
X161975771Y-102521504D01*
X161969348Y-102547217D01*
X161952875Y-102587582D01*
X161930542Y-102634321D01*
X161906543Y-102679155D01*
X161885070Y-102713807D01*
X161870315Y-102729998D01*
X161870155Y-102730062D01*
X161842848Y-102728670D01*
X161816781Y-102716182D01*
X161795608Y-102694257D01*
X161788526Y-102662257D01*
X161789351Y-102634908D01*
X161789958Y-102596174D01*
X161780884Y-102575842D01*
X161756908Y-102563631D01*
X161752387Y-102562091D01*
X161718194Y-102556797D01*
X161697432Y-102570953D01*
X161687538Y-102607852D01*
X161685708Y-102647711D01*
X161699273Y-102719438D01*
X161718645Y-102756568D01*
X161764155Y-102802424D01*
X161820017Y-102826744D01*
X161879043Y-102828927D01*
X161934047Y-102808371D01*
X161968514Y-102777451D01*
X161987811Y-102746580D01*
X162012241Y-102698058D01*
X162037015Y-102641515D01*
X162040801Y-102632090D01*
X162068209Y-102569981D01*
X162092366Y-102534178D01*
X162116381Y-102522663D01*
X162143365Y-102533420D01*
X162164457Y-102551886D01*
X162190428Y-102595531D01*
X162192376Y-102643554D01*
X162172363Y-102687594D01*
X162132449Y-102719291D01*
X162122152Y-102723451D01*
X162084276Y-102747673D01*
X162056158Y-102783035D01*
X162033083Y-102827657D01*
X162098515Y-102827657D01*
X162138494Y-102825031D01*
X162170003Y-102813770D01*
X162203622Y-102788801D01*
X162229516Y-102764831D01*
X162266183Y-102727559D01*
X162285879Y-102698599D01*
X162293780Y-102667495D01*
X162295086Y-102632287D01*
X162283665Y-102555124D01*
X162283665Y-102555124D01*
G37*
X162283665Y-102555124D02*
X162264656Y-102513333D01*
X162241622Y-102480531D01*
X162215867Y-102456497D01*
X162182642Y-102439903D01*
X162137200Y-102429423D01*
X162074793Y-102423729D01*
X161990673Y-102421493D01*
X161935279Y-102421257D01*
X161719174Y-102421257D01*
X161702330Y-102458226D01*
X161690019Y-102487344D01*
X161685486Y-102501769D01*
X161698975Y-102504528D01*
X161735347Y-102506718D01*
X161788458Y-102508058D01*
X161830628Y-102508343D01*
X161891553Y-102509566D01*
X161939885Y-102512864D01*
X161969482Y-102517679D01*
X161975771Y-102521504D01*
X161969348Y-102547217D01*
X161952875Y-102587582D01*
X161930542Y-102634321D01*
X161906543Y-102679155D01*
X161885070Y-102713807D01*
X161870315Y-102729998D01*
X161870155Y-102730062D01*
X161842848Y-102728670D01*
X161816781Y-102716182D01*
X161795608Y-102694257D01*
X161788526Y-102662257D01*
X161789351Y-102634908D01*
X161789958Y-102596174D01*
X161780884Y-102575842D01*
X161756908Y-102563631D01*
X161752387Y-102562091D01*
X161718194Y-102556797D01*
X161697432Y-102570953D01*
X161687538Y-102607852D01*
X161685708Y-102647711D01*
X161699273Y-102719438D01*
X161718645Y-102756568D01*
X161764155Y-102802424D01*
X161820017Y-102826744D01*
X161879043Y-102828927D01*
X161934047Y-102808371D01*
X161968514Y-102777451D01*
X161987811Y-102746580D01*
X162012241Y-102698058D01*
X162037015Y-102641515D01*
X162040801Y-102632090D01*
X162068209Y-102569981D01*
X162092366Y-102534178D01*
X162116381Y-102522663D01*
X162143365Y-102533420D01*
X162164457Y-102551886D01*
X162190428Y-102595531D01*
X162192376Y-102643554D01*
X162172363Y-102687594D01*
X162132449Y-102719291D01*
X162122152Y-102723451D01*
X162084276Y-102747673D01*
X162056158Y-102783035D01*
X162033083Y-102827657D01*
X162098515Y-102827657D01*
X162138494Y-102825031D01*
X162170003Y-102813770D01*
X162203622Y-102788801D01*
X162229516Y-102764831D01*
X162266183Y-102727559D01*
X162285879Y-102698599D01*
X162293780Y-102667495D01*
X162295086Y-102632287D01*
X162283665Y-102555124D01*
G36*
X162281337Y-102920167D02*
G01*
X162243150Y-102917952D01*
X162185114Y-102916216D01*
X162111820Y-102915101D01*
X162034945Y-102914743D01*
X161774804Y-102914743D01*
X161728873Y-102960674D01*
X161700571Y-102992325D01*
X161689107Y-103020110D01*
X161689832Y-103058085D01*
X161691679Y-103073160D01*
X161697052Y-103120274D01*
X161700131Y-103159244D01*
X161700415Y-103168743D01*
X161698555Y-103200767D01*
X161693886Y-103246568D01*
X161691679Y-103264326D01*
X161688265Y-103307943D01*
X161695680Y-103337255D01*
X161718573Y-103366320D01*
X161728873Y-103376812D01*
X161774804Y-103422743D01*
X162261398Y-103422743D01*
X162278242Y-103385774D01*
X162290718Y-103353941D01*
X162295086Y-103335317D01*
X162281282Y-103330542D01*
X162242714Y-103326079D01*
X162183644Y-103322225D01*
X162108337Y-103319278D01*
X162044714Y-103317857D01*
X161794343Y-103313886D01*
X161789444Y-103279241D01*
X161792869Y-103247732D01*
X161803959Y-103232292D01*
X161824692Y-103227977D01*
X161868855Y-103224292D01*
X161930854Y-103221531D01*
X162005091Y-103219988D01*
X162043294Y-103219765D01*
X162263217Y-103219543D01*
X162279151Y-103173834D01*
X162289985Y-103141482D01*
X162295038Y-103123885D01*
X162295086Y-103123377D01*
X162281352Y-103121612D01*
X162243270Y-103119671D01*
X162185518Y-103117718D01*
X162112773Y-103115916D01*
X162044714Y-103114657D01*
X161794343Y-103110686D01*
X161794343Y-103023600D01*
X162022760Y-103019604D01*
X162251178Y-103015608D01*
X162273132Y-102973153D01*
X162288207Y-102941808D01*
X162295049Y-102923256D01*
X162295086Y-102922721D01*
X162281337Y-102920167D01*
X162281337Y-102920167D01*
G37*
X162281337Y-102920167D02*
X162243150Y-102917952D01*
X162185114Y-102916216D01*
X162111820Y-102915101D01*
X162034945Y-102914743D01*
X161774804Y-102914743D01*
X161728873Y-102960674D01*
X161700571Y-102992325D01*
X161689107Y-103020110D01*
X161689832Y-103058085D01*
X161691679Y-103073160D01*
X161697052Y-103120274D01*
X161700131Y-103159244D01*
X161700415Y-103168743D01*
X161698555Y-103200767D01*
X161693886Y-103246568D01*
X161691679Y-103264326D01*
X161688265Y-103307943D01*
X161695680Y-103337255D01*
X161718573Y-103366320D01*
X161728873Y-103376812D01*
X161774804Y-103422743D01*
X162261398Y-103422743D01*
X162278242Y-103385774D01*
X162290718Y-103353941D01*
X162295086Y-103335317D01*
X162281282Y-103330542D01*
X162242714Y-103326079D01*
X162183644Y-103322225D01*
X162108337Y-103319278D01*
X162044714Y-103317857D01*
X161794343Y-103313886D01*
X161789444Y-103279241D01*
X161792869Y-103247732D01*
X161803959Y-103232292D01*
X161824692Y-103227977D01*
X161868855Y-103224292D01*
X161930854Y-103221531D01*
X162005091Y-103219988D01*
X162043294Y-103219765D01*
X162263217Y-103219543D01*
X162279151Y-103173834D01*
X162289985Y-103141482D01*
X162295038Y-103123885D01*
X162295086Y-103123377D01*
X162281352Y-103121612D01*
X162243270Y-103119671D01*
X162185518Y-103117718D01*
X162112773Y-103115916D01*
X162044714Y-103114657D01*
X161794343Y-103110686D01*
X161794343Y-103023600D01*
X162022760Y-103019604D01*
X162251178Y-103015608D01*
X162273132Y-102973153D01*
X162288207Y-102941808D01*
X162295049Y-102923256D01*
X162295086Y-102922721D01*
X162281337Y-102920167D01*
G36*
X162174642Y-103509883D02*
G01*
X162066163Y-103510067D01*
X161982713Y-103510781D01*
X161920296Y-103512325D01*
X161874915Y-103514999D01*
X161842571Y-103519106D01*
X161819267Y-103524945D01*
X161801005Y-103532818D01*
X161790582Y-103538779D01*
X161734055Y-103588145D01*
X161698623Y-103650736D01*
X161685910Y-103719987D01*
X161697537Y-103789332D01*
X161718432Y-103830625D01*
X161754578Y-103873975D01*
X161798724Y-103903519D01*
X161856538Y-103921345D01*
X161933687Y-103929537D01*
X161990286Y-103930698D01*
X161994353Y-103930542D01*
X161994353Y-103829143D01*
X161929450Y-103828524D01*
X161886486Y-103825686D01*
X161858378Y-103819160D01*
X161838047Y-103807477D01*
X161822712Y-103793517D01*
X161793110Y-103746635D01*
X161790581Y-103696299D01*
X161815295Y-103648724D01*
X161818644Y-103645021D01*
X161836065Y-103629217D01*
X161856791Y-103619307D01*
X161887638Y-103613942D01*
X161935423Y-103611772D01*
X161988252Y-103611429D01*
X162054619Y-103612173D01*
X162098894Y-103615252D01*
X162127991Y-103621939D01*
X162148827Y-103633504D01*
X162159893Y-103642987D01*
X162187802Y-103687040D01*
X162191157Y-103737776D01*
X162169841Y-103786204D01*
X162161927Y-103795550D01*
X162144353Y-103811460D01*
X162123413Y-103821390D01*
X162092218Y-103826722D01*
X162043878Y-103828837D01*
X161994353Y-103829143D01*
X161994353Y-103930542D01*
X162081432Y-103927190D01*
X162149914Y-103915274D01*
X162201400Y-103892865D01*
X162241557Y-103857876D01*
X162262139Y-103830625D01*
X162284375Y-103781093D01*
X162294696Y-103723684D01*
X162291933Y-103670318D01*
X162280788Y-103640457D01*
X162277617Y-103628739D01*
X162289443Y-103620963D01*
X162321134Y-103615535D01*
X162369407Y-103611429D01*
X162423171Y-103606933D01*
X162455518Y-103600687D01*
X162474015Y-103589324D01*
X162486230Y-103569472D01*
X162491638Y-103557000D01*
X162511399Y-103509829D01*
X162174642Y-103509883D01*
X162174642Y-103509883D01*
G37*
X162174642Y-103509883D02*
X162066163Y-103510067D01*
X161982713Y-103510781D01*
X161920296Y-103512325D01*
X161874915Y-103514999D01*
X161842571Y-103519106D01*
X161819267Y-103524945D01*
X161801005Y-103532818D01*
X161790582Y-103538779D01*
X161734055Y-103588145D01*
X161698623Y-103650736D01*
X161685910Y-103719987D01*
X161697537Y-103789332D01*
X161718432Y-103830625D01*
X161754578Y-103873975D01*
X161798724Y-103903519D01*
X161856538Y-103921345D01*
X161933687Y-103929537D01*
X161990286Y-103930698D01*
X161994353Y-103930542D01*
X161994353Y-103829143D01*
X161929450Y-103828524D01*
X161886486Y-103825686D01*
X161858378Y-103819160D01*
X161838047Y-103807477D01*
X161822712Y-103793517D01*
X161793110Y-103746635D01*
X161790581Y-103696299D01*
X161815295Y-103648724D01*
X161818644Y-103645021D01*
X161836065Y-103629217D01*
X161856791Y-103619307D01*
X161887638Y-103613942D01*
X161935423Y-103611772D01*
X161988252Y-103611429D01*
X162054619Y-103612173D01*
X162098894Y-103615252D01*
X162127991Y-103621939D01*
X162148827Y-103633504D01*
X162159893Y-103642987D01*
X162187802Y-103687040D01*
X162191157Y-103737776D01*
X162169841Y-103786204D01*
X162161927Y-103795550D01*
X162144353Y-103811460D01*
X162123413Y-103821390D01*
X162092218Y-103826722D01*
X162043878Y-103828837D01*
X161994353Y-103829143D01*
X161994353Y-103930542D01*
X162081432Y-103927190D01*
X162149914Y-103915274D01*
X162201400Y-103892865D01*
X162241557Y-103857876D01*
X162262139Y-103830625D01*
X162284375Y-103781093D01*
X162294696Y-103723684D01*
X162291933Y-103670318D01*
X162280788Y-103640457D01*
X162277617Y-103628739D01*
X162289443Y-103620963D01*
X162321134Y-103615535D01*
X162369407Y-103611429D01*
X162423171Y-103606933D01*
X162455518Y-103600687D01*
X162474015Y-103589324D01*
X162486230Y-103569472D01*
X162491638Y-103557000D01*
X162511399Y-103509829D01*
X162174642Y-103509883D01*
G36*
X162290245Y-104170074D02*
G01*
X162265916Y-104104142D01*
X162222883Y-104050727D01*
X162192591Y-104029836D01*
X162137006Y-104007061D01*
X162096814Y-104007534D01*
X162069783Y-104031438D01*
X162065187Y-104040283D01*
X162050856Y-104078470D01*
X162054528Y-104097972D01*
X162078593Y-104104578D01*
X162091886Y-104104914D01*
X162140790Y-104117008D01*
X162175001Y-104148529D01*
X162191524Y-104192341D01*
X162187366Y-104241305D01*
X162165773Y-104281106D01*
X162153456Y-104294550D01*
X162138513Y-104304079D01*
X162115925Y-104310515D01*
X162080672Y-104314683D01*
X162027734Y-104317403D01*
X161952093Y-104319498D01*
X161928143Y-104320040D01*
X161846210Y-104322019D01*
X161788545Y-104324269D01*
X161750392Y-104327643D01*
X161726996Y-104332994D01*
X161713602Y-104341176D01*
X161705455Y-104353041D01*
X161701856Y-104360638D01*
X161689548Y-104392898D01*
X161685486Y-104411889D01*
X161699052Y-104418164D01*
X161740066Y-104421994D01*
X161809001Y-104423400D01*
X161906331Y-104422402D01*
X161921343Y-104422092D01*
X162010141Y-104419899D01*
X162074981Y-104417307D01*
X162120933Y-104413618D01*
X162153065Y-104408136D01*
X162176447Y-104400165D01*
X162196148Y-104389007D01*
X162204590Y-104383170D01*
X162241943Y-104349704D01*
X162270997Y-104312273D01*
X162273533Y-104307691D01*
X162293557Y-104240574D01*
X162290245Y-104170074D01*
X162290245Y-104170074D01*
G37*
X162290245Y-104170074D02*
X162265916Y-104104142D01*
X162222883Y-104050727D01*
X162192591Y-104029836D01*
X162137006Y-104007061D01*
X162096814Y-104007534D01*
X162069783Y-104031438D01*
X162065187Y-104040283D01*
X162050856Y-104078470D01*
X162054528Y-104097972D01*
X162078593Y-104104578D01*
X162091886Y-104104914D01*
X162140790Y-104117008D01*
X162175001Y-104148529D01*
X162191524Y-104192341D01*
X162187366Y-104241305D01*
X162165773Y-104281106D01*
X162153456Y-104294550D01*
X162138513Y-104304079D01*
X162115925Y-104310515D01*
X162080672Y-104314683D01*
X162027734Y-104317403D01*
X161952093Y-104319498D01*
X161928143Y-104320040D01*
X161846210Y-104322019D01*
X161788545Y-104324269D01*
X161750392Y-104327643D01*
X161726996Y-104332994D01*
X161713602Y-104341176D01*
X161705455Y-104353041D01*
X161701856Y-104360638D01*
X161689548Y-104392898D01*
X161685486Y-104411889D01*
X161699052Y-104418164D01*
X161740066Y-104421994D01*
X161809001Y-104423400D01*
X161906331Y-104422402D01*
X161921343Y-104422092D01*
X162010141Y-104419899D01*
X162074981Y-104417307D01*
X162120933Y-104413618D01*
X162153065Y-104408136D01*
X162176447Y-104400165D01*
X162196148Y-104389007D01*
X162204590Y-104383170D01*
X162241943Y-104349704D01*
X162270997Y-104312273D01*
X162273533Y-104307691D01*
X162293557Y-104240574D01*
X162290245Y-104170074D01*
G36*
X162289032Y-104660256D02*
G01*
X162267913Y-104603384D01*
X162267507Y-104602733D01*
X162241620Y-104567560D01*
X162211367Y-104541593D01*
X162171942Y-104523330D01*
X162118538Y-104511268D01*
X162046349Y-104503904D01*
X161950568Y-104499736D01*
X161936922Y-104499371D01*
X161731158Y-104494124D01*
X161708322Y-104538284D01*
X161692890Y-104570237D01*
X161685577Y-104589530D01*
X161685486Y-104590422D01*
X161698978Y-104593761D01*
X161735374Y-104596413D01*
X161788548Y-104598044D01*
X161831607Y-104598400D01*
X161901359Y-104598408D01*
X161945163Y-104601597D01*
X161966056Y-104612712D01*
X161967075Y-104636499D01*
X161951259Y-104677704D01*
X161922185Y-104739914D01*
X161898037Y-104785659D01*
X161877087Y-104809187D01*
X161854253Y-104816104D01*
X161853123Y-104816114D01*
X161813788Y-104804701D01*
X161792538Y-104770908D01*
X161789461Y-104719191D01*
X161789994Y-104681939D01*
X161779265Y-104662297D01*
X161753495Y-104650048D01*
X161720663Y-104642998D01*
X161702034Y-104653158D01*
X161699368Y-104656983D01*
X161688660Y-104692999D01*
X161687144Y-104743434D01*
X161694241Y-104795374D01*
X161707212Y-104832178D01*
X161750415Y-104883062D01*
X161810554Y-104911986D01*
X161857538Y-104917714D01*
X161899918Y-104913343D01*
X161934512Y-104897525D01*
X161965237Y-104866203D01*
X161996010Y-104815322D01*
X162030748Y-104740824D01*
X162032712Y-104736286D01*
X162063713Y-104669179D01*
X162089138Y-104627768D01*
X162111986Y-104610019D01*
X162135255Y-104613893D01*
X162161944Y-104637357D01*
X162168086Y-104644373D01*
X162191900Y-104691370D01*
X162190897Y-104740067D01*
X162167549Y-104782478D01*
X162124325Y-104810616D01*
X162115840Y-104813231D01*
X162074692Y-104838692D01*
X162054872Y-104870999D01*
X162035230Y-104917714D01*
X162086050Y-104917714D01*
X162159918Y-104903504D01*
X162227673Y-104861325D01*
X162250339Y-104839376D01*
X162279431Y-104789483D01*
X162292600Y-104726033D01*
X162289032Y-104660256D01*
X162289032Y-104660256D01*
G37*
X162289032Y-104660256D02*
X162267913Y-104603384D01*
X162267507Y-104602733D01*
X162241620Y-104567560D01*
X162211367Y-104541593D01*
X162171942Y-104523330D01*
X162118538Y-104511268D01*
X162046349Y-104503904D01*
X161950568Y-104499736D01*
X161936922Y-104499371D01*
X161731158Y-104494124D01*
X161708322Y-104538284D01*
X161692890Y-104570237D01*
X161685577Y-104589530D01*
X161685486Y-104590422D01*
X161698978Y-104593761D01*
X161735374Y-104596413D01*
X161788548Y-104598044D01*
X161831607Y-104598400D01*
X161901359Y-104598408D01*
X161945163Y-104601597D01*
X161966056Y-104612712D01*
X161967075Y-104636499D01*
X161951259Y-104677704D01*
X161922185Y-104739914D01*
X161898037Y-104785659D01*
X161877087Y-104809187D01*
X161854253Y-104816104D01*
X161853123Y-104816114D01*
X161813788Y-104804701D01*
X161792538Y-104770908D01*
X161789461Y-104719191D01*
X161789994Y-104681939D01*
X161779265Y-104662297D01*
X161753495Y-104650048D01*
X161720663Y-104642998D01*
X161702034Y-104653158D01*
X161699368Y-104656983D01*
X161688660Y-104692999D01*
X161687144Y-104743434D01*
X161694241Y-104795374D01*
X161707212Y-104832178D01*
X161750415Y-104883062D01*
X161810554Y-104911986D01*
X161857538Y-104917714D01*
X161899918Y-104913343D01*
X161934512Y-104897525D01*
X161965237Y-104866203D01*
X161996010Y-104815322D01*
X162030748Y-104740824D01*
X162032712Y-104736286D01*
X162063713Y-104669179D01*
X162089138Y-104627768D01*
X162111986Y-104610019D01*
X162135255Y-104613893D01*
X162161944Y-104637357D01*
X162168086Y-104644373D01*
X162191900Y-104691370D01*
X162190897Y-104740067D01*
X162167549Y-104782478D01*
X162124325Y-104810616D01*
X162115840Y-104813231D01*
X162074692Y-104838692D01*
X162054872Y-104870999D01*
X162035230Y-104917714D01*
X162086050Y-104917714D01*
X162159918Y-104903504D01*
X162227673Y-104861325D01*
X162250339Y-104839376D01*
X162279431Y-104789483D01*
X162292600Y-104726033D01*
X162289032Y-104660256D01*
G36*
X162388711Y-105324114D02*
G01*
X162329387Y-105319861D01*
X162294428Y-105314975D01*
X162279180Y-105308205D01*
X162278985Y-105298298D01*
X162280805Y-105295086D01*
X162293985Y-105252356D01*
X162293215Y-105196773D01*
X162279667Y-105140263D01*
X162262139Y-105104918D01*
X162234139Y-105068679D01*
X162202451Y-105042187D01*
X162162187Y-105024001D01*
X162108457Y-105012678D01*
X162036374Y-105006778D01*
X161941049Y-105004857D01*
X161922763Y-105004823D01*
X161717354Y-105004800D01*
X161701420Y-105050509D01*
X161690580Y-105082973D01*
X161685532Y-105100785D01*
X161685486Y-105101309D01*
X161699172Y-105103063D01*
X161736924Y-105104556D01*
X161793776Y-105105674D01*
X161864766Y-105106303D01*
X161907927Y-105106400D01*
X161993027Y-105106602D01*
X162054019Y-105107642D01*
X162095823Y-105110169D01*
X162123358Y-105114836D01*
X162141544Y-105122293D01*
X162155302Y-105133189D01*
X162161927Y-105139993D01*
X162188625Y-105186728D01*
X162190625Y-105237728D01*
X162168045Y-105283999D01*
X162159893Y-105292556D01*
X162144564Y-105305107D01*
X162126382Y-105313812D01*
X162100091Y-105319369D01*
X162060438Y-105322474D01*
X162002168Y-105323824D01*
X161921827Y-105324114D01*
X161717354Y-105324114D01*
X161701420Y-105369823D01*
X161690580Y-105402287D01*
X161685532Y-105420099D01*
X161685486Y-105420623D01*
X161699377Y-105421963D01*
X161738561Y-105423172D01*
X161799300Y-105424199D01*
X161877859Y-105424998D01*
X161970502Y-105425519D01*
X162073491Y-105425714D01*
X162470658Y-105425714D01*
X162490556Y-105378543D01*
X162510453Y-105331371D01*
X162388711Y-105324114D01*
X162388711Y-105324114D01*
G37*
X162388711Y-105324114D02*
X162329387Y-105319861D01*
X162294428Y-105314975D01*
X162279180Y-105308205D01*
X162278985Y-105298298D01*
X162280805Y-105295086D01*
X162293985Y-105252356D01*
X162293215Y-105196773D01*
X162279667Y-105140263D01*
X162262139Y-105104918D01*
X162234139Y-105068679D01*
X162202451Y-105042187D01*
X162162187Y-105024001D01*
X162108457Y-105012678D01*
X162036374Y-105006778D01*
X161941049Y-105004857D01*
X161922763Y-105004823D01*
X161717354Y-105004800D01*
X161701420Y-105050509D01*
X161690580Y-105082973D01*
X161685532Y-105100785D01*
X161685486Y-105101309D01*
X161699172Y-105103063D01*
X161736924Y-105104556D01*
X161793776Y-105105674D01*
X161864766Y-105106303D01*
X161907927Y-105106400D01*
X161993027Y-105106602D01*
X162054019Y-105107642D01*
X162095823Y-105110169D01*
X162123358Y-105114836D01*
X162141544Y-105122293D01*
X162155302Y-105133189D01*
X162161927Y-105139993D01*
X162188625Y-105186728D01*
X162190625Y-105237728D01*
X162168045Y-105283999D01*
X162159893Y-105292556D01*
X162144564Y-105305107D01*
X162126382Y-105313812D01*
X162100091Y-105319369D01*
X162060438Y-105322474D01*
X162002168Y-105323824D01*
X161921827Y-105324114D01*
X161717354Y-105324114D01*
X161701420Y-105369823D01*
X161690580Y-105402287D01*
X161685532Y-105420099D01*
X161685486Y-105420623D01*
X161699377Y-105421963D01*
X161738561Y-105423172D01*
X161799300Y-105424199D01*
X161877859Y-105424998D01*
X161970502Y-105425519D01*
X162073491Y-105425714D01*
X162470658Y-105425714D01*
X162490556Y-105378543D01*
X162510453Y-105331371D01*
X162388711Y-105324114D01*
G36*
X162308761Y-106531697D02*
G01*
X162270265Y-106474473D01*
X162214665Y-106430251D01*
X162143914Y-106403833D01*
X162091838Y-106398490D01*
X162070107Y-106399097D01*
X162053469Y-106404178D01*
X162038563Y-106418145D01*
X162022027Y-106445411D01*
X162000502Y-106490388D01*
X161970626Y-106557489D01*
X161970476Y-106557829D01*
X161942187Y-106619593D01*
X161917067Y-106670241D01*
X161897821Y-106704596D01*
X161887152Y-106717482D01*
X161887066Y-106717486D01*
X161863834Y-106706128D01*
X161838226Y-106679569D01*
X161819779Y-106649077D01*
X161816114Y-106633630D01*
X161828788Y-106591485D01*
X161860529Y-106555192D01*
X161895428Y-106537483D01*
X161921155Y-106520448D01*
X161950454Y-106487078D01*
X161975765Y-106447851D01*
X161989529Y-106413244D01*
X161990286Y-106406007D01*
X161977840Y-106397861D01*
X161946028Y-106397370D01*
X161903134Y-106403357D01*
X161857442Y-106414643D01*
X161817239Y-106430050D01*
X161815678Y-106430829D01*
X161750938Y-106477196D01*
X161706903Y-106537289D01*
X161685289Y-106605535D01*
X161687815Y-106676362D01*
X161716196Y-106744196D01*
X161718192Y-106747212D01*
X161766552Y-106800573D01*
X161829648Y-106835660D01*
X161912613Y-106855078D01*
X161935922Y-106857684D01*
X162045945Y-106862299D01*
X162097252Y-106856767D01*
X162097252Y-106717486D01*
X162065247Y-106715676D01*
X162055907Y-106705778D01*
X162062895Y-106681102D01*
X162079413Y-106642205D01*
X162100119Y-106598725D01*
X162100667Y-106597644D01*
X162120051Y-106560791D01*
X162132987Y-106546000D01*
X162146549Y-106549647D01*
X162164368Y-106565005D01*
X162190155Y-106604077D01*
X162192050Y-106646154D01*
X162173283Y-106683897D01*
X162137085Y-106709966D01*
X162097252Y-106717486D01*
X162097252Y-106856767D01*
X162133973Y-106852806D01*
X162203788Y-106828450D01*
X162252698Y-106794544D01*
X162302122Y-106733347D01*
X162326641Y-106665937D01*
X162328203Y-106597120D01*
X162308761Y-106531697D01*
X162308761Y-106531697D01*
G37*
X162308761Y-106531697D02*
X162270265Y-106474473D01*
X162214665Y-106430251D01*
X162143914Y-106403833D01*
X162091838Y-106398490D01*
X162070107Y-106399097D01*
X162053469Y-106404178D01*
X162038563Y-106418145D01*
X162022027Y-106445411D01*
X162000502Y-106490388D01*
X161970626Y-106557489D01*
X161970476Y-106557829D01*
X161942187Y-106619593D01*
X161917067Y-106670241D01*
X161897821Y-106704596D01*
X161887152Y-106717482D01*
X161887066Y-106717486D01*
X161863834Y-106706128D01*
X161838226Y-106679569D01*
X161819779Y-106649077D01*
X161816114Y-106633630D01*
X161828788Y-106591485D01*
X161860529Y-106555192D01*
X161895428Y-106537483D01*
X161921155Y-106520448D01*
X161950454Y-106487078D01*
X161975765Y-106447851D01*
X161989529Y-106413244D01*
X161990286Y-106406007D01*
X161977840Y-106397861D01*
X161946028Y-106397370D01*
X161903134Y-106403357D01*
X161857442Y-106414643D01*
X161817239Y-106430050D01*
X161815678Y-106430829D01*
X161750938Y-106477196D01*
X161706903Y-106537289D01*
X161685289Y-106605535D01*
X161687815Y-106676362D01*
X161716196Y-106744196D01*
X161718192Y-106747212D01*
X161766552Y-106800573D01*
X161829648Y-106835660D01*
X161912613Y-106855078D01*
X161935922Y-106857684D01*
X162045945Y-106862299D01*
X162097252Y-106856767D01*
X162097252Y-106717486D01*
X162065247Y-106715676D01*
X162055907Y-106705778D01*
X162062895Y-106681102D01*
X162079413Y-106642205D01*
X162100119Y-106598725D01*
X162100667Y-106597644D01*
X162120051Y-106560791D01*
X162132987Y-106546000D01*
X162146549Y-106549647D01*
X162164368Y-106565005D01*
X162190155Y-106604077D01*
X162192050Y-106646154D01*
X162173283Y-106683897D01*
X162137085Y-106709966D01*
X162097252Y-106717486D01*
X162097252Y-106856767D01*
X162133973Y-106852806D01*
X162203788Y-106828450D01*
X162252698Y-106794544D01*
X162302122Y-106733347D01*
X162326641Y-106665937D01*
X162328203Y-106597120D01*
X162308761Y-106531697D01*
G36*
X162318038Y-107658885D02*
G01*
X162282267Y-107590855D01*
X162224699Y-107540649D01*
X162187688Y-107522815D01*
X162132118Y-107508937D01*
X162061904Y-107501833D01*
X161985273Y-107501160D01*
X161910448Y-107506573D01*
X161845658Y-107517730D01*
X161799127Y-107534286D01*
X161791113Y-107539374D01*
X161731293Y-107599645D01*
X161695465Y-107671231D01*
X161684980Y-107748908D01*
X161701190Y-107827452D01*
X161710908Y-107849311D01*
X161740857Y-107891878D01*
X161780567Y-107929237D01*
X161785603Y-107932768D01*
X161809876Y-107947119D01*
X161835822Y-107956606D01*
X161869978Y-107962210D01*
X161918881Y-107964914D01*
X161989065Y-107965701D01*
X162004800Y-107965714D01*
X162009808Y-107965678D01*
X162009808Y-107820571D01*
X161943570Y-107819727D01*
X161899614Y-107816404D01*
X161871221Y-107809417D01*
X161851675Y-107797584D01*
X161845143Y-107791543D01*
X161820320Y-107756814D01*
X161821452Y-107723097D01*
X161842984Y-107689005D01*
X161865971Y-107668671D01*
X161899522Y-107656629D01*
X161952431Y-107649866D01*
X161958601Y-107649402D01*
X162054487Y-107648248D01*
X162125701Y-107660312D01*
X162171806Y-107685430D01*
X162192365Y-107723440D01*
X162193486Y-107737008D01*
X162187848Y-107772636D01*
X162168314Y-107797006D01*
X162130958Y-107811907D01*
X162071850Y-107819125D01*
X162009808Y-107820571D01*
X162009808Y-107965678D01*
X162079587Y-107965174D01*
X162131841Y-107962904D01*
X162168051Y-107957932D01*
X162194701Y-107949287D01*
X162218278Y-107935995D01*
X162222662Y-107933057D01*
X162281751Y-107883687D01*
X162316053Y-107829891D01*
X162329669Y-107764398D01*
X162330335Y-107742158D01*
X162318038Y-107658885D01*
X162318038Y-107658885D01*
G37*
X162318038Y-107658885D02*
X162282267Y-107590855D01*
X162224699Y-107540649D01*
X162187688Y-107522815D01*
X162132118Y-107508937D01*
X162061904Y-107501833D01*
X161985273Y-107501160D01*
X161910448Y-107506573D01*
X161845658Y-107517730D01*
X161799127Y-107534286D01*
X161791113Y-107539374D01*
X161731293Y-107599645D01*
X161695465Y-107671231D01*
X161684980Y-107748908D01*
X161701190Y-107827452D01*
X161710908Y-107849311D01*
X161740857Y-107891878D01*
X161780567Y-107929237D01*
X161785603Y-107932768D01*
X161809876Y-107947119D01*
X161835822Y-107956606D01*
X161869978Y-107962210D01*
X161918881Y-107964914D01*
X161989065Y-107965701D01*
X162004800Y-107965714D01*
X162009808Y-107965678D01*
X162009808Y-107820571D01*
X161943570Y-107819727D01*
X161899614Y-107816404D01*
X161871221Y-107809417D01*
X161851675Y-107797584D01*
X161845143Y-107791543D01*
X161820320Y-107756814D01*
X161821452Y-107723097D01*
X161842984Y-107689005D01*
X161865971Y-107668671D01*
X161899522Y-107656629D01*
X161952431Y-107649866D01*
X161958601Y-107649402D01*
X162054487Y-107648248D01*
X162125701Y-107660312D01*
X162171806Y-107685430D01*
X162192365Y-107723440D01*
X162193486Y-107737008D01*
X162187848Y-107772636D01*
X162168314Y-107797006D01*
X162130958Y-107811907D01*
X162071850Y-107819125D01*
X162009808Y-107820571D01*
X162009808Y-107965678D01*
X162079587Y-107965174D01*
X162131841Y-107962904D01*
X162168051Y-107957932D01*
X162194701Y-107949287D01*
X162218278Y-107935995D01*
X162222662Y-107933057D01*
X162281751Y-107883687D01*
X162316053Y-107829891D01*
X162329669Y-107764398D01*
X162330335Y-107742158D01*
X162318038Y-107658885D01*
G36*
X162312220Y-105983907D02*
G01*
X162285277Y-105937328D01*
X162258534Y-105904943D01*
X162230516Y-105881258D01*
X162196252Y-105864941D01*
X162150773Y-105854661D01*
X162089108Y-105849086D01*
X162006289Y-105846884D01*
X161946754Y-105846629D01*
X161727609Y-105846629D01*
X161699956Y-105908314D01*
X161672303Y-105970000D01*
X161912330Y-105977257D01*
X162001972Y-105980256D01*
X162067038Y-105983402D01*
X162111974Y-105987299D01*
X162141230Y-105992553D01*
X162159252Y-105999769D01*
X162170489Y-106009550D01*
X162172921Y-106012688D01*
X162191917Y-106060239D01*
X162184400Y-106108303D01*
X162164457Y-106136914D01*
X162150325Y-106148553D01*
X162131780Y-106156609D01*
X162103666Y-106161729D01*
X162060827Y-106164559D01*
X161998105Y-106165744D01*
X161932739Y-106165943D01*
X161850732Y-106165982D01*
X161792684Y-106167386D01*
X161753535Y-106172086D01*
X161728220Y-106182013D01*
X161711677Y-106199097D01*
X161698844Y-106225268D01*
X161685509Y-106260225D01*
X161670993Y-106298404D01*
X161928611Y-106293859D01*
X162021481Y-106292029D01*
X162090111Y-106289888D01*
X162139289Y-106286819D01*
X162173802Y-106282206D01*
X162198438Y-106275432D01*
X162217984Y-106265881D01*
X162235230Y-106254366D01*
X162290320Y-106198810D01*
X162322178Y-106131020D01*
X162329809Y-106057287D01*
X162312220Y-105983907D01*
X162312220Y-105983907D01*
G37*
X162312220Y-105983907D02*
X162285277Y-105937328D01*
X162258534Y-105904943D01*
X162230516Y-105881258D01*
X162196252Y-105864941D01*
X162150773Y-105854661D01*
X162089108Y-105849086D01*
X162006289Y-105846884D01*
X161946754Y-105846629D01*
X161727609Y-105846629D01*
X161699956Y-105908314D01*
X161672303Y-105970000D01*
X161912330Y-105977257D01*
X162001972Y-105980256D01*
X162067038Y-105983402D01*
X162111974Y-105987299D01*
X162141230Y-105992553D01*
X162159252Y-105999769D01*
X162170489Y-106009550D01*
X162172921Y-106012688D01*
X162191917Y-106060239D01*
X162184400Y-106108303D01*
X162164457Y-106136914D01*
X162150325Y-106148553D01*
X162131780Y-106156609D01*
X162103666Y-106161729D01*
X162060827Y-106164559D01*
X161998105Y-106165744D01*
X161932739Y-106165943D01*
X161850732Y-106165982D01*
X161792684Y-106167386D01*
X161753535Y-106172086D01*
X161728220Y-106182013D01*
X161711677Y-106199097D01*
X161698844Y-106225268D01*
X161685509Y-106260225D01*
X161670993Y-106298404D01*
X161928611Y-106293859D01*
X162021481Y-106292029D01*
X162090111Y-106289888D01*
X162139289Y-106286819D01*
X162173802Y-106282206D01*
X162198438Y-106275432D01*
X162217984Y-106265881D01*
X162235230Y-106254366D01*
X162290320Y-106198810D01*
X162322178Y-106131020D01*
X162329809Y-106057287D01*
X162312220Y-105983907D01*
G36*
X162320082Y-107100256D02*
G01*
X162292432Y-107044799D01*
X162241520Y-106995852D01*
X162222662Y-106982371D01*
X162197985Y-106967686D01*
X162171184Y-106958158D01*
X162135413Y-106952707D01*
X162083831Y-106950253D01*
X162015733Y-106949714D01*
X161922412Y-106952148D01*
X161852343Y-106960606D01*
X161800069Y-106976826D01*
X161760131Y-107002546D01*
X161727071Y-107039503D01*
X161725114Y-107042218D01*
X161705092Y-107078640D01*
X161695185Y-107122498D01*
X161692743Y-107178276D01*
X161692743Y-107268952D01*
X161604717Y-107268990D01*
X161555692Y-107269834D01*
X161526935Y-107274976D01*
X161509689Y-107288413D01*
X161495192Y-107314142D01*
X161492231Y-107320321D01*
X161478352Y-107349236D01*
X161469586Y-107371624D01*
X161468829Y-107388271D01*
X161478977Y-107399964D01*
X161502927Y-107407490D01*
X161543574Y-107411634D01*
X161603814Y-107413185D01*
X161686545Y-107412929D01*
X161794661Y-107411651D01*
X161827000Y-107411252D01*
X161938476Y-107409815D01*
X162011397Y-107408528D01*
X162011397Y-107269029D01*
X161949501Y-107268245D01*
X161909003Y-107264760D01*
X161882292Y-107256876D01*
X161861756Y-107242895D01*
X161851740Y-107233403D01*
X161822433Y-107194596D01*
X161820048Y-107160237D01*
X161844250Y-107124784D01*
X161845143Y-107123886D01*
X161863847Y-107109461D01*
X161889268Y-107100687D01*
X161928416Y-107096261D01*
X161988303Y-107094882D01*
X162001570Y-107094857D01*
X162084099Y-107098188D01*
X162141309Y-107109031D01*
X162176234Y-107128660D01*
X162191906Y-107158350D01*
X162193486Y-107175509D01*
X162186074Y-107216234D01*
X162161670Y-107244168D01*
X162117020Y-107260983D01*
X162048870Y-107268350D01*
X162011397Y-107269029D01*
X162011397Y-107408528D01*
X162024755Y-107408292D01*
X162089667Y-107406323D01*
X162137042Y-107403550D01*
X162170710Y-107399612D01*
X162194502Y-107394151D01*
X162212247Y-107386808D01*
X162227776Y-107377223D01*
X162233619Y-107373113D01*
X162288815Y-107318595D01*
X162320110Y-107249664D01*
X162328835Y-107169928D01*
X162320082Y-107100256D01*
X162320082Y-107100256D01*
G37*
X162320082Y-107100256D02*
X162292432Y-107044799D01*
X162241520Y-106995852D01*
X162222662Y-106982371D01*
X162197985Y-106967686D01*
X162171184Y-106958158D01*
X162135413Y-106952707D01*
X162083831Y-106950253D01*
X162015733Y-106949714D01*
X161922412Y-106952148D01*
X161852343Y-106960606D01*
X161800069Y-106976826D01*
X161760131Y-107002546D01*
X161727071Y-107039503D01*
X161725114Y-107042218D01*
X161705092Y-107078640D01*
X161695185Y-107122498D01*
X161692743Y-107178276D01*
X161692743Y-107268952D01*
X161604717Y-107268990D01*
X161555692Y-107269834D01*
X161526935Y-107274976D01*
X161509689Y-107288413D01*
X161495192Y-107314142D01*
X161492231Y-107320321D01*
X161478352Y-107349236D01*
X161469586Y-107371624D01*
X161468829Y-107388271D01*
X161478977Y-107399964D01*
X161502927Y-107407490D01*
X161543574Y-107411634D01*
X161603814Y-107413185D01*
X161686545Y-107412929D01*
X161794661Y-107411651D01*
X161827000Y-107411252D01*
X161938476Y-107409815D01*
X162011397Y-107408528D01*
X162011397Y-107269029D01*
X161949501Y-107268245D01*
X161909003Y-107264760D01*
X161882292Y-107256876D01*
X161861756Y-107242895D01*
X161851740Y-107233403D01*
X161822433Y-107194596D01*
X161820048Y-107160237D01*
X161844250Y-107124784D01*
X161845143Y-107123886D01*
X161863847Y-107109461D01*
X161889268Y-107100687D01*
X161928416Y-107096261D01*
X161988303Y-107094882D01*
X162001570Y-107094857D01*
X162084099Y-107098188D01*
X162141309Y-107109031D01*
X162176234Y-107128660D01*
X162191906Y-107158350D01*
X162193486Y-107175509D01*
X162186074Y-107216234D01*
X162161670Y-107244168D01*
X162117020Y-107260983D01*
X162048870Y-107268350D01*
X162011397Y-107269029D01*
X162011397Y-107408528D01*
X162024755Y-107408292D01*
X162089667Y-107406323D01*
X162137042Y-107403550D01*
X162170710Y-107399612D01*
X162194502Y-107394151D01*
X162212247Y-107386808D01*
X162227776Y-107377223D01*
X162233619Y-107373113D01*
X162288815Y-107318595D01*
X162320110Y-107249664D01*
X162328835Y-107169928D01*
X162320082Y-107100256D01*
G36*
X127379663Y-107595258D02*
G01*
X127340181Y-107595659D01*
X127224492Y-107598451D01*
X127127603Y-107606742D01*
X127046211Y-107621424D01*
X126977015Y-107643385D01*
X126916712Y-107673514D01*
X126862000Y-107712702D01*
X126842459Y-107729724D01*
X126810042Y-107769555D01*
X126780812Y-107823605D01*
X126758283Y-107883515D01*
X126745971Y-107940931D01*
X126744692Y-107962148D01*
X126752709Y-108020961D01*
X126774191Y-108085205D01*
X126805291Y-108146013D01*
X126842158Y-108194522D01*
X126848146Y-108200374D01*
X126898871Y-108241513D01*
X126954417Y-108273627D01*
X127017988Y-108297557D01*
X127092786Y-108314145D01*
X127182014Y-108324233D01*
X127288874Y-108328661D01*
X127337820Y-108329037D01*
X127400054Y-108328737D01*
X127443820Y-108327484D01*
X127473223Y-108324746D01*
X127492371Y-108319993D01*
X127505369Y-108312693D01*
X127512337Y-108306459D01*
X127518918Y-108298886D01*
X127524080Y-108289116D01*
X127527995Y-108274532D01*
X127530835Y-108252518D01*
X127532772Y-108220456D01*
X127533976Y-108175728D01*
X127534620Y-108115718D01*
X127534875Y-108037809D01*
X127534914Y-107962148D01*
X127535162Y-107861233D01*
X127535109Y-107780619D01*
X127534149Y-107742014D01*
X127388159Y-107742014D01*
X127388159Y-108182281D01*
X127295026Y-108182196D01*
X127238985Y-108180588D01*
X127180291Y-108176448D01*
X127131320Y-108170656D01*
X127129830Y-108170418D01*
X127050684Y-108151282D01*
X126989294Y-108121479D01*
X126942597Y-108079070D01*
X126912927Y-108033153D01*
X126894645Y-107982218D01*
X126896063Y-107934392D01*
X126917280Y-107883125D01*
X126958781Y-107830091D01*
X127016290Y-107790792D01*
X127091042Y-107764523D01*
X127141000Y-107755227D01*
X127197708Y-107748699D01*
X127257811Y-107743974D01*
X127308931Y-107742009D01*
X127311959Y-107742000D01*
X127388159Y-107742014D01*
X127534149Y-107742014D01*
X127533552Y-107718043D01*
X127529290Y-107671247D01*
X127521122Y-107637970D01*
X127507848Y-107615951D01*
X127488266Y-107602931D01*
X127461175Y-107596649D01*
X127425374Y-107594845D01*
X127379663Y-107595258D01*
X127379663Y-107595258D01*
G37*
X127379663Y-107595258D02*
X127340181Y-107595659D01*
X127224492Y-107598451D01*
X127127603Y-107606742D01*
X127046211Y-107621424D01*
X126977015Y-107643385D01*
X126916712Y-107673514D01*
X126862000Y-107712702D01*
X126842459Y-107729724D01*
X126810042Y-107769555D01*
X126780812Y-107823605D01*
X126758283Y-107883515D01*
X126745971Y-107940931D01*
X126744692Y-107962148D01*
X126752709Y-108020961D01*
X126774191Y-108085205D01*
X126805291Y-108146013D01*
X126842158Y-108194522D01*
X126848146Y-108200374D01*
X126898871Y-108241513D01*
X126954417Y-108273627D01*
X127017988Y-108297557D01*
X127092786Y-108314145D01*
X127182014Y-108324233D01*
X127288874Y-108328661D01*
X127337820Y-108329037D01*
X127400054Y-108328737D01*
X127443820Y-108327484D01*
X127473223Y-108324746D01*
X127492371Y-108319993D01*
X127505369Y-108312693D01*
X127512337Y-108306459D01*
X127518918Y-108298886D01*
X127524080Y-108289116D01*
X127527995Y-108274532D01*
X127530835Y-108252518D01*
X127532772Y-108220456D01*
X127533976Y-108175728D01*
X127534620Y-108115718D01*
X127534875Y-108037809D01*
X127534914Y-107962148D01*
X127535162Y-107861233D01*
X127535109Y-107780619D01*
X127534149Y-107742014D01*
X127388159Y-107742014D01*
X127388159Y-108182281D01*
X127295026Y-108182196D01*
X127238985Y-108180588D01*
X127180291Y-108176448D01*
X127131320Y-108170656D01*
X127129830Y-108170418D01*
X127050684Y-108151282D01*
X126989294Y-108121479D01*
X126942597Y-108079070D01*
X126912927Y-108033153D01*
X126894645Y-107982218D01*
X126896063Y-107934392D01*
X126917280Y-107883125D01*
X126958781Y-107830091D01*
X127016290Y-107790792D01*
X127091042Y-107764523D01*
X127141000Y-107755227D01*
X127197708Y-107748699D01*
X127257811Y-107743974D01*
X127308931Y-107742009D01*
X127311959Y-107742000D01*
X127388159Y-107742014D01*
X127534149Y-107742014D01*
X127533552Y-107718043D01*
X127529290Y-107671247D01*
X127521122Y-107637970D01*
X127507848Y-107615951D01*
X127488266Y-107602931D01*
X127461175Y-107596649D01*
X127425374Y-107594845D01*
X127379663Y-107595258D01*
G36*
X125971086Y-107595338D02*
G01*
X125901678Y-107595710D01*
X125849289Y-107596577D01*
X125811139Y-107598138D01*
X125784451Y-107600595D01*
X125766445Y-107604149D01*
X125754341Y-107609002D01*
X125745361Y-107615353D01*
X125742110Y-107618276D01*
X125722335Y-107649334D01*
X125718774Y-107685020D01*
X125731783Y-107716702D01*
X125737798Y-107723105D01*
X125747527Y-107729313D01*
X125763193Y-107734102D01*
X125787700Y-107737706D01*
X125823953Y-107740356D01*
X125874857Y-107742287D01*
X125943318Y-107743731D01*
X126005909Y-107744610D01*
X126253626Y-107747659D01*
X126257011Y-107812570D01*
X126260397Y-107877481D01*
X126092250Y-107877481D01*
X126019251Y-107878111D01*
X125965809Y-107880745D01*
X125928920Y-107886501D01*
X125905580Y-107896496D01*
X125892786Y-107911848D01*
X125887534Y-107933674D01*
X125886737Y-107953930D01*
X125889215Y-107978784D01*
X125898569Y-107997098D01*
X125917675Y-108009829D01*
X125949410Y-108017933D01*
X125996651Y-108022368D01*
X126062275Y-108024091D01*
X126098093Y-108024237D01*
X126259270Y-108024237D01*
X126259270Y-108182281D01*
X126010914Y-108182281D01*
X125929505Y-108182394D01*
X125867634Y-108182904D01*
X125822260Y-108184062D01*
X125790346Y-108186122D01*
X125768851Y-108189338D01*
X125754735Y-108193964D01*
X125744960Y-108200251D01*
X125739981Y-108204859D01*
X125722902Y-108231752D01*
X125717403Y-108255659D01*
X125725255Y-108284859D01*
X125739981Y-108306459D01*
X125747838Y-108313258D01*
X125757980Y-108318538D01*
X125773136Y-108322490D01*
X125796033Y-108325305D01*
X125829401Y-108327174D01*
X125875967Y-108328290D01*
X125938459Y-108328843D01*
X126019606Y-108329025D01*
X126061714Y-108329037D01*
X126151890Y-108328957D01*
X126222216Y-108328590D01*
X126275421Y-108327744D01*
X126314232Y-108326228D01*
X126341379Y-108323851D01*
X126359590Y-108320421D01*
X126371592Y-108315746D01*
X126380114Y-108309636D01*
X126383448Y-108306459D01*
X126390047Y-108298862D01*
X126395219Y-108289062D01*
X126399138Y-108274431D01*
X126401976Y-108252344D01*
X126403907Y-108220174D01*
X126405104Y-108175295D01*
X126405740Y-108115081D01*
X126405989Y-108036905D01*
X126406026Y-107964115D01*
X126405992Y-107870899D01*
X126405757Y-107797623D01*
X126405122Y-107741650D01*
X126403886Y-107700343D01*
X126401848Y-107671064D01*
X126398809Y-107651176D01*
X126394569Y-107638042D01*
X126388927Y-107629024D01*
X126381683Y-107621485D01*
X126379898Y-107619804D01*
X126371237Y-107612364D01*
X126361174Y-107606601D01*
X126346917Y-107602304D01*
X126325675Y-107599256D01*
X126294656Y-107597243D01*
X126251069Y-107596052D01*
X126192123Y-107595467D01*
X126115026Y-107595275D01*
X126060293Y-107595259D01*
X125971086Y-107595338D01*
X125971086Y-107595338D01*
G37*
X125971086Y-107595338D02*
X125901678Y-107595710D01*
X125849289Y-107596577D01*
X125811139Y-107598138D01*
X125784451Y-107600595D01*
X125766445Y-107604149D01*
X125754341Y-107609002D01*
X125745361Y-107615353D01*
X125742110Y-107618276D01*
X125722335Y-107649334D01*
X125718774Y-107685020D01*
X125731783Y-107716702D01*
X125737798Y-107723105D01*
X125747527Y-107729313D01*
X125763193Y-107734102D01*
X125787700Y-107737706D01*
X125823953Y-107740356D01*
X125874857Y-107742287D01*
X125943318Y-107743731D01*
X126005909Y-107744610D01*
X126253626Y-107747659D01*
X126257011Y-107812570D01*
X126260397Y-107877481D01*
X126092250Y-107877481D01*
X126019251Y-107878111D01*
X125965809Y-107880745D01*
X125928920Y-107886501D01*
X125905580Y-107896496D01*
X125892786Y-107911848D01*
X125887534Y-107933674D01*
X125886737Y-107953930D01*
X125889215Y-107978784D01*
X125898569Y-107997098D01*
X125917675Y-108009829D01*
X125949410Y-108017933D01*
X125996651Y-108022368D01*
X126062275Y-108024091D01*
X126098093Y-108024237D01*
X126259270Y-108024237D01*
X126259270Y-108182281D01*
X126010914Y-108182281D01*
X125929505Y-108182394D01*
X125867634Y-108182904D01*
X125822260Y-108184062D01*
X125790346Y-108186122D01*
X125768851Y-108189338D01*
X125754735Y-108193964D01*
X125744960Y-108200251D01*
X125739981Y-108204859D01*
X125722902Y-108231752D01*
X125717403Y-108255659D01*
X125725255Y-108284859D01*
X125739981Y-108306459D01*
X125747838Y-108313258D01*
X125757980Y-108318538D01*
X125773136Y-108322490D01*
X125796033Y-108325305D01*
X125829401Y-108327174D01*
X125875967Y-108328290D01*
X125938459Y-108328843D01*
X126019606Y-108329025D01*
X126061714Y-108329037D01*
X126151890Y-108328957D01*
X126222216Y-108328590D01*
X126275421Y-108327744D01*
X126314232Y-108326228D01*
X126341379Y-108323851D01*
X126359590Y-108320421D01*
X126371592Y-108315746D01*
X126380114Y-108309636D01*
X126383448Y-108306459D01*
X126390047Y-108298862D01*
X126395219Y-108289062D01*
X126399138Y-108274431D01*
X126401976Y-108252344D01*
X126403907Y-108220174D01*
X126405104Y-108175295D01*
X126405740Y-108115081D01*
X126405989Y-108036905D01*
X126406026Y-107964115D01*
X126405992Y-107870899D01*
X126405757Y-107797623D01*
X126405122Y-107741650D01*
X126403886Y-107700343D01*
X126401848Y-107671064D01*
X126398809Y-107651176D01*
X126394569Y-107638042D01*
X126388927Y-107629024D01*
X126381683Y-107621485D01*
X126379898Y-107619804D01*
X126371237Y-107612364D01*
X126361174Y-107606601D01*
X126346917Y-107602304D01*
X126325675Y-107599256D01*
X126294656Y-107597243D01*
X126251069Y-107596052D01*
X126192123Y-107595467D01*
X126115026Y-107595275D01*
X126060293Y-107595259D01*
X125971086Y-107595338D01*
G36*
X124949995Y-107596543D02*
G01*
X124875180Y-107601773D01*
X124805598Y-107609942D01*
X124745294Y-107620742D01*
X124698312Y-107633865D01*
X124668698Y-107649005D01*
X124664152Y-107653461D01*
X124648346Y-107688042D01*
X124653139Y-107723543D01*
X124677656Y-107753917D01*
X124678826Y-107754788D01*
X124693246Y-107764146D01*
X124708300Y-107769068D01*
X124729297Y-107769665D01*
X124761549Y-107766053D01*
X124810365Y-107758346D01*
X124814292Y-107757697D01*
X124887031Y-107748761D01*
X124965509Y-107744353D01*
X125044219Y-107744311D01*
X125117653Y-107748471D01*
X125180303Y-107756671D01*
X125226662Y-107768749D01*
X125229708Y-107769963D01*
X125263340Y-107788807D01*
X125275156Y-107807877D01*
X125265906Y-107826631D01*
X125236339Y-107844529D01*
X125187203Y-107861029D01*
X125119249Y-107875588D01*
X125073937Y-107882598D01*
X124979748Y-107896081D01*
X124904836Y-107908406D01*
X124846009Y-107920641D01*
X124800077Y-107933853D01*
X124763847Y-107949109D01*
X124734130Y-107967477D01*
X124707734Y-107990023D01*
X124686522Y-108012163D01*
X124661357Y-108043011D01*
X124648973Y-108069537D01*
X124645100Y-108102218D01*
X124644959Y-108114187D01*
X124647868Y-108153904D01*
X124659494Y-108183451D01*
X124679615Y-108209678D01*
X124720508Y-108249768D01*
X124766109Y-108280341D01*
X124819805Y-108302395D01*
X124884984Y-108316927D01*
X124965036Y-108324933D01*
X125063349Y-108327410D01*
X125079581Y-108327369D01*
X125145141Y-108326010D01*
X125210158Y-108322922D01*
X125267544Y-108318548D01*
X125310214Y-108313332D01*
X125313664Y-108312733D01*
X125356088Y-108302683D01*
X125392072Y-108289988D01*
X125412442Y-108278382D01*
X125431399Y-108247764D01*
X125432719Y-108212110D01*
X125416377Y-108180336D01*
X125412721Y-108176743D01*
X125397607Y-108166068D01*
X125378707Y-108161468D01*
X125349454Y-108162251D01*
X125313943Y-108166319D01*
X125274262Y-108169954D01*
X125218637Y-108173020D01*
X125153698Y-108175245D01*
X125086077Y-108176356D01*
X125068292Y-108176429D01*
X125000420Y-108176156D01*
X124950746Y-108174838D01*
X124914902Y-108172019D01*
X124888516Y-108167242D01*
X124867218Y-108160049D01*
X124854418Y-108154059D01*
X124826292Y-108137425D01*
X124808360Y-108122360D01*
X124805739Y-108118089D01*
X124811268Y-108100455D01*
X124837552Y-108083384D01*
X124882770Y-108067650D01*
X124945100Y-108054030D01*
X124963463Y-108050996D01*
X125059382Y-108035930D01*
X125135933Y-108023338D01*
X125196072Y-108012303D01*
X125242752Y-108001912D01*
X125278929Y-107991248D01*
X125307557Y-107979397D01*
X125331590Y-107965443D01*
X125353984Y-107948473D01*
X125377694Y-107927570D01*
X125385672Y-107920241D01*
X125413645Y-107892891D01*
X125428452Y-107871221D01*
X125434244Y-107846424D01*
X125435181Y-107815175D01*
X125424867Y-107753897D01*
X125394044Y-107701832D01*
X125342887Y-107659150D01*
X125271575Y-107626017D01*
X125220692Y-107611156D01*
X125165392Y-107601558D01*
X125099145Y-107596128D01*
X125025998Y-107594559D01*
X124949995Y-107596543D01*
X124949995Y-107596543D01*
G37*
X124949995Y-107596543D02*
X124875180Y-107601773D01*
X124805598Y-107609942D01*
X124745294Y-107620742D01*
X124698312Y-107633865D01*
X124668698Y-107649005D01*
X124664152Y-107653461D01*
X124648346Y-107688042D01*
X124653139Y-107723543D01*
X124677656Y-107753917D01*
X124678826Y-107754788D01*
X124693246Y-107764146D01*
X124708300Y-107769068D01*
X124729297Y-107769665D01*
X124761549Y-107766053D01*
X124810365Y-107758346D01*
X124814292Y-107757697D01*
X124887031Y-107748761D01*
X124965509Y-107744353D01*
X125044219Y-107744311D01*
X125117653Y-107748471D01*
X125180303Y-107756671D01*
X125226662Y-107768749D01*
X125229708Y-107769963D01*
X125263340Y-107788807D01*
X125275156Y-107807877D01*
X125265906Y-107826631D01*
X125236339Y-107844529D01*
X125187203Y-107861029D01*
X125119249Y-107875588D01*
X125073937Y-107882598D01*
X124979748Y-107896081D01*
X124904836Y-107908406D01*
X124846009Y-107920641D01*
X124800077Y-107933853D01*
X124763847Y-107949109D01*
X124734130Y-107967477D01*
X124707734Y-107990023D01*
X124686522Y-108012163D01*
X124661357Y-108043011D01*
X124648973Y-108069537D01*
X124645100Y-108102218D01*
X124644959Y-108114187D01*
X124647868Y-108153904D01*
X124659494Y-108183451D01*
X124679615Y-108209678D01*
X124720508Y-108249768D01*
X124766109Y-108280341D01*
X124819805Y-108302395D01*
X124884984Y-108316927D01*
X124965036Y-108324933D01*
X125063349Y-108327410D01*
X125079581Y-108327369D01*
X125145141Y-108326010D01*
X125210158Y-108322922D01*
X125267544Y-108318548D01*
X125310214Y-108313332D01*
X125313664Y-108312733D01*
X125356088Y-108302683D01*
X125392072Y-108289988D01*
X125412442Y-108278382D01*
X125431399Y-108247764D01*
X125432719Y-108212110D01*
X125416377Y-108180336D01*
X125412721Y-108176743D01*
X125397607Y-108166068D01*
X125378707Y-108161468D01*
X125349454Y-108162251D01*
X125313943Y-108166319D01*
X125274262Y-108169954D01*
X125218637Y-108173020D01*
X125153698Y-108175245D01*
X125086077Y-108176356D01*
X125068292Y-108176429D01*
X125000420Y-108176156D01*
X124950746Y-108174838D01*
X124914902Y-108172019D01*
X124888516Y-108167242D01*
X124867218Y-108160049D01*
X124854418Y-108154059D01*
X124826292Y-108137425D01*
X124808360Y-108122360D01*
X124805739Y-108118089D01*
X124811268Y-108100455D01*
X124837552Y-108083384D01*
X124882770Y-108067650D01*
X124945100Y-108054030D01*
X124963463Y-108050996D01*
X125059382Y-108035930D01*
X125135933Y-108023338D01*
X125196072Y-108012303D01*
X125242752Y-108001912D01*
X125278929Y-107991248D01*
X125307557Y-107979397D01*
X125331590Y-107965443D01*
X125353984Y-107948473D01*
X125377694Y-107927570D01*
X125385672Y-107920241D01*
X125413645Y-107892891D01*
X125428452Y-107871221D01*
X125434244Y-107846424D01*
X125435181Y-107815175D01*
X125424867Y-107753897D01*
X125394044Y-107701832D01*
X125342887Y-107659150D01*
X125271575Y-107626017D01*
X125220692Y-107611156D01*
X125165392Y-107601558D01*
X125099145Y-107596128D01*
X125025998Y-107594559D01*
X124949995Y-107596543D01*
G36*
X124182114Y-107617837D02*
G01*
X124175534Y-107625410D01*
X124170371Y-107635179D01*
X124166456Y-107649763D01*
X124163616Y-107671777D01*
X124161679Y-107703840D01*
X124160475Y-107748567D01*
X124159831Y-107808577D01*
X124159576Y-107886486D01*
X124159537Y-107962148D01*
X124159606Y-108055994D01*
X124159930Y-108129881D01*
X124160678Y-108186424D01*
X124162024Y-108228241D01*
X124164138Y-108257949D01*
X124167192Y-108278165D01*
X124171358Y-108291506D01*
X124176808Y-108300590D01*
X124182114Y-108306459D01*
X124215118Y-108326139D01*
X124250283Y-108324373D01*
X124281747Y-108302909D01*
X124288976Y-108294529D01*
X124294626Y-108284806D01*
X124298891Y-108271053D01*
X124301965Y-108250581D01*
X124304044Y-108220704D01*
X124305322Y-108178733D01*
X124305993Y-108121981D01*
X124306251Y-108047759D01*
X124306292Y-107963729D01*
X124306292Y-107650677D01*
X124278583Y-107622968D01*
X124244429Y-107599655D01*
X124211298Y-107598815D01*
X124182114Y-107617837D01*
X124182114Y-107617837D01*
G37*
X124182114Y-107617837D02*
X124175534Y-107625410D01*
X124170371Y-107635179D01*
X124166456Y-107649763D01*
X124163616Y-107671777D01*
X124161679Y-107703840D01*
X124160475Y-107748567D01*
X124159831Y-107808577D01*
X124159576Y-107886486D01*
X124159537Y-107962148D01*
X124159606Y-108055994D01*
X124159930Y-108129881D01*
X124160678Y-108186424D01*
X124162024Y-108228241D01*
X124164138Y-108257949D01*
X124167192Y-108278165D01*
X124171358Y-108291506D01*
X124176808Y-108300590D01*
X124182114Y-108306459D01*
X124215118Y-108326139D01*
X124250283Y-108324373D01*
X124281747Y-108302909D01*
X124288976Y-108294529D01*
X124294626Y-108284806D01*
X124298891Y-108271053D01*
X124301965Y-108250581D01*
X124304044Y-108220704D01*
X124305322Y-108178733D01*
X124305993Y-108121981D01*
X124306251Y-108047759D01*
X124306292Y-107963729D01*
X124306292Y-107650677D01*
X124278583Y-107622968D01*
X124244429Y-107599655D01*
X124211298Y-107598815D01*
X124182114Y-107617837D01*
G36*
X123208373Y-107600791D02*
G01*
X123139857Y-107612287D01*
X123087235Y-107630159D01*
X123053000Y-107653691D01*
X123043671Y-107667116D01*
X123034185Y-107698340D01*
X123040569Y-107726587D01*
X123060722Y-107753374D01*
X123092037Y-107765905D01*
X123137475Y-107764888D01*
X123172618Y-107758098D01*
X123250711Y-107745163D01*
X123330518Y-107743934D01*
X123419847Y-107754433D01*
X123444521Y-107758882D01*
X123527583Y-107782300D01*
X123592565Y-107817137D01*
X123638753Y-107862796D01*
X123665437Y-107918686D01*
X123670955Y-107947580D01*
X123667343Y-108006204D01*
X123644021Y-108058071D01*
X123603116Y-108102170D01*
X123546751Y-108137491D01*
X123477052Y-108163021D01*
X123396144Y-108177751D01*
X123306152Y-108180670D01*
X123209202Y-108170767D01*
X123203728Y-108169833D01*
X123165167Y-108162651D01*
X123143786Y-108155713D01*
X123134519Y-108145419D01*
X123132298Y-108128168D01*
X123132248Y-108119033D01*
X123132248Y-108080681D01*
X123200723Y-108080681D01*
X123261192Y-108076539D01*
X123302457Y-108063339D01*
X123326467Y-108039922D01*
X123335169Y-108005128D01*
X123335275Y-108000586D01*
X123330184Y-107970846D01*
X123312725Y-107949611D01*
X123280231Y-107935558D01*
X123230035Y-107927365D01*
X123181415Y-107924353D01*
X123110748Y-107922625D01*
X123059490Y-107925262D01*
X123024531Y-107934992D01*
X123002762Y-107954545D01*
X122991072Y-107986648D01*
X122986352Y-108034030D01*
X122985492Y-108096263D01*
X122986901Y-108165727D01*
X122991140Y-108212978D01*
X122998228Y-108238204D01*
X122999603Y-108240180D01*
X123038520Y-108271700D01*
X123095578Y-108296662D01*
X123167161Y-108314532D01*
X123249650Y-108324778D01*
X123339431Y-108326865D01*
X123432884Y-108320260D01*
X123487848Y-108312148D01*
X123574058Y-108287746D01*
X123654184Y-108247854D01*
X123721269Y-108196079D01*
X123731465Y-108185731D01*
X123764594Y-108142227D01*
X123794486Y-108088310D01*
X123817649Y-108031784D01*
X123830590Y-107980451D01*
X123832150Y-107960736D01*
X123825510Y-107919611D01*
X123807860Y-107868444D01*
X123782589Y-107814586D01*
X123753081Y-107765387D01*
X123727011Y-107732526D01*
X123666057Y-107683644D01*
X123587261Y-107644737D01*
X123493449Y-107616686D01*
X123387442Y-107600371D01*
X123290292Y-107596384D01*
X123208373Y-107600791D01*
X123208373Y-107600791D01*
G37*
X123208373Y-107600791D02*
X123139857Y-107612287D01*
X123087235Y-107630159D01*
X123053000Y-107653691D01*
X123043671Y-107667116D01*
X123034185Y-107698340D01*
X123040569Y-107726587D01*
X123060722Y-107753374D01*
X123092037Y-107765905D01*
X123137475Y-107764888D01*
X123172618Y-107758098D01*
X123250711Y-107745163D01*
X123330518Y-107743934D01*
X123419847Y-107754433D01*
X123444521Y-107758882D01*
X123527583Y-107782300D01*
X123592565Y-107817137D01*
X123638753Y-107862796D01*
X123665437Y-107918686D01*
X123670955Y-107947580D01*
X123667343Y-108006204D01*
X123644021Y-108058071D01*
X123603116Y-108102170D01*
X123546751Y-108137491D01*
X123477052Y-108163021D01*
X123396144Y-108177751D01*
X123306152Y-108180670D01*
X123209202Y-108170767D01*
X123203728Y-108169833D01*
X123165167Y-108162651D01*
X123143786Y-108155713D01*
X123134519Y-108145419D01*
X123132298Y-108128168D01*
X123132248Y-108119033D01*
X123132248Y-108080681D01*
X123200723Y-108080681D01*
X123261192Y-108076539D01*
X123302457Y-108063339D01*
X123326467Y-108039922D01*
X123335169Y-108005128D01*
X123335275Y-108000586D01*
X123330184Y-107970846D01*
X123312725Y-107949611D01*
X123280231Y-107935558D01*
X123230035Y-107927365D01*
X123181415Y-107924353D01*
X123110748Y-107922625D01*
X123059490Y-107925262D01*
X123024531Y-107934992D01*
X123002762Y-107954545D01*
X122991072Y-107986648D01*
X122986352Y-108034030D01*
X122985492Y-108096263D01*
X122986901Y-108165727D01*
X122991140Y-108212978D01*
X122998228Y-108238204D01*
X122999603Y-108240180D01*
X123038520Y-108271700D01*
X123095578Y-108296662D01*
X123167161Y-108314532D01*
X123249650Y-108324778D01*
X123339431Y-108326865D01*
X123432884Y-108320260D01*
X123487848Y-108312148D01*
X123574058Y-108287746D01*
X123654184Y-108247854D01*
X123721269Y-108196079D01*
X123731465Y-108185731D01*
X123764594Y-108142227D01*
X123794486Y-108088310D01*
X123817649Y-108031784D01*
X123830590Y-107980451D01*
X123832150Y-107960736D01*
X123825510Y-107919611D01*
X123807860Y-107868444D01*
X123782589Y-107814586D01*
X123753081Y-107765387D01*
X123727011Y-107732526D01*
X123666057Y-107683644D01*
X123587261Y-107644737D01*
X123493449Y-107616686D01*
X123387442Y-107600371D01*
X123290292Y-107596384D01*
X123208373Y-107600791D01*
G36*
X122558406Y-107599640D02*
G01*
X122534840Y-107613465D01*
X122504027Y-107636073D01*
X122464370Y-107668530D01*
X122414272Y-107711900D01*
X122352135Y-107767250D01*
X122276364Y-107835643D01*
X122189626Y-107914276D01*
X122009003Y-108078070D01*
X122003359Y-107858221D01*
X122001321Y-107782543D01*
X121999355Y-107726186D01*
X121997026Y-107685898D01*
X121993898Y-107658427D01*
X121989537Y-107640521D01*
X121983508Y-107628929D01*
X121975376Y-107620400D01*
X121971064Y-107616815D01*
X121936533Y-107597862D01*
X121903675Y-107600633D01*
X121877610Y-107616825D01*
X121850959Y-107638391D01*
X121847644Y-107953343D01*
X121846727Y-108045971D01*
X121846260Y-108118736D01*
X121846405Y-108174353D01*
X121847324Y-108215534D01*
X121849179Y-108244995D01*
X121852131Y-108265447D01*
X121856342Y-108279605D01*
X121861974Y-108290183D01*
X121868219Y-108298666D01*
X121881731Y-108314399D01*
X121895175Y-108324828D01*
X121910416Y-108328831D01*
X121929318Y-108325286D01*
X121953747Y-108313071D01*
X121985565Y-108291063D01*
X122026640Y-108258141D01*
X122078834Y-108213183D01*
X122144014Y-108155067D01*
X122217848Y-108088291D01*
X122483137Y-107847650D01*
X122488781Y-108066781D01*
X122490823Y-108142320D01*
X122492794Y-108198546D01*
X122495131Y-108238716D01*
X122498273Y-108266088D01*
X122502656Y-108283920D01*
X122508716Y-108295471D01*
X122516892Y-108303999D01*
X122521076Y-108307474D01*
X122558057Y-108326564D01*
X122593000Y-108323685D01*
X122623428Y-108299292D01*
X122630389Y-108289478D01*
X122635815Y-108278018D01*
X122639895Y-108262160D01*
X122642821Y-108239155D01*
X122644784Y-108206254D01*
X122645975Y-108160708D01*
X122646584Y-108099765D01*
X122646803Y-108020678D01*
X122646826Y-107962148D01*
X122646752Y-107870599D01*
X122646405Y-107798879D01*
X122645593Y-107744237D01*
X122644125Y-107703924D01*
X122641811Y-107675190D01*
X122638459Y-107655285D01*
X122633880Y-107641460D01*
X122627881Y-107630964D01*
X122623428Y-107625003D01*
X122612142Y-107610883D01*
X122601593Y-107600221D01*
X122590185Y-107594084D01*
X122576322Y-107593535D01*
X122558406Y-107599640D01*
X122558406Y-107599640D01*
G37*
X122558406Y-107599640D02*
X122534840Y-107613465D01*
X122504027Y-107636073D01*
X122464370Y-107668530D01*
X122414272Y-107711900D01*
X122352135Y-107767250D01*
X122276364Y-107835643D01*
X122189626Y-107914276D01*
X122009003Y-108078070D01*
X122003359Y-107858221D01*
X122001321Y-107782543D01*
X121999355Y-107726186D01*
X121997026Y-107685898D01*
X121993898Y-107658427D01*
X121989537Y-107640521D01*
X121983508Y-107628929D01*
X121975376Y-107620400D01*
X121971064Y-107616815D01*
X121936533Y-107597862D01*
X121903675Y-107600633D01*
X121877610Y-107616825D01*
X121850959Y-107638391D01*
X121847644Y-107953343D01*
X121846727Y-108045971D01*
X121846260Y-108118736D01*
X121846405Y-108174353D01*
X121847324Y-108215534D01*
X121849179Y-108244995D01*
X121852131Y-108265447D01*
X121856342Y-108279605D01*
X121861974Y-108290183D01*
X121868219Y-108298666D01*
X121881731Y-108314399D01*
X121895175Y-108324828D01*
X121910416Y-108328831D01*
X121929318Y-108325286D01*
X121953747Y-108313071D01*
X121985565Y-108291063D01*
X122026640Y-108258141D01*
X122078834Y-108213183D01*
X122144014Y-108155067D01*
X122217848Y-108088291D01*
X122483137Y-107847650D01*
X122488781Y-108066781D01*
X122490823Y-108142320D01*
X122492794Y-108198546D01*
X122495131Y-108238716D01*
X122498273Y-108266088D01*
X122502656Y-108283920D01*
X122508716Y-108295471D01*
X122516892Y-108303999D01*
X122521076Y-108307474D01*
X122558057Y-108326564D01*
X122593000Y-108323685D01*
X122623428Y-108299292D01*
X122630389Y-108289478D01*
X122635815Y-108278018D01*
X122639895Y-108262160D01*
X122642821Y-108239155D01*
X122644784Y-108206254D01*
X122645975Y-108160708D01*
X122646584Y-108099765D01*
X122646803Y-108020678D01*
X122646826Y-107962148D01*
X122646752Y-107870599D01*
X122646405Y-107798879D01*
X122645593Y-107744237D01*
X122644125Y-107703924D01*
X122641811Y-107675190D01*
X122638459Y-107655285D01*
X122633880Y-107641460D01*
X122627881Y-107630964D01*
X122623428Y-107625003D01*
X122612142Y-107610883D01*
X122601593Y-107600221D01*
X122590185Y-107594084D01*
X122576322Y-107593535D01*
X122558406Y-107599640D01*
G36*
X121027949Y-107595452D02*
G01*
X120951591Y-107596366D01*
X120893075Y-107598503D01*
X120850037Y-107602367D01*
X120820109Y-107608459D01*
X120800924Y-107617282D01*
X120790116Y-107629338D01*
X120785319Y-107645131D01*
X120784165Y-107665162D01*
X120784159Y-107667527D01*
X120785161Y-107690184D01*
X120789896Y-107707695D01*
X120800959Y-107720766D01*
X120820944Y-107730105D01*
X120852446Y-107736419D01*
X120898060Y-107740414D01*
X120960379Y-107742798D01*
X121041999Y-107744278D01*
X121067015Y-107744606D01*
X121309092Y-107747659D01*
X121312478Y-107812570D01*
X121315863Y-107877481D01*
X121147716Y-107877481D01*
X121082026Y-107877723D01*
X121035120Y-107878748D01*
X121003209Y-107881003D01*
X120982501Y-107884934D01*
X120969208Y-107890990D01*
X120959537Y-107899616D01*
X120959475Y-107899685D01*
X120941936Y-107933304D01*
X120942570Y-107969640D01*
X120960978Y-108000615D01*
X120964621Y-108003799D01*
X120977551Y-108012004D01*
X120995268Y-108017713D01*
X121021722Y-108021354D01*
X121060860Y-108023359D01*
X121116630Y-108024156D01*
X121152298Y-108024237D01*
X121314737Y-108024237D01*
X121314737Y-108182281D01*
X121068131Y-108182281D01*
X120986712Y-108182423D01*
X120924882Y-108183006D01*
X120879655Y-108184260D01*
X120848044Y-108186419D01*
X120827061Y-108189715D01*
X120813719Y-108194381D01*
X120805031Y-108200649D01*
X120802842Y-108202925D01*
X120786678Y-108234472D01*
X120785495Y-108270360D01*
X120798756Y-108301477D01*
X120809249Y-108311463D01*
X120820163Y-108316961D01*
X120837075Y-108321214D01*
X120862659Y-108324372D01*
X120899591Y-108326584D01*
X120950546Y-108327998D01*
X121018198Y-108328764D01*
X121105223Y-108329030D01*
X121124898Y-108329037D01*
X121213381Y-108328979D01*
X121282065Y-108328659D01*
X121333728Y-108327859D01*
X121371147Y-108326359D01*
X121397102Y-108323941D01*
X121414370Y-108320386D01*
X121425730Y-108315474D01*
X121433960Y-108308987D01*
X121438475Y-108304330D01*
X121445271Y-108296081D01*
X121450580Y-108285861D01*
X121454586Y-108270992D01*
X121457471Y-108248794D01*
X121459418Y-108216585D01*
X121460611Y-108171688D01*
X121461231Y-108111420D01*
X121461463Y-108033103D01*
X121461492Y-107967186D01*
X121461421Y-107874820D01*
X121461084Y-107802309D01*
X121460294Y-107746929D01*
X121458866Y-107705957D01*
X121456613Y-107676670D01*
X121453349Y-107656345D01*
X121448888Y-107642258D01*
X121443044Y-107631687D01*
X121438095Y-107625003D01*
X121414698Y-107595259D01*
X121124518Y-107595259D01*
X121027949Y-107595452D01*
X121027949Y-107595452D01*
G37*
X121027949Y-107595452D02*
X120951591Y-107596366D01*
X120893075Y-107598503D01*
X120850037Y-107602367D01*
X120820109Y-107608459D01*
X120800924Y-107617282D01*
X120790116Y-107629338D01*
X120785319Y-107645131D01*
X120784165Y-107665162D01*
X120784159Y-107667527D01*
X120785161Y-107690184D01*
X120789896Y-107707695D01*
X120800959Y-107720766D01*
X120820944Y-107730105D01*
X120852446Y-107736419D01*
X120898060Y-107740414D01*
X120960379Y-107742798D01*
X121041999Y-107744278D01*
X121067015Y-107744606D01*
X121309092Y-107747659D01*
X121312478Y-107812570D01*
X121315863Y-107877481D01*
X121147716Y-107877481D01*
X121082026Y-107877723D01*
X121035120Y-107878748D01*
X121003209Y-107881003D01*
X120982501Y-107884934D01*
X120969208Y-107890990D01*
X120959537Y-107899616D01*
X120959475Y-107899685D01*
X120941936Y-107933304D01*
X120942570Y-107969640D01*
X120960978Y-108000615D01*
X120964621Y-108003799D01*
X120977551Y-108012004D01*
X120995268Y-108017713D01*
X121021722Y-108021354D01*
X121060860Y-108023359D01*
X121116630Y-108024156D01*
X121152298Y-108024237D01*
X121314737Y-108024237D01*
X121314737Y-108182281D01*
X121068131Y-108182281D01*
X120986712Y-108182423D01*
X120924882Y-108183006D01*
X120879655Y-108184260D01*
X120848044Y-108186419D01*
X120827061Y-108189715D01*
X120813719Y-108194381D01*
X120805031Y-108200649D01*
X120802842Y-108202925D01*
X120786678Y-108234472D01*
X120785495Y-108270360D01*
X120798756Y-108301477D01*
X120809249Y-108311463D01*
X120820163Y-108316961D01*
X120837075Y-108321214D01*
X120862659Y-108324372D01*
X120899591Y-108326584D01*
X120950546Y-108327998D01*
X121018198Y-108328764D01*
X121105223Y-108329030D01*
X121124898Y-108329037D01*
X121213381Y-108328979D01*
X121282065Y-108328659D01*
X121333728Y-108327859D01*
X121371147Y-108326359D01*
X121397102Y-108323941D01*
X121414370Y-108320386D01*
X121425730Y-108315474D01*
X121433960Y-108308987D01*
X121438475Y-108304330D01*
X121445271Y-108296081D01*
X121450580Y-108285861D01*
X121454586Y-108270992D01*
X121457471Y-108248794D01*
X121459418Y-108216585D01*
X121460611Y-108171688D01*
X121461231Y-108111420D01*
X121461463Y-108033103D01*
X121461492Y-107967186D01*
X121461421Y-107874820D01*
X121461084Y-107802309D01*
X121460294Y-107746929D01*
X121458866Y-107705957D01*
X121456613Y-107676670D01*
X121453349Y-107656345D01*
X121448888Y-107642258D01*
X121443044Y-107631687D01*
X121438095Y-107625003D01*
X121414698Y-107595259D01*
X121124518Y-107595259D01*
X121027949Y-107595452D01*
G36*
X120239983Y-107595467D02*
G01*
X120111004Y-107599828D01*
X120001301Y-107613053D01*
X119909066Y-107635933D01*
X119832490Y-107669262D01*
X119769765Y-107713830D01*
X119719080Y-107770428D01*
X119678629Y-107839850D01*
X119677833Y-107841543D01*
X119653691Y-107903675D01*
X119645089Y-107958701D01*
X119652061Y-108014079D01*
X119674638Y-108077265D01*
X119678920Y-108086881D01*
X119708120Y-108143158D01*
X119740936Y-108186643D01*
X119783290Y-108223609D01*
X119841102Y-108260327D01*
X119844461Y-108262244D01*
X119894788Y-108286419D01*
X119951671Y-108304474D01*
X120018765Y-108317031D01*
X120099727Y-108324714D01*
X120198210Y-108328145D01*
X120233006Y-108328443D01*
X120398698Y-108329037D01*
X120422095Y-108299292D01*
X120429035Y-108289511D01*
X120434450Y-108278089D01*
X120438527Y-108262287D01*
X120441455Y-108239367D01*
X120443425Y-108206588D01*
X120444067Y-108182281D01*
X120287448Y-108182281D01*
X120193566Y-108182281D01*
X120138628Y-108180675D01*
X120082232Y-108176447D01*
X120035947Y-108170484D01*
X120033153Y-108169982D01*
X119950944Y-108147928D01*
X119887178Y-108114792D01*
X119839840Y-108069039D01*
X119806910Y-108009131D01*
X119801184Y-107993253D01*
X119795571Y-107968525D01*
X119798001Y-107944094D01*
X119809825Y-107911592D01*
X119816952Y-107895626D01*
X119840292Y-107853198D01*
X119868412Y-107823432D01*
X119899352Y-107802703D01*
X119961326Y-107775729D01*
X120040641Y-107756190D01*
X120133039Y-107744938D01*
X120199959Y-107742462D01*
X120287448Y-107742014D01*
X120287448Y-108182281D01*
X120444067Y-108182281D01*
X120444624Y-108161213D01*
X120445242Y-108100503D01*
X120445467Y-108021718D01*
X120445492Y-107960112D01*
X120445492Y-107650677D01*
X120417783Y-107622968D01*
X120405486Y-107611736D01*
X120392189Y-107604045D01*
X120373620Y-107599232D01*
X120345506Y-107596638D01*
X120303575Y-107595602D01*
X120243555Y-107595462D01*
X120239983Y-107595467D01*
X120239983Y-107595467D01*
G37*
X120239983Y-107595467D02*
X120111004Y-107599828D01*
X120001301Y-107613053D01*
X119909066Y-107635933D01*
X119832490Y-107669262D01*
X119769765Y-107713830D01*
X119719080Y-107770428D01*
X119678629Y-107839850D01*
X119677833Y-107841543D01*
X119653691Y-107903675D01*
X119645089Y-107958701D01*
X119652061Y-108014079D01*
X119674638Y-108077265D01*
X119678920Y-108086881D01*
X119708120Y-108143158D01*
X119740936Y-108186643D01*
X119783290Y-108223609D01*
X119841102Y-108260327D01*
X119844461Y-108262244D01*
X119894788Y-108286419D01*
X119951671Y-108304474D01*
X120018765Y-108317031D01*
X120099727Y-108324714D01*
X120198210Y-108328145D01*
X120233006Y-108328443D01*
X120398698Y-108329037D01*
X120422095Y-108299292D01*
X120429035Y-108289511D01*
X120434450Y-108278089D01*
X120438527Y-108262287D01*
X120441455Y-108239367D01*
X120443425Y-108206588D01*
X120444067Y-108182281D01*
X120287448Y-108182281D01*
X120193566Y-108182281D01*
X120138628Y-108180675D01*
X120082232Y-108176447D01*
X120035947Y-108170484D01*
X120033153Y-108169982D01*
X119950944Y-108147928D01*
X119887178Y-108114792D01*
X119839840Y-108069039D01*
X119806910Y-108009131D01*
X119801184Y-107993253D01*
X119795571Y-107968525D01*
X119798001Y-107944094D01*
X119809825Y-107911592D01*
X119816952Y-107895626D01*
X119840292Y-107853198D01*
X119868412Y-107823432D01*
X119899352Y-107802703D01*
X119961326Y-107775729D01*
X120040641Y-107756190D01*
X120133039Y-107744938D01*
X120199959Y-107742462D01*
X120287448Y-107742014D01*
X120287448Y-108182281D01*
X120444067Y-108182281D01*
X120444624Y-108161213D01*
X120445242Y-108100503D01*
X120445467Y-108021718D01*
X120445492Y-107960112D01*
X120445492Y-107650677D01*
X120417783Y-107622968D01*
X120405486Y-107611736D01*
X120392189Y-107604045D01*
X120373620Y-107599232D01*
X120345506Y-107596638D01*
X120303575Y-107595602D01*
X120243555Y-107595462D01*
X120239983Y-107595467D01*
G36*
X117513627Y-107597226D02*
G01*
X117494037Y-107604227D01*
X117493282Y-107604569D01*
X117466679Y-107624870D01*
X117452022Y-107645753D01*
X117449154Y-107655544D01*
X117449296Y-107668553D01*
X117453331Y-107687087D01*
X117462146Y-107713449D01*
X117476623Y-107749944D01*
X117497647Y-107798879D01*
X117526104Y-107862557D01*
X117562877Y-107943285D01*
X117583117Y-107987408D01*
X117619667Y-108066177D01*
X117653977Y-108138615D01*
X117684740Y-108202072D01*
X117710644Y-108253900D01*
X117730382Y-108291451D01*
X117742642Y-108312076D01*
X117745068Y-108314925D01*
X117776109Y-108327494D01*
X117811171Y-108325811D01*
X117839292Y-108310524D01*
X117840438Y-108309281D01*
X117851624Y-108292346D01*
X117870388Y-108259362D01*
X117894417Y-108214572D01*
X117921395Y-108162224D01*
X117931091Y-108142934D01*
X118004278Y-107996342D01*
X118084052Y-108155585D01*
X118112525Y-108210607D01*
X118138942Y-108258324D01*
X118161144Y-108295085D01*
X118176973Y-108317236D01*
X118182338Y-108321933D01*
X118224035Y-108328294D01*
X118258443Y-108314925D01*
X118268564Y-108300638D01*
X118286078Y-108268884D01*
X118309557Y-108222789D01*
X118337572Y-108165477D01*
X118368693Y-108100072D01*
X118401493Y-108029699D01*
X118434542Y-107957483D01*
X118466411Y-107886547D01*
X118495673Y-107820017D01*
X118520897Y-107761018D01*
X118540656Y-107712673D01*
X118553520Y-107678107D01*
X118558061Y-107660445D01*
X118558015Y-107659805D01*
X118546966Y-107637580D01*
X118524882Y-107614945D01*
X118523582Y-107613960D01*
X118496439Y-107598617D01*
X118471334Y-107598766D01*
X118461924Y-107601658D01*
X118450458Y-107607910D01*
X118438282Y-107620206D01*
X118423935Y-107641100D01*
X118405956Y-107673141D01*
X118382885Y-107718880D01*
X118353262Y-107780869D01*
X118326547Y-107838090D01*
X118295812Y-107904418D01*
X118268271Y-107964066D01*
X118245354Y-108013917D01*
X118228494Y-108050856D01*
X118219119Y-108071765D01*
X118217752Y-108075037D01*
X118211603Y-108069689D01*
X118197470Y-108047301D01*
X118177235Y-108011138D01*
X118152777Y-107964469D01*
X118143044Y-107945214D01*
X118110075Y-107880196D01*
X118084649Y-107832846D01*
X118064680Y-107800411D01*
X118048082Y-107780138D01*
X118032768Y-107769274D01*
X118016652Y-107765067D01*
X118006149Y-107764592D01*
X117987622Y-107766234D01*
X117971388Y-107773023D01*
X117955257Y-107787758D01*
X117937041Y-107813236D01*
X117914553Y-107852253D01*
X117885603Y-107907606D01*
X117869630Y-107939095D01*
X117843722Y-107989279D01*
X117821125Y-108030896D01*
X117803834Y-108060434D01*
X117793842Y-108074381D01*
X117792483Y-108074962D01*
X117786031Y-108063985D01*
X117771584Y-108035482D01*
X117750589Y-107992436D01*
X117724495Y-107937830D01*
X117694746Y-107874646D01*
X117680112Y-107843263D01*
X117642042Y-107762270D01*
X117611387Y-107699948D01*
X117586555Y-107654263D01*
X117565955Y-107623181D01*
X117547994Y-107604670D01*
X117531082Y-107596696D01*
X117513627Y-107597226D01*
X117513627Y-107597226D01*
G37*
X117513627Y-107597226D02*
X117494037Y-107604227D01*
X117493282Y-107604569D01*
X117466679Y-107624870D01*
X117452022Y-107645753D01*
X117449154Y-107655544D01*
X117449296Y-107668553D01*
X117453331Y-107687087D01*
X117462146Y-107713449D01*
X117476623Y-107749944D01*
X117497647Y-107798879D01*
X117526104Y-107862557D01*
X117562877Y-107943285D01*
X117583117Y-107987408D01*
X117619667Y-108066177D01*
X117653977Y-108138615D01*
X117684740Y-108202072D01*
X117710644Y-108253900D01*
X117730382Y-108291451D01*
X117742642Y-108312076D01*
X117745068Y-108314925D01*
X117776109Y-108327494D01*
X117811171Y-108325811D01*
X117839292Y-108310524D01*
X117840438Y-108309281D01*
X117851624Y-108292346D01*
X117870388Y-108259362D01*
X117894417Y-108214572D01*
X117921395Y-108162224D01*
X117931091Y-108142934D01*
X118004278Y-107996342D01*
X118084052Y-108155585D01*
X118112525Y-108210607D01*
X118138942Y-108258324D01*
X118161144Y-108295085D01*
X118176973Y-108317236D01*
X118182338Y-108321933D01*
X118224035Y-108328294D01*
X118258443Y-108314925D01*
X118268564Y-108300638D01*
X118286078Y-108268884D01*
X118309557Y-108222789D01*
X118337572Y-108165477D01*
X118368693Y-108100072D01*
X118401493Y-108029699D01*
X118434542Y-107957483D01*
X118466411Y-107886547D01*
X118495673Y-107820017D01*
X118520897Y-107761018D01*
X118540656Y-107712673D01*
X118553520Y-107678107D01*
X118558061Y-107660445D01*
X118558015Y-107659805D01*
X118546966Y-107637580D01*
X118524882Y-107614945D01*
X118523582Y-107613960D01*
X118496439Y-107598617D01*
X118471334Y-107598766D01*
X118461924Y-107601658D01*
X118450458Y-107607910D01*
X118438282Y-107620206D01*
X118423935Y-107641100D01*
X118405956Y-107673141D01*
X118382885Y-107718880D01*
X118353262Y-107780869D01*
X118326547Y-107838090D01*
X118295812Y-107904418D01*
X118268271Y-107964066D01*
X118245354Y-108013917D01*
X118228494Y-108050856D01*
X118219119Y-108071765D01*
X118217752Y-108075037D01*
X118211603Y-108069689D01*
X118197470Y-108047301D01*
X118177235Y-108011138D01*
X118152777Y-107964469D01*
X118143044Y-107945214D01*
X118110075Y-107880196D01*
X118084649Y-107832846D01*
X118064680Y-107800411D01*
X118048082Y-107780138D01*
X118032768Y-107769274D01*
X118016652Y-107765067D01*
X118006149Y-107764592D01*
X117987622Y-107766234D01*
X117971388Y-107773023D01*
X117955257Y-107787758D01*
X117937041Y-107813236D01*
X117914553Y-107852253D01*
X117885603Y-107907606D01*
X117869630Y-107939095D01*
X117843722Y-107989279D01*
X117821125Y-108030896D01*
X117803834Y-108060434D01*
X117793842Y-108074381D01*
X117792483Y-108074962D01*
X117786031Y-108063985D01*
X117771584Y-108035482D01*
X117750589Y-107992436D01*
X117724495Y-107937830D01*
X117694746Y-107874646D01*
X117680112Y-107843263D01*
X117642042Y-107762270D01*
X117611387Y-107699948D01*
X117586555Y-107654263D01*
X117565955Y-107623181D01*
X117547994Y-107604670D01*
X117531082Y-107596696D01*
X117513627Y-107597226D01*
G36*
X117069678Y-107602069D02*
G01*
X117045965Y-107616839D01*
X117019314Y-107638419D01*
X117019314Y-107959965D01*
X117019399Y-108054022D01*
X117019763Y-108128124D01*
X117020568Y-108184896D01*
X117021979Y-108226960D01*
X117024159Y-108256940D01*
X117027271Y-108277459D01*
X117031478Y-108291141D01*
X117036944Y-108300608D01*
X117040820Y-108305274D01*
X117072258Y-108325767D01*
X117108059Y-108324931D01*
X117139419Y-108307456D01*
X117166070Y-108285876D01*
X117166070Y-107638419D01*
X117139419Y-107616839D01*
X117113698Y-107601141D01*
X117092692Y-107595259D01*
X117069678Y-107602069D01*
X117069678Y-107602069D01*
G37*
X117069678Y-107602069D02*
X117045965Y-107616839D01*
X117019314Y-107638419D01*
X117019314Y-107959965D01*
X117019399Y-108054022D01*
X117019763Y-108128124D01*
X117020568Y-108184896D01*
X117021979Y-108226960D01*
X117024159Y-108256940D01*
X117027271Y-108277459D01*
X117031478Y-108291141D01*
X117036944Y-108300608D01*
X117040820Y-108305274D01*
X117072258Y-108325767D01*
X117108059Y-108324931D01*
X117139419Y-108307456D01*
X117166070Y-108285876D01*
X117166070Y-107638419D01*
X117139419Y-107616839D01*
X117113698Y-107601141D01*
X117092692Y-107595259D01*
X117069678Y-107602069D01*
G36*
X116295227Y-107595355D02*
G01*
X116216520Y-107595734D01*
X116155429Y-107596525D01*
X116109475Y-107597862D01*
X116076178Y-107599875D01*
X116053056Y-107602698D01*
X116037630Y-107606461D01*
X116027421Y-107611297D01*
X116022479Y-107615014D01*
X115996835Y-107647550D01*
X115993733Y-107681330D01*
X116009581Y-107712018D01*
X116019944Y-107724281D01*
X116031096Y-107732642D01*
X116047257Y-107737849D01*
X116072650Y-107740649D01*
X116111494Y-107741788D01*
X116168012Y-107742013D01*
X116179112Y-107742014D01*
X116325048Y-107742014D01*
X116325048Y-108012948D01*
X116325144Y-108098346D01*
X116325581Y-108164056D01*
X116326580Y-108212966D01*
X116328364Y-108247965D01*
X116331155Y-108271941D01*
X116335175Y-108287785D01*
X116340647Y-108298383D01*
X116347626Y-108306459D01*
X116380558Y-108326304D01*
X116414938Y-108324740D01*
X116446116Y-108302098D01*
X116448406Y-108299292D01*
X116455863Y-108288684D01*
X116461545Y-108276273D01*
X116465691Y-108259042D01*
X116468542Y-108233976D01*
X116470338Y-108198059D01*
X116471320Y-108148275D01*
X116471728Y-108081609D01*
X116471803Y-108005781D01*
X116471803Y-107742014D01*
X116611165Y-107742014D01*
X116670970Y-107741610D01*
X116712374Y-107740032D01*
X116739544Y-107736739D01*
X116756646Y-107731184D01*
X116767849Y-107722823D01*
X116769209Y-107721370D01*
X116785567Y-107688131D01*
X116784120Y-107650554D01*
X116765314Y-107617837D01*
X116758042Y-107611490D01*
X116748665Y-107606458D01*
X116734683Y-107602588D01*
X116713596Y-107599729D01*
X116682903Y-107597727D01*
X116640103Y-107596431D01*
X116582697Y-107595690D01*
X116508182Y-107595350D01*
X116414059Y-107595260D01*
X116394032Y-107595259D01*
X116295227Y-107595355D01*
X116295227Y-107595355D01*
G37*
X116295227Y-107595355D02*
X116216520Y-107595734D01*
X116155429Y-107596525D01*
X116109475Y-107597862D01*
X116076178Y-107599875D01*
X116053056Y-107602698D01*
X116037630Y-107606461D01*
X116027421Y-107611297D01*
X116022479Y-107615014D01*
X115996835Y-107647550D01*
X115993733Y-107681330D01*
X116009581Y-107712018D01*
X116019944Y-107724281D01*
X116031096Y-107732642D01*
X116047257Y-107737849D01*
X116072650Y-107740649D01*
X116111494Y-107741788D01*
X116168012Y-107742013D01*
X116179112Y-107742014D01*
X116325048Y-107742014D01*
X116325048Y-108012948D01*
X116325144Y-108098346D01*
X116325581Y-108164056D01*
X116326580Y-108212966D01*
X116328364Y-108247965D01*
X116331155Y-108271941D01*
X116335175Y-108287785D01*
X116340647Y-108298383D01*
X116347626Y-108306459D01*
X116380558Y-108326304D01*
X116414938Y-108324740D01*
X116446116Y-108302098D01*
X116448406Y-108299292D01*
X116455863Y-108288684D01*
X116461545Y-108276273D01*
X116465691Y-108259042D01*
X116468542Y-108233976D01*
X116470338Y-108198059D01*
X116471320Y-108148275D01*
X116471728Y-108081609D01*
X116471803Y-108005781D01*
X116471803Y-107742014D01*
X116611165Y-107742014D01*
X116670970Y-107741610D01*
X116712374Y-107740032D01*
X116739544Y-107736739D01*
X116756646Y-107731184D01*
X116767849Y-107722823D01*
X116769209Y-107721370D01*
X116785567Y-107688131D01*
X116784120Y-107650554D01*
X116765314Y-107617837D01*
X116758042Y-107611490D01*
X116748665Y-107606458D01*
X116734683Y-107602588D01*
X116713596Y-107599729D01*
X116682903Y-107597727D01*
X116640103Y-107596431D01*
X116582697Y-107595690D01*
X116508182Y-107595350D01*
X116414059Y-107595260D01*
X116394032Y-107595259D01*
X116295227Y-107595355D01*
G36*
X115029469Y-107600725D02*
G01*
X114998090Y-107622968D01*
X114970381Y-107650677D01*
X114970381Y-107960112D01*
X114970454Y-108051991D01*
X114970797Y-108124032D01*
X114971600Y-108178972D01*
X114973051Y-108219552D01*
X114975340Y-108248509D01*
X114978656Y-108268583D01*
X114983187Y-108282513D01*
X114989123Y-108293037D01*
X114993778Y-108299292D01*
X115024509Y-108323865D01*
X115059796Y-108326533D01*
X115092047Y-108311463D01*
X115102704Y-108302566D01*
X115109828Y-108290749D01*
X115114125Y-108271718D01*
X115116301Y-108241184D01*
X115117064Y-108194854D01*
X115117137Y-108159063D01*
X115117137Y-108024237D01*
X115613848Y-108024237D01*
X115613848Y-108146892D01*
X115614361Y-108202979D01*
X115616416Y-108241525D01*
X115620784Y-108267553D01*
X115628236Y-108286089D01*
X115637245Y-108299292D01*
X115668148Y-108323796D01*
X115703096Y-108326698D01*
X115736554Y-108309281D01*
X115745688Y-108300151D01*
X115752140Y-108288047D01*
X115756395Y-108269193D01*
X115758940Y-108239812D01*
X115760263Y-108196129D01*
X115760849Y-108134367D01*
X115760917Y-108120192D01*
X115761401Y-108003823D01*
X115761651Y-107907919D01*
X115761569Y-107830369D01*
X115761061Y-107769061D01*
X115760030Y-107721882D01*
X115758379Y-107686722D01*
X115756013Y-107661468D01*
X115752835Y-107644009D01*
X115748748Y-107632233D01*
X115743658Y-107624027D01*
X115738026Y-107617837D01*
X115706164Y-107598036D01*
X115672935Y-107600725D01*
X115641557Y-107622968D01*
X115628859Y-107637318D01*
X115620766Y-107653170D01*
X115616250Y-107675746D01*
X115614286Y-107710270D01*
X115613848Y-107761968D01*
X115613848Y-107877481D01*
X115117137Y-107877481D01*
X115117137Y-107758948D01*
X115116630Y-107704340D01*
X115114594Y-107667467D01*
X115110257Y-107643499D01*
X115102845Y-107627607D01*
X115094559Y-107617837D01*
X115062698Y-107598036D01*
X115029469Y-107600725D01*
X115029469Y-107600725D01*
G37*
X115029469Y-107600725D02*
X114998090Y-107622968D01*
X114970381Y-107650677D01*
X114970381Y-107960112D01*
X114970454Y-108051991D01*
X114970797Y-108124032D01*
X114971600Y-108178972D01*
X114973051Y-108219552D01*
X114975340Y-108248509D01*
X114978656Y-108268583D01*
X114983187Y-108282513D01*
X114989123Y-108293037D01*
X114993778Y-108299292D01*
X115024509Y-108323865D01*
X115059796Y-108326533D01*
X115092047Y-108311463D01*
X115102704Y-108302566D01*
X115109828Y-108290749D01*
X115114125Y-108271718D01*
X115116301Y-108241184D01*
X115117064Y-108194854D01*
X115117137Y-108159063D01*
X115117137Y-108024237D01*
X115613848Y-108024237D01*
X115613848Y-108146892D01*
X115614361Y-108202979D01*
X115616416Y-108241525D01*
X115620784Y-108267553D01*
X115628236Y-108286089D01*
X115637245Y-108299292D01*
X115668148Y-108323796D01*
X115703096Y-108326698D01*
X115736554Y-108309281D01*
X115745688Y-108300151D01*
X115752140Y-108288047D01*
X115756395Y-108269193D01*
X115758940Y-108239812D01*
X115760263Y-108196129D01*
X115760849Y-108134367D01*
X115760917Y-108120192D01*
X115761401Y-108003823D01*
X115761651Y-107907919D01*
X115761569Y-107830369D01*
X115761061Y-107769061D01*
X115760030Y-107721882D01*
X115758379Y-107686722D01*
X115756013Y-107661468D01*
X115752835Y-107644009D01*
X115748748Y-107632233D01*
X115743658Y-107624027D01*
X115738026Y-107617837D01*
X115706164Y-107598036D01*
X115672935Y-107600725D01*
X115641557Y-107622968D01*
X115628859Y-107637318D01*
X115620766Y-107653170D01*
X115616250Y-107675746D01*
X115614286Y-107710270D01*
X115613848Y-107761968D01*
X115613848Y-107877481D01*
X115117137Y-107877481D01*
X115117137Y-107758948D01*
X115116630Y-107704340D01*
X115114594Y-107667467D01*
X115110257Y-107643499D01*
X115102845Y-107627607D01*
X115094559Y-107617837D01*
X115062698Y-107598036D01*
X115029469Y-107600725D01*
G36*
X123996079Y-100996490D02*
G01*
X123892973Y-101032238D01*
X123796978Y-101088507D01*
X123711247Y-101165288D01*
X123638930Y-101262573D01*
X123606445Y-101323892D01*
X123578332Y-101409660D01*
X123564705Y-101508677D01*
X123566214Y-101610471D01*
X123582969Y-101702714D01*
X123628763Y-101815432D01*
X123695168Y-101913207D01*
X123778809Y-101994115D01*
X123876312Y-102056232D01*
X123984300Y-102097634D01*
X124099399Y-102116397D01*
X124218234Y-102110598D01*
X124276811Y-102098206D01*
X124390972Y-102053797D01*
X124492365Y-101986033D01*
X124578545Y-101897001D01*
X124647066Y-101788791D01*
X124652864Y-101776973D01*
X124672904Y-101732628D01*
X124685487Y-101695280D01*
X124692319Y-101655880D01*
X124695105Y-101605381D01*
X124695568Y-101550433D01*
X124694803Y-101484415D01*
X124691352Y-101436689D01*
X124683477Y-101398103D01*
X124669443Y-101359506D01*
X124652120Y-101321426D01*
X124587505Y-101213328D01*
X124507934Y-101125803D01*
X124416560Y-101058841D01*
X124316536Y-101012436D01*
X124211012Y-100986581D01*
X124103142Y-100981268D01*
X123996079Y-100996490D01*
X123996079Y-100996490D01*
G37*
X123996079Y-100996490D02*
X123892973Y-101032238D01*
X123796978Y-101088507D01*
X123711247Y-101165288D01*
X123638930Y-101262573D01*
X123606445Y-101323892D01*
X123578332Y-101409660D01*
X123564705Y-101508677D01*
X123566214Y-101610471D01*
X123582969Y-101702714D01*
X123628763Y-101815432D01*
X123695168Y-101913207D01*
X123778809Y-101994115D01*
X123876312Y-102056232D01*
X123984300Y-102097634D01*
X124099399Y-102116397D01*
X124218234Y-102110598D01*
X124276811Y-102098206D01*
X124390972Y-102053797D01*
X124492365Y-101986033D01*
X124578545Y-101897001D01*
X124647066Y-101788791D01*
X124652864Y-101776973D01*
X124672904Y-101732628D01*
X124685487Y-101695280D01*
X124692319Y-101655880D01*
X124695105Y-101605381D01*
X124695568Y-101550433D01*
X124694803Y-101484415D01*
X124691352Y-101436689D01*
X124683477Y-101398103D01*
X124669443Y-101359506D01*
X124652120Y-101321426D01*
X124587505Y-101213328D01*
X124507934Y-101125803D01*
X124416560Y-101058841D01*
X124316536Y-101012436D01*
X124211012Y-100986581D01*
X124103142Y-100981268D01*
X123996079Y-100996490D01*
G36*
X114427730Y-101916825D02*
G01*
X114310959Y-101917304D01*
X114271271Y-101917545D01*
X113725514Y-101921135D01*
X113718649Y-104014919D01*
X113717742Y-104298842D01*
X113716938Y-104556640D01*
X113716185Y-104789646D01*
X113715431Y-104999194D01*
X113714625Y-105186618D01*
X113713715Y-105353250D01*
X113712649Y-105500425D01*
X113711376Y-105629477D01*
X113709844Y-105741739D01*
X113708002Y-105838544D01*
X113705797Y-105921226D01*
X113703178Y-105991119D01*
X113700094Y-106049557D01*
X113696492Y-106097872D01*
X113692322Y-106137400D01*
X113687531Y-106169473D01*
X113682069Y-106195424D01*
X113675882Y-106216589D01*
X113668920Y-106234299D01*
X113661131Y-106249889D01*
X113652463Y-106264693D01*
X113642865Y-106280044D01*
X113632285Y-106297276D01*
X113630116Y-106300946D01*
X113593732Y-106363031D01*
X114119569Y-106359434D01*
X114645406Y-106355838D01*
X114652271Y-106240331D01*
X114656008Y-106184899D01*
X114659903Y-106152851D01*
X114665189Y-106140135D01*
X114673097Y-106142696D01*
X114679730Y-106150024D01*
X114708626Y-106176714D01*
X114755721Y-106211021D01*
X114814380Y-106248846D01*
X114877969Y-106286090D01*
X114939851Y-106318653D01*
X114987366Y-106340077D01*
X115098684Y-106375283D01*
X115226404Y-106400222D01*
X115361099Y-106413941D01*
X115493337Y-106415486D01*
X115613692Y-106403906D01*
X115615674Y-106403574D01*
X115780359Y-106362250D01*
X115934521Y-106296412D01*
X116076672Y-106207474D01*
X116205325Y-106096852D01*
X116318993Y-105965961D01*
X116416190Y-105816216D01*
X116495428Y-105649033D01*
X116538570Y-105525190D01*
X116567021Y-105421581D01*
X116588120Y-105321252D01*
X116602512Y-105218109D01*
X116610842Y-105106057D01*
X116613755Y-104979001D01*
X116612465Y-104875252D01*
X115599350Y-104875252D01*
X115594556Y-105049222D01*
X115579432Y-105198895D01*
X115553515Y-105325597D01*
X115516337Y-105430658D01*
X115467435Y-105515406D01*
X115406342Y-105581169D01*
X115335823Y-105627659D01*
X115299129Y-105645014D01*
X115267304Y-105655419D01*
X115231823Y-105660179D01*
X115184159Y-105660601D01*
X115132811Y-105658748D01*
X115031831Y-105649841D01*
X114951965Y-105632398D01*
X114926865Y-105623661D01*
X114869552Y-105597857D01*
X114809103Y-105565453D01*
X114782703Y-105549233D01*
X114714054Y-105504205D01*
X114714054Y-104076982D01*
X114789568Y-104031718D01*
X114894879Y-103980572D01*
X115002475Y-103950324D01*
X115108419Y-103940795D01*
X115208776Y-103951807D01*
X115299613Y-103983181D01*
X115376993Y-104034740D01*
X115401961Y-104059488D01*
X115462144Y-104140577D01*
X115510855Y-104238734D01*
X115548501Y-104355643D01*
X115575488Y-104492985D01*
X115592225Y-104652444D01*
X115599117Y-104835700D01*
X115599350Y-104875252D01*
X116612465Y-104875252D01*
X116611927Y-104832067D01*
X116600353Y-104606053D01*
X116577080Y-104402192D01*
X116541496Y-104217513D01*
X116492987Y-104049048D01*
X116430940Y-103893826D01*
X116408799Y-103847808D01*
X116319615Y-103697739D01*
X116211841Y-103564377D01*
X116088010Y-103449877D01*
X115950658Y-103356389D01*
X115802317Y-103286068D01*
X115713396Y-103257060D01*
X115626067Y-103239840D01*
X115520989Y-103229594D01*
X115406971Y-103226318D01*
X115292823Y-103230009D01*
X115187352Y-103240660D01*
X115102666Y-103257370D01*
X115001872Y-103290140D01*
X114904178Y-103332279D01*
X114818704Y-103379519D01*
X114773211Y-103411581D01*
X114741831Y-103435422D01*
X114719858Y-103449939D01*
X114714859Y-103452000D01*
X114713310Y-103438718D01*
X114711865Y-103400663D01*
X114710557Y-103340519D01*
X114709417Y-103260973D01*
X114708479Y-103164711D01*
X114707774Y-103054419D01*
X114707333Y-102932781D01*
X114707189Y-102808885D01*
X114707270Y-102650196D01*
X114707665Y-102516408D01*
X114708605Y-102404960D01*
X114710320Y-102313295D01*
X114713043Y-102238853D01*
X114717003Y-102179075D01*
X114722431Y-102131402D01*
X114729559Y-102093274D01*
X114738616Y-102062134D01*
X114749833Y-102035421D01*
X114763442Y-102010577D01*
X114779672Y-101985043D01*
X114781760Y-101981881D01*
X114802694Y-101948810D01*
X114815333Y-101926069D01*
X114817027Y-101921272D01*
X114803784Y-101919759D01*
X114765998Y-101918528D01*
X114706584Y-101917599D01*
X114628458Y-101916992D01*
X114534535Y-101916727D01*
X114427730Y-101916825D01*
X114427730Y-101916825D01*
G37*
X114427730Y-101916825D02*
X114310959Y-101917304D01*
X114271271Y-101917545D01*
X113725514Y-101921135D01*
X113718649Y-104014919D01*
X113717742Y-104298842D01*
X113716938Y-104556640D01*
X113716185Y-104789646D01*
X113715431Y-104999194D01*
X113714625Y-105186618D01*
X113713715Y-105353250D01*
X113712649Y-105500425D01*
X113711376Y-105629477D01*
X113709844Y-105741739D01*
X113708002Y-105838544D01*
X113705797Y-105921226D01*
X113703178Y-105991119D01*
X113700094Y-106049557D01*
X113696492Y-106097872D01*
X113692322Y-106137400D01*
X113687531Y-106169473D01*
X113682069Y-106195424D01*
X113675882Y-106216589D01*
X113668920Y-106234299D01*
X113661131Y-106249889D01*
X113652463Y-106264693D01*
X113642865Y-106280044D01*
X113632285Y-106297276D01*
X113630116Y-106300946D01*
X113593732Y-106363031D01*
X114119569Y-106359434D01*
X114645406Y-106355838D01*
X114652271Y-106240331D01*
X114656008Y-106184899D01*
X114659903Y-106152851D01*
X114665189Y-106140135D01*
X114673097Y-106142696D01*
X114679730Y-106150024D01*
X114708626Y-106176714D01*
X114755721Y-106211021D01*
X114814380Y-106248846D01*
X114877969Y-106286090D01*
X114939851Y-106318653D01*
X114987366Y-106340077D01*
X115098684Y-106375283D01*
X115226404Y-106400222D01*
X115361099Y-106413941D01*
X115493337Y-106415486D01*
X115613692Y-106403906D01*
X115615674Y-106403574D01*
X115780359Y-106362250D01*
X115934521Y-106296412D01*
X116076672Y-106207474D01*
X116205325Y-106096852D01*
X116318993Y-105965961D01*
X116416190Y-105816216D01*
X116495428Y-105649033D01*
X116538570Y-105525190D01*
X116567021Y-105421581D01*
X116588120Y-105321252D01*
X116602512Y-105218109D01*
X116610842Y-105106057D01*
X116613755Y-104979001D01*
X116612465Y-104875252D01*
X115599350Y-104875252D01*
X115594556Y-105049222D01*
X115579432Y-105198895D01*
X115553515Y-105325597D01*
X115516337Y-105430658D01*
X115467435Y-105515406D01*
X115406342Y-105581169D01*
X115335823Y-105627659D01*
X115299129Y-105645014D01*
X115267304Y-105655419D01*
X115231823Y-105660179D01*
X115184159Y-105660601D01*
X115132811Y-105658748D01*
X115031831Y-105649841D01*
X114951965Y-105632398D01*
X114926865Y-105623661D01*
X114869552Y-105597857D01*
X114809103Y-105565453D01*
X114782703Y-105549233D01*
X114714054Y-105504205D01*
X114714054Y-104076982D01*
X114789568Y-104031718D01*
X114894879Y-103980572D01*
X115002475Y-103950324D01*
X115108419Y-103940795D01*
X115208776Y-103951807D01*
X115299613Y-103983181D01*
X115376993Y-104034740D01*
X115401961Y-104059488D01*
X115462144Y-104140577D01*
X115510855Y-104238734D01*
X115548501Y-104355643D01*
X115575488Y-104492985D01*
X115592225Y-104652444D01*
X115599117Y-104835700D01*
X115599350Y-104875252D01*
X116612465Y-104875252D01*
X116611927Y-104832067D01*
X116600353Y-104606053D01*
X116577080Y-104402192D01*
X116541496Y-104217513D01*
X116492987Y-104049048D01*
X116430940Y-103893826D01*
X116408799Y-103847808D01*
X116319615Y-103697739D01*
X116211841Y-103564377D01*
X116088010Y-103449877D01*
X115950658Y-103356389D01*
X115802317Y-103286068D01*
X115713396Y-103257060D01*
X115626067Y-103239840D01*
X115520989Y-103229594D01*
X115406971Y-103226318D01*
X115292823Y-103230009D01*
X115187352Y-103240660D01*
X115102666Y-103257370D01*
X115001872Y-103290140D01*
X114904178Y-103332279D01*
X114818704Y-103379519D01*
X114773211Y-103411581D01*
X114741831Y-103435422D01*
X114719858Y-103449939D01*
X114714859Y-103452000D01*
X114713310Y-103438718D01*
X114711865Y-103400663D01*
X114710557Y-103340519D01*
X114709417Y-103260973D01*
X114708479Y-103164711D01*
X114707774Y-103054419D01*
X114707333Y-102932781D01*
X114707189Y-102808885D01*
X114707270Y-102650196D01*
X114707665Y-102516408D01*
X114708605Y-102404960D01*
X114710320Y-102313295D01*
X114713043Y-102238853D01*
X114717003Y-102179075D01*
X114722431Y-102131402D01*
X114729559Y-102093274D01*
X114738616Y-102062134D01*
X114749833Y-102035421D01*
X114763442Y-102010577D01*
X114779672Y-101985043D01*
X114781760Y-101981881D01*
X114802694Y-101948810D01*
X114815333Y-101926069D01*
X114817027Y-101921272D01*
X114803784Y-101919759D01*
X114765998Y-101918528D01*
X114706584Y-101917599D01*
X114628458Y-101916992D01*
X114534535Y-101916727D01*
X114427730Y-101916825D01*
G36*
X118102495Y-103224229D02*
G01*
X118034469Y-103229378D01*
X117839837Y-103255273D01*
X117667471Y-103296575D01*
X117516530Y-103353853D01*
X117386175Y-103427674D01*
X117275566Y-103518608D01*
X117183865Y-103627222D01*
X117110230Y-103754085D01*
X117056461Y-103891352D01*
X117042813Y-103935137D01*
X117030927Y-103976141D01*
X117020666Y-104016569D01*
X117011887Y-104058630D01*
X117004452Y-104104531D01*
X116998220Y-104156480D01*
X116993050Y-104216685D01*
X116988804Y-104287352D01*
X116985340Y-104370689D01*
X116982519Y-104468905D01*
X116980200Y-104584205D01*
X116978243Y-104718799D01*
X116976509Y-104874893D01*
X116974857Y-105054695D01*
X116973676Y-105195676D01*
X116965730Y-106163622D01*
X116914244Y-106256770D01*
X116889863Y-106301645D01*
X116871720Y-106336501D01*
X116863065Y-106355054D01*
X116862757Y-106356311D01*
X116875986Y-106357749D01*
X116913674Y-106359074D01*
X116972817Y-106360249D01*
X117050414Y-106361237D01*
X117143464Y-106361999D01*
X117248965Y-106362500D01*
X117363916Y-106362701D01*
X117377622Y-106362703D01*
X117892487Y-106362703D01*
X117892487Y-106246000D01*
X117893365Y-106193260D01*
X117895708Y-106152926D01*
X117899079Y-106131300D01*
X117900569Y-106129298D01*
X117914196Y-106137683D01*
X117942243Y-106159692D01*
X117978697Y-106190601D01*
X117979515Y-106191316D01*
X118046038Y-106240843D01*
X118130052Y-106290575D01*
X118222063Y-106335626D01*
X118312579Y-106371110D01*
X118352433Y-106383236D01*
X118431745Y-106398637D01*
X118529065Y-106408465D01*
X118635484Y-106412580D01*
X118742093Y-106410841D01*
X118839983Y-106403108D01*
X118908487Y-106391981D01*
X119076480Y-106342648D01*
X119227719Y-106272342D01*
X119361218Y-106181933D01*
X119475994Y-106072295D01*
X119571063Y-105944299D01*
X119645440Y-105798818D01*
X119677526Y-105710541D01*
X119697635Y-105624739D01*
X119710962Y-105521736D01*
X119717128Y-105411034D01*
X119716926Y-105394925D01*
X118788352Y-105394925D01*
X118780652Y-105477184D01*
X118755011Y-105545546D01*
X118707622Y-105608970D01*
X118689421Y-105627567D01*
X118624718Y-105677846D01*
X118549934Y-105710056D01*
X118460338Y-105725648D01*
X118365988Y-105726796D01*
X118276499Y-105719216D01*
X118207982Y-105704389D01*
X118178225Y-105693253D01*
X118124592Y-105662904D01*
X118067765Y-105620221D01*
X118015918Y-105572317D01*
X117977222Y-105526301D01*
X117966946Y-105509421D01*
X117958958Y-105485782D01*
X117953279Y-105448168D01*
X117949644Y-105392985D01*
X117947789Y-105316640D01*
X117947406Y-105243981D01*
X117947665Y-105159270D01*
X117948713Y-105098018D01*
X117950955Y-105056227D01*
X117954794Y-105029899D01*
X117960635Y-105015035D01*
X117968882Y-105007639D01*
X117971433Y-105006461D01*
X117993600Y-105002833D01*
X118037320Y-104999866D01*
X118096689Y-104997827D01*
X118165804Y-104996983D01*
X118180811Y-104996982D01*
X118273195Y-104998457D01*
X118344568Y-105002842D01*
X118401281Y-105010738D01*
X118448128Y-105022270D01*
X118564331Y-105066215D01*
X118655457Y-105120243D01*
X118722295Y-105185219D01*
X118765635Y-105262005D01*
X118786266Y-105351467D01*
X118788352Y-105394925D01*
X119716926Y-105394925D01*
X119715756Y-105302133D01*
X119706468Y-105204536D01*
X119699223Y-105165105D01*
X119652961Y-105018701D01*
X119582616Y-104883995D01*
X119489516Y-104762280D01*
X119374988Y-104654847D01*
X119240360Y-104562988D01*
X119086960Y-104487996D01*
X118956541Y-104442458D01*
X118869377Y-104418533D01*
X118786004Y-104399943D01*
X118701024Y-104386084D01*
X118609035Y-104376351D01*
X118504638Y-104370141D01*
X118382432Y-104366851D01*
X118271945Y-104365924D01*
X117944323Y-104365027D01*
X117950599Y-104266547D01*
X117968421Y-104159695D01*
X118006333Y-104067852D01*
X118062720Y-103993310D01*
X118135969Y-103938364D01*
X118200465Y-103911552D01*
X118292877Y-103894654D01*
X118402889Y-103892227D01*
X118525344Y-103903378D01*
X118655086Y-103927210D01*
X118786958Y-103962830D01*
X118915802Y-104009343D01*
X119009434Y-104051883D01*
X119054483Y-104073728D01*
X119088844Y-104088984D01*
X119106319Y-104094937D01*
X119107267Y-104094746D01*
X119113297Y-104081412D01*
X119128355Y-104046068D01*
X119151023Y-103992101D01*
X119179885Y-103922896D01*
X119213523Y-103841840D01*
X119247716Y-103759118D01*
X119384414Y-103427803D01*
X119287180Y-103411833D01*
X119245036Y-103403820D01*
X119181681Y-103390361D01*
X119102543Y-103372679D01*
X119013049Y-103351996D01*
X118918627Y-103329532D01*
X118881027Y-103320403D01*
X118718363Y-103282674D01*
X118575950Y-103254388D01*
X118448473Y-103234972D01*
X118330616Y-103223854D01*
X118217062Y-103220464D01*
X118102495Y-103224229D01*
X118102495Y-103224229D01*
G37*
X118102495Y-103224229D02*
X118034469Y-103229378D01*
X117839837Y-103255273D01*
X117667471Y-103296575D01*
X117516530Y-103353853D01*
X117386175Y-103427674D01*
X117275566Y-103518608D01*
X117183865Y-103627222D01*
X117110230Y-103754085D01*
X117056461Y-103891352D01*
X117042813Y-103935137D01*
X117030927Y-103976141D01*
X117020666Y-104016569D01*
X117011887Y-104058630D01*
X117004452Y-104104531D01*
X116998220Y-104156480D01*
X116993050Y-104216685D01*
X116988804Y-104287352D01*
X116985340Y-104370689D01*
X116982519Y-104468905D01*
X116980200Y-104584205D01*
X116978243Y-104718799D01*
X116976509Y-104874893D01*
X116974857Y-105054695D01*
X116973676Y-105195676D01*
X116965730Y-106163622D01*
X116914244Y-106256770D01*
X116889863Y-106301645D01*
X116871720Y-106336501D01*
X116863065Y-106355054D01*
X116862757Y-106356311D01*
X116875986Y-106357749D01*
X116913674Y-106359074D01*
X116972817Y-106360249D01*
X117050414Y-106361237D01*
X117143464Y-106361999D01*
X117248965Y-106362500D01*
X117363916Y-106362701D01*
X117377622Y-106362703D01*
X117892487Y-106362703D01*
X117892487Y-106246000D01*
X117893365Y-106193260D01*
X117895708Y-106152926D01*
X117899079Y-106131300D01*
X117900569Y-106129298D01*
X117914196Y-106137683D01*
X117942243Y-106159692D01*
X117978697Y-106190601D01*
X117979515Y-106191316D01*
X118046038Y-106240843D01*
X118130052Y-106290575D01*
X118222063Y-106335626D01*
X118312579Y-106371110D01*
X118352433Y-106383236D01*
X118431745Y-106398637D01*
X118529065Y-106408465D01*
X118635484Y-106412580D01*
X118742093Y-106410841D01*
X118839983Y-106403108D01*
X118908487Y-106391981D01*
X119076480Y-106342648D01*
X119227719Y-106272342D01*
X119361218Y-106181933D01*
X119475994Y-106072295D01*
X119571063Y-105944299D01*
X119645440Y-105798818D01*
X119677526Y-105710541D01*
X119697635Y-105624739D01*
X119710962Y-105521736D01*
X119717128Y-105411034D01*
X119716926Y-105394925D01*
X118788352Y-105394925D01*
X118780652Y-105477184D01*
X118755011Y-105545546D01*
X118707622Y-105608970D01*
X118689421Y-105627567D01*
X118624718Y-105677846D01*
X118549934Y-105710056D01*
X118460338Y-105725648D01*
X118365988Y-105726796D01*
X118276499Y-105719216D01*
X118207982Y-105704389D01*
X118178225Y-105693253D01*
X118124592Y-105662904D01*
X118067765Y-105620221D01*
X118015918Y-105572317D01*
X117977222Y-105526301D01*
X117966946Y-105509421D01*
X117958958Y-105485782D01*
X117953279Y-105448168D01*
X117949644Y-105392985D01*
X117947789Y-105316640D01*
X117947406Y-105243981D01*
X117947665Y-105159270D01*
X117948713Y-105098018D01*
X117950955Y-105056227D01*
X117954794Y-105029899D01*
X117960635Y-105015035D01*
X117968882Y-105007639D01*
X117971433Y-105006461D01*
X117993600Y-105002833D01*
X118037320Y-104999866D01*
X118096689Y-104997827D01*
X118165804Y-104996983D01*
X118180811Y-104996982D01*
X118273195Y-104998457D01*
X118344568Y-105002842D01*
X118401281Y-105010738D01*
X118448128Y-105022270D01*
X118564331Y-105066215D01*
X118655457Y-105120243D01*
X118722295Y-105185219D01*
X118765635Y-105262005D01*
X118786266Y-105351467D01*
X118788352Y-105394925D01*
X119716926Y-105394925D01*
X119715756Y-105302133D01*
X119706468Y-105204536D01*
X119699223Y-105165105D01*
X119652961Y-105018701D01*
X119582616Y-104883995D01*
X119489516Y-104762280D01*
X119374988Y-104654847D01*
X119240360Y-104562988D01*
X119086960Y-104487996D01*
X118956541Y-104442458D01*
X118869377Y-104418533D01*
X118786004Y-104399943D01*
X118701024Y-104386084D01*
X118609035Y-104376351D01*
X118504638Y-104370141D01*
X118382432Y-104366851D01*
X118271945Y-104365924D01*
X117944323Y-104365027D01*
X117950599Y-104266547D01*
X117968421Y-104159695D01*
X118006333Y-104067852D01*
X118062720Y-103993310D01*
X118135969Y-103938364D01*
X118200465Y-103911552D01*
X118292877Y-103894654D01*
X118402889Y-103892227D01*
X118525344Y-103903378D01*
X118655086Y-103927210D01*
X118786958Y-103962830D01*
X118915802Y-104009343D01*
X119009434Y-104051883D01*
X119054483Y-104073728D01*
X119088844Y-104088984D01*
X119106319Y-104094937D01*
X119107267Y-104094746D01*
X119113297Y-104081412D01*
X119128355Y-104046068D01*
X119151023Y-103992101D01*
X119179885Y-103922896D01*
X119213523Y-103841840D01*
X119247716Y-103759118D01*
X119384414Y-103427803D01*
X119287180Y-103411833D01*
X119245036Y-103403820D01*
X119181681Y-103390361D01*
X119102543Y-103372679D01*
X119013049Y-103351996D01*
X118918627Y-103329532D01*
X118881027Y-103320403D01*
X118718363Y-103282674D01*
X118575950Y-103254388D01*
X118448473Y-103234972D01*
X118330616Y-103223854D01*
X118217062Y-103220464D01*
X118102495Y-103224229D01*
G36*
X120830038Y-102120499D02*
G01*
X120681986Y-102136707D01*
X120538548Y-102165718D01*
X120393890Y-102209045D01*
X120242176Y-102268201D01*
X120077572Y-102344700D01*
X120047929Y-102359517D01*
X119979902Y-102393031D01*
X119915744Y-102423208D01*
X119861785Y-102447166D01*
X119824360Y-102462024D01*
X119818611Y-102463895D01*
X119763514Y-102480402D01*
X120010149Y-102839201D01*
X120070448Y-102926893D01*
X120125578Y-103007012D01*
X120173664Y-103076836D01*
X120212832Y-103133647D01*
X120241206Y-103174723D01*
X120256913Y-103197346D01*
X120259464Y-103200928D01*
X120269829Y-103193438D01*
X120295340Y-103170918D01*
X120331437Y-103137461D01*
X120351358Y-103118550D01*
X120464227Y-103028778D01*
X120590986Y-102960561D01*
X120700217Y-102923195D01*
X120765786Y-102911460D01*
X120847884Y-102904308D01*
X120936856Y-102901874D01*
X121023044Y-102904288D01*
X121096795Y-102911683D01*
X121126224Y-102917347D01*
X121258867Y-102962982D01*
X121378394Y-103032663D01*
X121484717Y-103126260D01*
X121577747Y-103243649D01*
X121657395Y-103384700D01*
X121723574Y-103549286D01*
X121776194Y-103737280D01*
X121807467Y-103898217D01*
X121815626Y-103969263D01*
X121821185Y-104061046D01*
X121824198Y-104166968D01*
X121824719Y-104280434D01*
X121822800Y-104394849D01*
X121818497Y-104503617D01*
X121811863Y-104600143D01*
X121802951Y-104677831D01*
X121801021Y-104689817D01*
X121758501Y-104882892D01*
X121700567Y-105053773D01*
X121626867Y-105203224D01*
X121537049Y-105332011D01*
X121473293Y-105401639D01*
X121358714Y-105496173D01*
X121233058Y-105566246D01*
X121098443Y-105611477D01*
X120956989Y-105631484D01*
X120810817Y-105625885D01*
X120662045Y-105594300D01*
X120574089Y-105563394D01*
X120452371Y-105501506D01*
X120326920Y-105412729D01*
X120256647Y-105352694D01*
X120217189Y-105317947D01*
X120186188Y-105292454D01*
X120168542Y-105280170D01*
X120166352Y-105279795D01*
X120158476Y-105292347D01*
X120138068Y-105325516D01*
X120106868Y-105376458D01*
X120066614Y-105442331D01*
X120019043Y-105520289D01*
X119965896Y-105607490D01*
X119936313Y-105656067D01*
X119710352Y-106027215D01*
X119992473Y-106166639D01*
X120094478Y-106216719D01*
X120177111Y-106256210D01*
X120245422Y-106287073D01*
X120304463Y-106311268D01*
X120359286Y-106330758D01*
X120414940Y-106347503D01*
X120476477Y-106363465D01*
X120535460Y-106377482D01*
X120587885Y-106388329D01*
X120642712Y-106396526D01*
X120705428Y-106402528D01*
X120781523Y-106406790D01*
X120876484Y-106409767D01*
X120940487Y-106411052D01*
X121031808Y-106411930D01*
X121119373Y-106411487D01*
X121197388Y-106409852D01*
X121260058Y-106407149D01*
X121301587Y-106403505D01*
X121304048Y-106403142D01*
X121519697Y-106356487D01*
X121722207Y-106285729D01*
X121911505Y-106190914D01*
X122087521Y-106072089D01*
X122250184Y-105929300D01*
X122399422Y-105762594D01*
X122507504Y-105614433D01*
X122622566Y-105420502D01*
X122715577Y-105215699D01*
X122786987Y-104998383D01*
X122837244Y-104766912D01*
X122866799Y-104519643D01*
X122876111Y-104268559D01*
X122868452Y-104025670D01*
X122844387Y-103801570D01*
X122803148Y-103592477D01*
X122743973Y-103394613D01*
X122666096Y-103204196D01*
X122656797Y-103184468D01*
X122554352Y-103000059D01*
X122428528Y-102824576D01*
X122282888Y-102661650D01*
X122120999Y-102514914D01*
X121946424Y-102388001D01*
X121783756Y-102294905D01*
X121619427Y-102221991D01*
X121454749Y-102169174D01*
X121283348Y-102135015D01*
X121098847Y-102118078D01*
X120988541Y-102115580D01*
X120830038Y-102120499D01*
X120830038Y-102120499D01*
G37*
X120830038Y-102120499D02*
X120681986Y-102136707D01*
X120538548Y-102165718D01*
X120393890Y-102209045D01*
X120242176Y-102268201D01*
X120077572Y-102344700D01*
X120047929Y-102359517D01*
X119979902Y-102393031D01*
X119915744Y-102423208D01*
X119861785Y-102447166D01*
X119824360Y-102462024D01*
X119818611Y-102463895D01*
X119763514Y-102480402D01*
X120010149Y-102839201D01*
X120070448Y-102926893D01*
X120125578Y-103007012D01*
X120173664Y-103076836D01*
X120212832Y-103133647D01*
X120241206Y-103174723D01*
X120256913Y-103197346D01*
X120259464Y-103200928D01*
X120269829Y-103193438D01*
X120295340Y-103170918D01*
X120331437Y-103137461D01*
X120351358Y-103118550D01*
X120464227Y-103028778D01*
X120590986Y-102960561D01*
X120700217Y-102923195D01*
X120765786Y-102911460D01*
X120847884Y-102904308D01*
X120936856Y-102901874D01*
X121023044Y-102904288D01*
X121096795Y-102911683D01*
X121126224Y-102917347D01*
X121258867Y-102962982D01*
X121378394Y-103032663D01*
X121484717Y-103126260D01*
X121577747Y-103243649D01*
X121657395Y-103384700D01*
X121723574Y-103549286D01*
X121776194Y-103737280D01*
X121807467Y-103898217D01*
X121815626Y-103969263D01*
X121821185Y-104061046D01*
X121824198Y-104166968D01*
X121824719Y-104280434D01*
X121822800Y-104394849D01*
X121818497Y-104503617D01*
X121811863Y-104600143D01*
X121802951Y-104677831D01*
X121801021Y-104689817D01*
X121758501Y-104882892D01*
X121700567Y-105053773D01*
X121626867Y-105203224D01*
X121537049Y-105332011D01*
X121473293Y-105401639D01*
X121358714Y-105496173D01*
X121233058Y-105566246D01*
X121098443Y-105611477D01*
X120956989Y-105631484D01*
X120810817Y-105625885D01*
X120662045Y-105594300D01*
X120574089Y-105563394D01*
X120452371Y-105501506D01*
X120326920Y-105412729D01*
X120256647Y-105352694D01*
X120217189Y-105317947D01*
X120186188Y-105292454D01*
X120168542Y-105280170D01*
X120166352Y-105279795D01*
X120158476Y-105292347D01*
X120138068Y-105325516D01*
X120106868Y-105376458D01*
X120066614Y-105442331D01*
X120019043Y-105520289D01*
X119965896Y-105607490D01*
X119936313Y-105656067D01*
X119710352Y-106027215D01*
X119992473Y-106166639D01*
X120094478Y-106216719D01*
X120177111Y-106256210D01*
X120245422Y-106287073D01*
X120304463Y-106311268D01*
X120359286Y-106330758D01*
X120414940Y-106347503D01*
X120476477Y-106363465D01*
X120535460Y-106377482D01*
X120587885Y-106388329D01*
X120642712Y-106396526D01*
X120705428Y-106402528D01*
X120781523Y-106406790D01*
X120876484Y-106409767D01*
X120940487Y-106411052D01*
X121031808Y-106411930D01*
X121119373Y-106411487D01*
X121197388Y-106409852D01*
X121260058Y-106407149D01*
X121301587Y-106403505D01*
X121304048Y-106403142D01*
X121519697Y-106356487D01*
X121722207Y-106285729D01*
X121911505Y-106190914D01*
X122087521Y-106072089D01*
X122250184Y-105929300D01*
X122399422Y-105762594D01*
X122507504Y-105614433D01*
X122622566Y-105420502D01*
X122715577Y-105215699D01*
X122786987Y-104998383D01*
X122837244Y-104766912D01*
X122866799Y-104519643D01*
X122876111Y-104268559D01*
X122868452Y-104025670D01*
X122844387Y-103801570D01*
X122803148Y-103592477D01*
X122743973Y-103394613D01*
X122666096Y-103204196D01*
X122656797Y-103184468D01*
X122554352Y-103000059D01*
X122428528Y-102824576D01*
X122282888Y-102661650D01*
X122120999Y-102514914D01*
X121946424Y-102388001D01*
X121783756Y-102294905D01*
X121619427Y-102221991D01*
X121454749Y-102169174D01*
X121283348Y-102135015D01*
X121098847Y-102118078D01*
X120988541Y-102115580D01*
X120830038Y-102120499D01*
G36*
X127225743Y-101433689D02*
G01*
X126961220Y-101433725D01*
X126838088Y-101433730D01*
X124867189Y-101433730D01*
X124867189Y-101549910D01*
X124854789Y-101691291D01*
X124817364Y-101821684D01*
X124754577Y-101941862D01*
X124666094Y-102052602D01*
X124636157Y-102082511D01*
X124528466Y-102167348D01*
X124409725Y-102229221D01*
X124283460Y-102268159D01*
X124153197Y-102284190D01*
X124022465Y-102277342D01*
X123894788Y-102247643D01*
X123773695Y-102195120D01*
X123662712Y-102119803D01*
X123612868Y-102074363D01*
X123519983Y-101962952D01*
X123451873Y-101840435D01*
X123409129Y-101708215D01*
X123392347Y-101567692D01*
X123392124Y-101553867D01*
X123391244Y-101433734D01*
X123338443Y-101433732D01*
X123291604Y-101440089D01*
X123248817Y-101455556D01*
X123245989Y-101457154D01*
X123236325Y-101462168D01*
X123227451Y-101466073D01*
X123219335Y-101470007D01*
X123211943Y-101475106D01*
X123205245Y-101482508D01*
X123199208Y-101493351D01*
X123193801Y-101508772D01*
X123188990Y-101529909D01*
X123184745Y-101557899D01*
X123181032Y-101593879D01*
X123177821Y-101638987D01*
X123175078Y-101694360D01*
X123172772Y-101761137D01*
X123170871Y-101840453D01*
X123169342Y-101933447D01*
X123168154Y-102041257D01*
X123167274Y-102165019D01*
X123166670Y-102305871D01*
X123166311Y-102464950D01*
X123166165Y-102643395D01*
X123166198Y-102842342D01*
X123166380Y-103062929D01*
X123166677Y-103306293D01*
X123167059Y-103573572D01*
X123167492Y-103865903D01*
X123167945Y-104184424D01*
X123167998Y-104223230D01*
X123168404Y-104543782D01*
X123168749Y-104838012D01*
X123169069Y-105107056D01*
X123169400Y-105352052D01*
X123169779Y-105574137D01*
X123170243Y-105774447D01*
X123170828Y-105954119D01*
X123171570Y-106114290D01*
X123172506Y-106256098D01*
X123173673Y-106380679D01*
X123175107Y-106489170D01*
X123176844Y-106582707D01*
X123178922Y-106662429D01*
X123181376Y-106729472D01*
X123184244Y-106784973D01*
X123187561Y-106830068D01*
X123191364Y-106865895D01*
X123195690Y-106893591D01*
X123200575Y-106914293D01*
X123206055Y-106929137D01*
X123212168Y-106939260D01*
X123218950Y-106945800D01*
X123226437Y-106949893D01*
X123234666Y-106952676D01*
X123243673Y-106955287D01*
X123253495Y-106958862D01*
X123255894Y-106959950D01*
X123263435Y-106962396D01*
X123276056Y-106964642D01*
X123294859Y-106966698D01*
X123320947Y-106968572D01*
X123355422Y-106970271D01*
X123399385Y-106971803D01*
X123453939Y-106973177D01*
X123520185Y-106974400D01*
X123599226Y-106975481D01*
X123692163Y-106976427D01*
X123800099Y-106977247D01*
X123924136Y-106977947D01*
X124065376Y-106978538D01*
X124224921Y-106979025D01*
X124403872Y-106979419D01*
X124603332Y-106979725D01*
X124824404Y-106979953D01*
X125068188Y-106980110D01*
X125335787Y-106980205D01*
X125628303Y-106980245D01*
X125946839Y-106980238D01*
X126050021Y-106980228D01*
X126375623Y-106980176D01*
X126674881Y-106980091D01*
X126948909Y-106979963D01*
X127198824Y-106979785D01*
X127425740Y-106979548D01*
X127630773Y-106979242D01*
X127815038Y-106978860D01*
X127979650Y-106978392D01*
X128125725Y-106977830D01*
X128254376Y-106977165D01*
X128366721Y-106976388D01*
X128463874Y-106975491D01*
X128546950Y-106974465D01*
X128617064Y-106973301D01*
X128675332Y-106971991D01*
X128722869Y-106970525D01*
X128760790Y-106968896D01*
X128790210Y-106967093D01*
X128812245Y-106965110D01*
X128828010Y-106962936D01*
X128838620Y-106960563D01*
X128844404Y-106958391D01*
X128854684Y-106954056D01*
X128864122Y-106950859D01*
X128872755Y-106947665D01*
X128880619Y-106943338D01*
X128887748Y-106936744D01*
X128894179Y-106926747D01*
X128899947Y-106912212D01*
X128905089Y-106892003D01*
X128909640Y-106864985D01*
X128913635Y-106830023D01*
X128917111Y-106785981D01*
X128920102Y-106731724D01*
X128922646Y-106666117D01*
X128924777Y-106588024D01*
X128926532Y-106496310D01*
X128927945Y-106389840D01*
X128928315Y-106348973D01*
X128561884Y-106348973D01*
X127266734Y-106348973D01*
X127291655Y-106311217D01*
X127316447Y-106272417D01*
X127337440Y-106235469D01*
X127354935Y-106197788D01*
X127369230Y-106156788D01*
X127380623Y-106109883D01*
X127389413Y-106054487D01*
X127395898Y-105988016D01*
X127400377Y-105907883D01*
X127403150Y-105811502D01*
X127404513Y-105696289D01*
X127404767Y-105559657D01*
X127404209Y-105399020D01*
X127403893Y-105339382D01*
X127400325Y-104700041D01*
X126995298Y-105251449D01*
X126880554Y-105407876D01*
X126781143Y-105544088D01*
X126695990Y-105661890D01*
X126624022Y-105763084D01*
X126564166Y-105849477D01*
X126515348Y-105922874D01*
X126476495Y-105985077D01*
X126446534Y-106037893D01*
X126424391Y-106083125D01*
X126408993Y-106122578D01*
X126399266Y-106158058D01*
X126394137Y-106191368D01*
X126392532Y-106224313D01*
X126393379Y-106258697D01*
X126393595Y-106263019D01*
X126398054Y-106349031D01*
X124978692Y-106348973D01*
X125084265Y-106242522D01*
X125112913Y-106213406D01*
X125140090Y-106185076D01*
X125166989Y-106155968D01*
X125194803Y-106124520D01*
X125224725Y-106089169D01*
X125257946Y-106048354D01*
X125295661Y-106000511D01*
X125339060Y-105944079D01*
X125389338Y-105877494D01*
X125447688Y-105799195D01*
X125515300Y-105707619D01*
X125593369Y-105601204D01*
X125683088Y-105478387D01*
X125785648Y-105337605D01*
X125902242Y-105177297D01*
X125997809Y-105045798D01*
X126117749Y-104880596D01*
X126222380Y-104736152D01*
X126312648Y-104611094D01*
X126389503Y-104504052D01*
X126453891Y-104413654D01*
X126506761Y-104338529D01*
X126549060Y-104277304D01*
X126581736Y-104228610D01*
X126605738Y-104191074D01*
X126622013Y-104163325D01*
X126631508Y-104143992D01*
X126635173Y-104131703D01*
X126634071Y-104125242D01*
X126620724Y-104108048D01*
X126591866Y-104071655D01*
X126549240Y-104018224D01*
X126494585Y-103949919D01*
X126429644Y-103868903D01*
X126356158Y-103777340D01*
X126275868Y-103677392D01*
X126190515Y-103571224D01*
X126101840Y-103460997D01*
X126011586Y-103348876D01*
X125961944Y-103287244D01*
X124729373Y-103287244D01*
X124678146Y-103379919D01*
X124626919Y-103472595D01*
X124626919Y-106163622D01*
X124678146Y-106256298D01*
X124729373Y-106348973D01*
X124123396Y-106348973D01*
X123978734Y-106348931D01*
X123859244Y-106348741D01*
X123762642Y-106348308D01*
X123686642Y-106347536D01*
X123628957Y-106346330D01*
X123587301Y-106344594D01*
X123559389Y-106342232D01*
X123542935Y-106339150D01*
X123535652Y-106335251D01*
X123535255Y-106330440D01*
X123539458Y-106324622D01*
X123539501Y-106324574D01*
X123556813Y-106299532D01*
X123579736Y-106258815D01*
X123599981Y-106218168D01*
X123638379Y-106136162D01*
X123646211Y-103287244D01*
X124729373Y-103287244D01*
X125961944Y-103287244D01*
X125921493Y-103237024D01*
X125833302Y-103127604D01*
X125748754Y-103022778D01*
X125669592Y-102924711D01*
X125597556Y-102835566D01*
X125534387Y-102757505D01*
X125481827Y-102692692D01*
X125441617Y-102643290D01*
X125418000Y-102614487D01*
X125326290Y-102506778D01*
X125238060Y-102409580D01*
X125156403Y-102326076D01*
X125084410Y-102259448D01*
X125033319Y-102218599D01*
X124972907Y-102175135D01*
X126362298Y-102175135D01*
X126361908Y-102256666D01*
X126365791Y-102316606D01*
X126380390Y-102372177D01*
X126402988Y-102424855D01*
X126417678Y-102454615D01*
X126433472Y-102484103D01*
X126451814Y-102515276D01*
X126474145Y-102550093D01*
X126501909Y-102590510D01*
X126536549Y-102638486D01*
X126579507Y-102695978D01*
X126632227Y-102764943D01*
X126696151Y-102847339D01*
X126772721Y-102945124D01*
X126863381Y-103060255D01*
X126969574Y-103194690D01*
X126981568Y-103209859D01*
X127400325Y-103739412D01*
X127404378Y-103152922D01*
X127405195Y-102977251D01*
X127405021Y-102828532D01*
X127403849Y-102706275D01*
X127401669Y-102609989D01*
X127398474Y-102539183D01*
X127394256Y-102493369D01*
X127392838Y-102484679D01*
X127370591Y-102393135D01*
X127341443Y-102310608D01*
X127308182Y-102244253D01*
X127288200Y-102216110D01*
X127253722Y-102175135D01*
X127907914Y-102175135D01*
X128063969Y-102175269D01*
X128194467Y-102175703D01*
X128301310Y-102176489D01*
X128386398Y-102177676D01*
X128451635Y-102179317D01*
X128498921Y-102181461D01*
X128530157Y-102184159D01*
X128547246Y-102187462D01*
X128552088Y-102191421D01*
X128551753Y-102192298D01*
X128537885Y-102213231D01*
X128514732Y-102246412D01*
X128502754Y-102263193D01*
X128490369Y-102279940D01*
X128479237Y-102294915D01*
X128469288Y-102309594D01*
X128460451Y-102325449D01*
X128452657Y-102343955D01*
X128445835Y-102366585D01*
X128439916Y-102394813D01*
X128434829Y-102430113D01*
X128430504Y-102473958D01*
X128426871Y-102527822D01*
X128423860Y-102593180D01*
X128421401Y-102671504D01*
X128419423Y-102764268D01*
X128417858Y-102872947D01*
X128416634Y-102999013D01*
X128415681Y-103143942D01*
X128414930Y-103309206D01*
X128414311Y-103496279D01*
X128413752Y-103706635D01*
X128413185Y-103941748D01*
X128412655Y-104157741D01*
X128412155Y-104398535D01*
X128411895Y-104628274D01*
X128411868Y-104845493D01*
X128412067Y-105048722D01*
X128412486Y-105236496D01*
X128413118Y-105407345D01*
X128413956Y-105559803D01*
X128414992Y-105692403D01*
X128416220Y-105803676D01*
X128417633Y-105892156D01*
X128419225Y-105956375D01*
X128420987Y-105994865D01*
X128421321Y-105998933D01*
X128433466Y-106092248D01*
X128452427Y-106167190D01*
X128481302Y-106232594D01*
X128523190Y-106297293D01*
X128528429Y-106304352D01*
X128561884Y-106348973D01*
X128928315Y-106348973D01*
X128929054Y-106267479D01*
X128929893Y-106128090D01*
X128930498Y-105970539D01*
X128930905Y-105793691D01*
X128931150Y-105596410D01*
X128931267Y-105377560D01*
X128931295Y-105136007D01*
X128931267Y-104870615D01*
X128931220Y-104580249D01*
X128931190Y-104263773D01*
X128931189Y-104200946D01*
X128931172Y-103881137D01*
X128931112Y-103587661D01*
X128931002Y-103319390D01*
X128930833Y-103075198D01*
X128930597Y-102853957D01*
X128930284Y-102654540D01*
X128929885Y-102475820D01*
X128929393Y-102316671D01*
X128928797Y-102175966D01*
X128928090Y-102052576D01*
X128927263Y-101945376D01*
X128926307Y-101853238D01*
X128925213Y-101775035D01*
X128923973Y-101709641D01*
X128922578Y-101655928D01*
X128921018Y-101612769D01*
X128919286Y-101579037D01*
X128917372Y-101553605D01*
X128915268Y-101535347D01*
X128912966Y-101523134D01*
X128910455Y-101515841D01*
X128910363Y-101515659D01*
X128905192Y-101504518D01*
X128900885Y-101494431D01*
X128896121Y-101485346D01*
X128889578Y-101477212D01*
X128879935Y-101469976D01*
X128865871Y-101463586D01*
X128846063Y-101457989D01*
X128819191Y-101453133D01*
X128783933Y-101448966D01*
X128738968Y-101445436D01*
X128682974Y-101442491D01*
X128614629Y-101440077D01*
X128532614Y-101438144D01*
X128435605Y-101436638D01*
X128322282Y-101435508D01*
X128191323Y-101434702D01*
X128041407Y-101434166D01*
X127871213Y-101433849D01*
X127679418Y-101433699D01*
X127464702Y-101433663D01*
X127225743Y-101433689D01*
X127225743Y-101433689D01*
G37*
X127225743Y-101433689D02*
X126961220Y-101433725D01*
X126838088Y-101433730D01*
X124867189Y-101433730D01*
X124867189Y-101549910D01*
X124854789Y-101691291D01*
X124817364Y-101821684D01*
X124754577Y-101941862D01*
X124666094Y-102052602D01*
X124636157Y-102082511D01*
X124528466Y-102167348D01*
X124409725Y-102229221D01*
X124283460Y-102268159D01*
X124153197Y-102284190D01*
X124022465Y-102277342D01*
X123894788Y-102247643D01*
X123773695Y-102195120D01*
X123662712Y-102119803D01*
X123612868Y-102074363D01*
X123519983Y-101962952D01*
X123451873Y-101840435D01*
X123409129Y-101708215D01*
X123392347Y-101567692D01*
X123392124Y-101553867D01*
X123391244Y-101433734D01*
X123338443Y-101433732D01*
X123291604Y-101440089D01*
X123248817Y-101455556D01*
X123245989Y-101457154D01*
X123236325Y-101462168D01*
X123227451Y-101466073D01*
X123219335Y-101470007D01*
X123211943Y-101475106D01*
X123205245Y-101482508D01*
X123199208Y-101493351D01*
X123193801Y-101508772D01*
X123188990Y-101529909D01*
X123184745Y-101557899D01*
X123181032Y-101593879D01*
X123177821Y-101638987D01*
X123175078Y-101694360D01*
X123172772Y-101761137D01*
X123170871Y-101840453D01*
X123169342Y-101933447D01*
X123168154Y-102041257D01*
X123167274Y-102165019D01*
X123166670Y-102305871D01*
X123166311Y-102464950D01*
X123166165Y-102643395D01*
X123166198Y-102842342D01*
X123166380Y-103062929D01*
X123166677Y-103306293D01*
X123167059Y-103573572D01*
X123167492Y-103865903D01*
X123167945Y-104184424D01*
X123167998Y-104223230D01*
X123168404Y-104543782D01*
X123168749Y-104838012D01*
X123169069Y-105107056D01*
X123169400Y-105352052D01*
X123169779Y-105574137D01*
X123170243Y-105774447D01*
X123170828Y-105954119D01*
X123171570Y-106114290D01*
X123172506Y-106256098D01*
X123173673Y-106380679D01*
X123175107Y-106489170D01*
X123176844Y-106582707D01*
X123178922Y-106662429D01*
X123181376Y-106729472D01*
X123184244Y-106784973D01*
X123187561Y-106830068D01*
X123191364Y-106865895D01*
X123195690Y-106893591D01*
X123200575Y-106914293D01*
X123206055Y-106929137D01*
X123212168Y-106939260D01*
X123218950Y-106945800D01*
X123226437Y-106949893D01*
X123234666Y-106952676D01*
X123243673Y-106955287D01*
X123253495Y-106958862D01*
X123255894Y-106959950D01*
X123263435Y-106962396D01*
X123276056Y-106964642D01*
X123294859Y-106966698D01*
X123320947Y-106968572D01*
X123355422Y-106970271D01*
X123399385Y-106971803D01*
X123453939Y-106973177D01*
X123520185Y-106974400D01*
X123599226Y-106975481D01*
X123692163Y-106976427D01*
X123800099Y-106977247D01*
X123924136Y-106977947D01*
X124065376Y-106978538D01*
X124224921Y-106979025D01*
X124403872Y-106979419D01*
X124603332Y-106979725D01*
X124824404Y-106979953D01*
X125068188Y-106980110D01*
X125335787Y-106980205D01*
X125628303Y-106980245D01*
X125946839Y-106980238D01*
X126050021Y-106980228D01*
X126375623Y-106980176D01*
X126674881Y-106980091D01*
X126948909Y-106979963D01*
X127198824Y-106979785D01*
X127425740Y-106979548D01*
X127630773Y-106979242D01*
X127815038Y-106978860D01*
X127979650Y-106978392D01*
X128125725Y-106977830D01*
X128254376Y-106977165D01*
X128366721Y-106976388D01*
X128463874Y-106975491D01*
X128546950Y-106974465D01*
X128617064Y-106973301D01*
X128675332Y-106971991D01*
X128722869Y-106970525D01*
X128760790Y-106968896D01*
X128790210Y-106967093D01*
X128812245Y-106965110D01*
X128828010Y-106962936D01*
X128838620Y-106960563D01*
X128844404Y-106958391D01*
X128854684Y-106954056D01*
X128864122Y-106950859D01*
X128872755Y-106947665D01*
X128880619Y-106943338D01*
X128887748Y-106936744D01*
X128894179Y-106926747D01*
X128899947Y-106912212D01*
X128905089Y-106892003D01*
X128909640Y-106864985D01*
X128913635Y-106830023D01*
X128917111Y-106785981D01*
X128920102Y-106731724D01*
X128922646Y-106666117D01*
X128924777Y-106588024D01*
X128926532Y-106496310D01*
X128927945Y-106389840D01*
X128928315Y-106348973D01*
X128561884Y-106348973D01*
X127266734Y-106348973D01*
X127291655Y-106311217D01*
X127316447Y-106272417D01*
X127337440Y-106235469D01*
X127354935Y-106197788D01*
X127369230Y-106156788D01*
X127380623Y-106109883D01*
X127389413Y-106054487D01*
X127395898Y-105988016D01*
X127400377Y-105907883D01*
X127403150Y-105811502D01*
X127404513Y-105696289D01*
X127404767Y-105559657D01*
X127404209Y-105399020D01*
X127403893Y-105339382D01*
X127400325Y-104700041D01*
X126995298Y-105251449D01*
X126880554Y-105407876D01*
X126781143Y-105544088D01*
X126695990Y-105661890D01*
X126624022Y-105763084D01*
X126564166Y-105849477D01*
X126515348Y-105922874D01*
X126476495Y-105985077D01*
X126446534Y-106037893D01*
X126424391Y-106083125D01*
X126408993Y-106122578D01*
X126399266Y-106158058D01*
X126394137Y-106191368D01*
X126392532Y-106224313D01*
X126393379Y-106258697D01*
X126393595Y-106263019D01*
X126398054Y-106349031D01*
X124978692Y-106348973D01*
X125084265Y-106242522D01*
X125112913Y-106213406D01*
X125140090Y-106185076D01*
X125166989Y-106155968D01*
X125194803Y-106124520D01*
X125224725Y-106089169D01*
X125257946Y-106048354D01*
X125295661Y-106000511D01*
X125339060Y-105944079D01*
X125389338Y-105877494D01*
X125447688Y-105799195D01*
X125515300Y-105707619D01*
X125593369Y-105601204D01*
X125683088Y-105478387D01*
X125785648Y-105337605D01*
X125902242Y-105177297D01*
X125997809Y-105045798D01*
X126117749Y-104880596D01*
X126222380Y-104736152D01*
X126312648Y-104611094D01*
X126389503Y-104504052D01*
X126453891Y-104413654D01*
X126506761Y-104338529D01*
X126549060Y-104277304D01*
X126581736Y-104228610D01*
X126605738Y-104191074D01*
X126622013Y-104163325D01*
X126631508Y-104143992D01*
X126635173Y-104131703D01*
X126634071Y-104125242D01*
X126620724Y-104108048D01*
X126591866Y-104071655D01*
X126549240Y-104018224D01*
X126494585Y-103949919D01*
X126429644Y-103868903D01*
X126356158Y-103777340D01*
X126275868Y-103677392D01*
X126190515Y-103571224D01*
X126101840Y-103460997D01*
X126011586Y-103348876D01*
X125961944Y-103287244D01*
X124729373Y-103287244D01*
X124678146Y-103379919D01*
X124626919Y-103472595D01*
X124626919Y-106163622D01*
X124678146Y-106256298D01*
X124729373Y-106348973D01*
X124123396Y-106348973D01*
X123978734Y-106348931D01*
X123859244Y-106348741D01*
X123762642Y-106348308D01*
X123686642Y-106347536D01*
X123628957Y-106346330D01*
X123587301Y-106344594D01*
X123559389Y-106342232D01*
X123542935Y-106339150D01*
X123535652Y-106335251D01*
X123535255Y-106330440D01*
X123539458Y-106324622D01*
X123539501Y-106324574D01*
X123556813Y-106299532D01*
X123579736Y-106258815D01*
X123599981Y-106218168D01*
X123638379Y-106136162D01*
X123646211Y-103287244D01*
X124729373Y-103287244D01*
X125961944Y-103287244D01*
X125921493Y-103237024D01*
X125833302Y-103127604D01*
X125748754Y-103022778D01*
X125669592Y-102924711D01*
X125597556Y-102835566D01*
X125534387Y-102757505D01*
X125481827Y-102692692D01*
X125441617Y-102643290D01*
X125418000Y-102614487D01*
X125326290Y-102506778D01*
X125238060Y-102409580D01*
X125156403Y-102326076D01*
X125084410Y-102259448D01*
X125033319Y-102218599D01*
X124972907Y-102175135D01*
X126362298Y-102175135D01*
X126361908Y-102256666D01*
X126365791Y-102316606D01*
X126380390Y-102372177D01*
X126402988Y-102424855D01*
X126417678Y-102454615D01*
X126433472Y-102484103D01*
X126451814Y-102515276D01*
X126474145Y-102550093D01*
X126501909Y-102590510D01*
X126536549Y-102638486D01*
X126579507Y-102695978D01*
X126632227Y-102764943D01*
X126696151Y-102847339D01*
X126772721Y-102945124D01*
X126863381Y-103060255D01*
X126969574Y-103194690D01*
X126981568Y-103209859D01*
X127400325Y-103739412D01*
X127404378Y-103152922D01*
X127405195Y-102977251D01*
X127405021Y-102828532D01*
X127403849Y-102706275D01*
X127401669Y-102609989D01*
X127398474Y-102539183D01*
X127394256Y-102493369D01*
X127392838Y-102484679D01*
X127370591Y-102393135D01*
X127341443Y-102310608D01*
X127308182Y-102244253D01*
X127288200Y-102216110D01*
X127253722Y-102175135D01*
X127907914Y-102175135D01*
X128063969Y-102175269D01*
X128194467Y-102175703D01*
X128301310Y-102176489D01*
X128386398Y-102177676D01*
X128451635Y-102179317D01*
X128498921Y-102181461D01*
X128530157Y-102184159D01*
X128547246Y-102187462D01*
X128552088Y-102191421D01*
X128551753Y-102192298D01*
X128537885Y-102213231D01*
X128514732Y-102246412D01*
X128502754Y-102263193D01*
X128490369Y-102279940D01*
X128479237Y-102294915D01*
X128469288Y-102309594D01*
X128460451Y-102325449D01*
X128452657Y-102343955D01*
X128445835Y-102366585D01*
X128439916Y-102394813D01*
X128434829Y-102430113D01*
X128430504Y-102473958D01*
X128426871Y-102527822D01*
X128423860Y-102593180D01*
X128421401Y-102671504D01*
X128419423Y-102764268D01*
X128417858Y-102872947D01*
X128416634Y-102999013D01*
X128415681Y-103143942D01*
X128414930Y-103309206D01*
X128414311Y-103496279D01*
X128413752Y-103706635D01*
X128413185Y-103941748D01*
X128412655Y-104157741D01*
X128412155Y-104398535D01*
X128411895Y-104628274D01*
X128411868Y-104845493D01*
X128412067Y-105048722D01*
X128412486Y-105236496D01*
X128413118Y-105407345D01*
X128413956Y-105559803D01*
X128414992Y-105692403D01*
X128416220Y-105803676D01*
X128417633Y-105892156D01*
X128419225Y-105956375D01*
X128420987Y-105994865D01*
X128421321Y-105998933D01*
X128433466Y-106092248D01*
X128452427Y-106167190D01*
X128481302Y-106232594D01*
X128523190Y-106297293D01*
X128528429Y-106304352D01*
X128561884Y-106348973D01*
X128928315Y-106348973D01*
X128929054Y-106267479D01*
X128929893Y-106128090D01*
X128930498Y-105970539D01*
X128930905Y-105793691D01*
X128931150Y-105596410D01*
X128931267Y-105377560D01*
X128931295Y-105136007D01*
X128931267Y-104870615D01*
X128931220Y-104580249D01*
X128931190Y-104263773D01*
X128931189Y-104200946D01*
X128931172Y-103881137D01*
X128931112Y-103587661D01*
X128931002Y-103319390D01*
X128930833Y-103075198D01*
X128930597Y-102853957D01*
X128930284Y-102654540D01*
X128929885Y-102475820D01*
X128929393Y-102316671D01*
X128928797Y-102175966D01*
X128928090Y-102052576D01*
X128927263Y-101945376D01*
X128926307Y-101853238D01*
X128925213Y-101775035D01*
X128923973Y-101709641D01*
X128922578Y-101655928D01*
X128921018Y-101612769D01*
X128919286Y-101579037D01*
X128917372Y-101553605D01*
X128915268Y-101535347D01*
X128912966Y-101523134D01*
X128910455Y-101515841D01*
X128910363Y-101515659D01*
X128905192Y-101504518D01*
X128900885Y-101494431D01*
X128896121Y-101485346D01*
X128889578Y-101477212D01*
X128879935Y-101469976D01*
X128865871Y-101463586D01*
X128846063Y-101457989D01*
X128819191Y-101453133D01*
X128783933Y-101448966D01*
X128738968Y-101445436D01*
X128682974Y-101442491D01*
X128614629Y-101440077D01*
X128532614Y-101438144D01*
X128435605Y-101436638D01*
X128322282Y-101435508D01*
X128191323Y-101434702D01*
X128041407Y-101434166D01*
X127871213Y-101433849D01*
X127679418Y-101433699D01*
X127464702Y-101433663D01*
X127225743Y-101433689D01*
D12*
X183035225Y-112605000D02*
X183035225Y-112105000D01*
X182785225Y-112355000D02*
X183285225Y-112355000D01*
X188191000Y-111164000D02*
X188191000Y-110596000D01*
X188151000Y-111398000D02*
X188151000Y-110362000D01*
X188111000Y-111557000D02*
X188111000Y-110203000D01*
X188071000Y-111685000D02*
X188071000Y-110075000D01*
X188031000Y-111795000D02*
X188031000Y-109965000D01*
X187991000Y-111891000D02*
X187991000Y-109869000D01*
X187951000Y-111978000D02*
X187951000Y-109782000D01*
X187911000Y-112058000D02*
X187911000Y-109702000D01*
X187871000Y-109840000D02*
X187871000Y-109629000D01*
X187871000Y-112131000D02*
X187871000Y-111920000D01*
X187831000Y-109840000D02*
X187831000Y-109561000D01*
X187831000Y-112199000D02*
X187831000Y-111920000D01*
X187791000Y-109840000D02*
X187791000Y-109497000D01*
X187791000Y-112263000D02*
X187791000Y-111920000D01*
X187751000Y-109840000D02*
X187751000Y-109437000D01*
X187751000Y-112323000D02*
X187751000Y-111920000D01*
X187711000Y-109840000D02*
X187711000Y-109380000D01*
X187711000Y-112380000D02*
X187711000Y-111920000D01*
X187671000Y-109840000D02*
X187671000Y-109326000D01*
X187671000Y-112434000D02*
X187671000Y-111920000D01*
X187631000Y-109840000D02*
X187631000Y-109275000D01*
X187631000Y-112485000D02*
X187631000Y-111920000D01*
X187591000Y-109840000D02*
X187591000Y-109227000D01*
X187591000Y-112533000D02*
X187591000Y-111920000D01*
X187551000Y-109840000D02*
X187551000Y-109181000D01*
X187551000Y-112579000D02*
X187551000Y-111920000D01*
X187511000Y-109840000D02*
X187511000Y-109137000D01*
X187511000Y-112623000D02*
X187511000Y-111920000D01*
X187471000Y-109840000D02*
X187471000Y-109095000D01*
X187471000Y-112665000D02*
X187471000Y-111920000D01*
X187431000Y-109840000D02*
X187431000Y-109054000D01*
X187431000Y-112706000D02*
X187431000Y-111920000D01*
X187391000Y-109840000D02*
X187391000Y-109016000D01*
X187391000Y-112744000D02*
X187391000Y-111920000D01*
X187351000Y-109840000D02*
X187351000Y-108979000D01*
X187351000Y-112781000D02*
X187351000Y-111920000D01*
X187311000Y-109840000D02*
X187311000Y-108943000D01*
X187311000Y-112817000D02*
X187311000Y-111920000D01*
X187271000Y-109840000D02*
X187271000Y-108909000D01*
X187271000Y-112851000D02*
X187271000Y-111920000D01*
X187231000Y-109840000D02*
X187231000Y-108876000D01*
X187231000Y-112884000D02*
X187231000Y-111920000D01*
X187191000Y-109840000D02*
X187191000Y-108845000D01*
X187191000Y-112915000D02*
X187191000Y-111920000D01*
X187151000Y-109840000D02*
X187151000Y-108815000D01*
X187151000Y-112945000D02*
X187151000Y-111920000D01*
X187111000Y-109840000D02*
X187111000Y-108785000D01*
X187111000Y-112975000D02*
X187111000Y-111920000D01*
X187071000Y-109840000D02*
X187071000Y-108758000D01*
X187071000Y-113002000D02*
X187071000Y-111920000D01*
X187031000Y-109840000D02*
X187031000Y-108731000D01*
X187031000Y-113029000D02*
X187031000Y-111920000D01*
X186991000Y-109840000D02*
X186991000Y-108705000D01*
X186991000Y-113055000D02*
X186991000Y-111920000D01*
X186951000Y-109840000D02*
X186951000Y-108680000D01*
X186951000Y-113080000D02*
X186951000Y-111920000D01*
X186911000Y-109840000D02*
X186911000Y-108656000D01*
X186911000Y-113104000D02*
X186911000Y-111920000D01*
X186871000Y-109840000D02*
X186871000Y-108633000D01*
X186871000Y-113127000D02*
X186871000Y-111920000D01*
X186831000Y-109840000D02*
X186831000Y-108612000D01*
X186831000Y-113148000D02*
X186831000Y-111920000D01*
X186791000Y-109840000D02*
X186791000Y-108590000D01*
X186791000Y-113170000D02*
X186791000Y-111920000D01*
X186751000Y-109840000D02*
X186751000Y-108570000D01*
X186751000Y-113190000D02*
X186751000Y-111920000D01*
X186711000Y-109840000D02*
X186711000Y-108551000D01*
X186711000Y-113209000D02*
X186711000Y-111920000D01*
X186671000Y-109840000D02*
X186671000Y-108532000D01*
X186671000Y-113228000D02*
X186671000Y-111920000D01*
X186631000Y-109840000D02*
X186631000Y-108515000D01*
X186631000Y-113245000D02*
X186631000Y-111920000D01*
X186591000Y-109840000D02*
X186591000Y-108498000D01*
X186591000Y-113262000D02*
X186591000Y-111920000D01*
X186551000Y-109840000D02*
X186551000Y-108482000D01*
X186551000Y-113278000D02*
X186551000Y-111920000D01*
X186511000Y-109840000D02*
X186511000Y-108466000D01*
X186511000Y-113294000D02*
X186511000Y-111920000D01*
X186471000Y-109840000D02*
X186471000Y-108452000D01*
X186471000Y-113308000D02*
X186471000Y-111920000D01*
X186431000Y-109840000D02*
X186431000Y-108438000D01*
X186431000Y-113322000D02*
X186431000Y-111920000D01*
X186391000Y-109840000D02*
X186391000Y-108425000D01*
X186391000Y-113335000D02*
X186391000Y-111920000D01*
X186351000Y-109840000D02*
X186351000Y-108412000D01*
X186351000Y-113348000D02*
X186351000Y-111920000D01*
X186311000Y-109840000D02*
X186311000Y-108400000D01*
X186311000Y-113360000D02*
X186311000Y-111920000D01*
X186270000Y-109840000D02*
X186270000Y-108389000D01*
X186270000Y-113371000D02*
X186270000Y-111920000D01*
X186230000Y-109840000D02*
X186230000Y-108379000D01*
X186230000Y-113381000D02*
X186230000Y-111920000D01*
X186190000Y-109840000D02*
X186190000Y-108369000D01*
X186190000Y-113391000D02*
X186190000Y-111920000D01*
X186150000Y-109840000D02*
X186150000Y-108360000D01*
X186150000Y-113400000D02*
X186150000Y-111920000D01*
X186110000Y-109840000D02*
X186110000Y-108352000D01*
X186110000Y-113408000D02*
X186110000Y-111920000D01*
X186070000Y-109840000D02*
X186070000Y-108344000D01*
X186070000Y-113416000D02*
X186070000Y-111920000D01*
X186030000Y-109840000D02*
X186030000Y-108337000D01*
X186030000Y-113423000D02*
X186030000Y-111920000D01*
X185990000Y-109840000D02*
X185990000Y-108330000D01*
X185990000Y-113430000D02*
X185990000Y-111920000D01*
X185950000Y-109840000D02*
X185950000Y-108324000D01*
X185950000Y-113436000D02*
X185950000Y-111920000D01*
X185910000Y-109840000D02*
X185910000Y-108319000D01*
X185910000Y-113441000D02*
X185910000Y-111920000D01*
X185870000Y-109840000D02*
X185870000Y-108315000D01*
X185870000Y-113445000D02*
X185870000Y-111920000D01*
X185830000Y-109840000D02*
X185830000Y-108311000D01*
X185830000Y-113449000D02*
X185830000Y-111920000D01*
X185790000Y-113453000D02*
X185790000Y-108307000D01*
X185750000Y-113456000D02*
X185750000Y-108304000D01*
X185710000Y-113458000D02*
X185710000Y-108302000D01*
X185670000Y-113459000D02*
X185670000Y-108301000D01*
X185630000Y-113460000D02*
X185630000Y-108300000D01*
X185590000Y-113460000D02*
X185590000Y-108300000D01*
X188210000Y-110880000D02*
G75*
G03X188210000Y-110880000I-2620000J0D01*
G01*
X188454775Y-96975000D02*
X188454775Y-97475000D01*
X188704775Y-97225000D02*
X188204775Y-97225000D01*
X183299000Y-98416000D02*
X183299000Y-98984000D01*
X183339000Y-98182000D02*
X183339000Y-99218000D01*
X183379000Y-98023000D02*
X183379000Y-99377000D01*
X183419000Y-97895000D02*
X183419000Y-99505000D01*
X183459000Y-97785000D02*
X183459000Y-99615000D01*
X183499000Y-97689000D02*
X183499000Y-99711000D01*
X183539000Y-97602000D02*
X183539000Y-99798000D01*
X183579000Y-97522000D02*
X183579000Y-99878000D01*
X183619000Y-99740000D02*
X183619000Y-99951000D01*
X183619000Y-97449000D02*
X183619000Y-97660000D01*
X183659000Y-99740000D02*
X183659000Y-100019000D01*
X183659000Y-97381000D02*
X183659000Y-97660000D01*
X183699000Y-99740000D02*
X183699000Y-100083000D01*
X183699000Y-97317000D02*
X183699000Y-97660000D01*
X183739000Y-99740000D02*
X183739000Y-100143000D01*
X183739000Y-97257000D02*
X183739000Y-97660000D01*
X183779000Y-99740000D02*
X183779000Y-100200000D01*
X183779000Y-97200000D02*
X183779000Y-97660000D01*
X183819000Y-99740000D02*
X183819000Y-100254000D01*
X183819000Y-97146000D02*
X183819000Y-97660000D01*
X183859000Y-99740000D02*
X183859000Y-100305000D01*
X183859000Y-97095000D02*
X183859000Y-97660000D01*
X183899000Y-99740000D02*
X183899000Y-100353000D01*
X183899000Y-97047000D02*
X183899000Y-97660000D01*
X183939000Y-99740000D02*
X183939000Y-100399000D01*
X183939000Y-97001000D02*
X183939000Y-97660000D01*
X183979000Y-99740000D02*
X183979000Y-100443000D01*
X183979000Y-96957000D02*
X183979000Y-97660000D01*
X184019000Y-99740000D02*
X184019000Y-100485000D01*
X184019000Y-96915000D02*
X184019000Y-97660000D01*
X184059000Y-99740000D02*
X184059000Y-100526000D01*
X184059000Y-96874000D02*
X184059000Y-97660000D01*
X184099000Y-99740000D02*
X184099000Y-100564000D01*
X184099000Y-96836000D02*
X184099000Y-97660000D01*
X184139000Y-99740000D02*
X184139000Y-100601000D01*
X184139000Y-96799000D02*
X184139000Y-97660000D01*
X184179000Y-99740000D02*
X184179000Y-100637000D01*
X184179000Y-96763000D02*
X184179000Y-97660000D01*
X184219000Y-99740000D02*
X184219000Y-100671000D01*
X184219000Y-96729000D02*
X184219000Y-97660000D01*
X184259000Y-99740000D02*
X184259000Y-100704000D01*
X184259000Y-96696000D02*
X184259000Y-97660000D01*
X184299000Y-99740000D02*
X184299000Y-100735000D01*
X184299000Y-96665000D02*
X184299000Y-97660000D01*
X184339000Y-99740000D02*
X184339000Y-100765000D01*
X184339000Y-96635000D02*
X184339000Y-97660000D01*
X184379000Y-99740000D02*
X184379000Y-100795000D01*
X184379000Y-96605000D02*
X184379000Y-97660000D01*
X184419000Y-99740000D02*
X184419000Y-100822000D01*
X184419000Y-96578000D02*
X184419000Y-97660000D01*
X184459000Y-99740000D02*
X184459000Y-100849000D01*
X184459000Y-96551000D02*
X184459000Y-97660000D01*
X184499000Y-99740000D02*
X184499000Y-100875000D01*
X184499000Y-96525000D02*
X184499000Y-97660000D01*
X184539000Y-99740000D02*
X184539000Y-100900000D01*
X184539000Y-96500000D02*
X184539000Y-97660000D01*
X184579000Y-99740000D02*
X184579000Y-100924000D01*
X184579000Y-96476000D02*
X184579000Y-97660000D01*
X184619000Y-99740000D02*
X184619000Y-100947000D01*
X184619000Y-96453000D02*
X184619000Y-97660000D01*
X184659000Y-99740000D02*
X184659000Y-100968000D01*
X184659000Y-96432000D02*
X184659000Y-97660000D01*
X184699000Y-99740000D02*
X184699000Y-100990000D01*
X184699000Y-96410000D02*
X184699000Y-97660000D01*
X184739000Y-99740000D02*
X184739000Y-101010000D01*
X184739000Y-96390000D02*
X184739000Y-97660000D01*
X184779000Y-99740000D02*
X184779000Y-101029000D01*
X184779000Y-96371000D02*
X184779000Y-97660000D01*
X184819000Y-99740000D02*
X184819000Y-101048000D01*
X184819000Y-96352000D02*
X184819000Y-97660000D01*
X184859000Y-99740000D02*
X184859000Y-101065000D01*
X184859000Y-96335000D02*
X184859000Y-97660000D01*
X184899000Y-99740000D02*
X184899000Y-101082000D01*
X184899000Y-96318000D02*
X184899000Y-97660000D01*
X184939000Y-99740000D02*
X184939000Y-101098000D01*
X184939000Y-96302000D02*
X184939000Y-97660000D01*
X184979000Y-99740000D02*
X184979000Y-101114000D01*
X184979000Y-96286000D02*
X184979000Y-97660000D01*
X185019000Y-99740000D02*
X185019000Y-101128000D01*
X185019000Y-96272000D02*
X185019000Y-97660000D01*
X185059000Y-99740000D02*
X185059000Y-101142000D01*
X185059000Y-96258000D02*
X185059000Y-97660000D01*
X185099000Y-99740000D02*
X185099000Y-101155000D01*
X185099000Y-96245000D02*
X185099000Y-97660000D01*
X185139000Y-99740000D02*
X185139000Y-101168000D01*
X185139000Y-96232000D02*
X185139000Y-97660000D01*
X185179000Y-99740000D02*
X185179000Y-101180000D01*
X185179000Y-96220000D02*
X185179000Y-97660000D01*
X185220000Y-99740000D02*
X185220000Y-101191000D01*
X185220000Y-96209000D02*
X185220000Y-97660000D01*
X185260000Y-99740000D02*
X185260000Y-101201000D01*
X185260000Y-96199000D02*
X185260000Y-97660000D01*
X185300000Y-99740000D02*
X185300000Y-101211000D01*
X185300000Y-96189000D02*
X185300000Y-97660000D01*
X185340000Y-99740000D02*
X185340000Y-101220000D01*
X185340000Y-96180000D02*
X185340000Y-97660000D01*
X185380000Y-99740000D02*
X185380000Y-101228000D01*
X185380000Y-96172000D02*
X185380000Y-97660000D01*
X185420000Y-99740000D02*
X185420000Y-101236000D01*
X185420000Y-96164000D02*
X185420000Y-97660000D01*
X185460000Y-99740000D02*
X185460000Y-101243000D01*
X185460000Y-96157000D02*
X185460000Y-97660000D01*
X185500000Y-99740000D02*
X185500000Y-101250000D01*
X185500000Y-96150000D02*
X185500000Y-97660000D01*
X185540000Y-99740000D02*
X185540000Y-101256000D01*
X185540000Y-96144000D02*
X185540000Y-97660000D01*
X185580000Y-99740000D02*
X185580000Y-101261000D01*
X185580000Y-96139000D02*
X185580000Y-97660000D01*
X185620000Y-99740000D02*
X185620000Y-101265000D01*
X185620000Y-96135000D02*
X185620000Y-97660000D01*
X185660000Y-99740000D02*
X185660000Y-101269000D01*
X185660000Y-96131000D02*
X185660000Y-97660000D01*
X185700000Y-96127000D02*
X185700000Y-101273000D01*
X185740000Y-96124000D02*
X185740000Y-101276000D01*
X185780000Y-96122000D02*
X185780000Y-101278000D01*
X185820000Y-96121000D02*
X185820000Y-101279000D01*
X185860000Y-96120000D02*
X185860000Y-101280000D01*
X185900000Y-96120000D02*
X185900000Y-101280000D01*
X188520000Y-98700000D02*
G75*
G03X188520000Y-98700000I-2620000J0D01*
G01*
X142614000Y-99508000D02*
X142614000Y-109788000D01*
X132214000Y-99508000D02*
X142614000Y-99508000D01*
X132214000Y-109788000D02*
X132214000Y-99508000D01*
X142614000Y-109788000D02*
X132214000Y-109788000D01*
X142554000Y-101998000D02*
X142554000Y-103648000D01*
X132274000Y-101998000D02*
X142554000Y-101998000D01*
X132274000Y-107298000D02*
X132274000Y-101998000D01*
X142554000Y-107298000D02*
X132274000Y-107298000D01*
X142554000Y-105648000D02*
X142554000Y-107298000D01*
X142554000Y-103648000D02*
G75*
G03X142554000Y-105648000I0J-1000000D01*
G01*
D13*
X195021000Y-111031000D02*
X195656000Y-110396000D01*
X190576000Y-110396000D02*
X191211000Y-111031000D01*
X191211000Y-111031000D02*
X195021000Y-111031000D01*
D14*
X182155000Y-111037857D02*
X182190714Y-111073571D01*
X182297857Y-111109285D01*
X182369285Y-111109285D01*
X182476428Y-111073571D01*
X182547857Y-111002142D01*
X182583571Y-110930714D01*
X182619285Y-110787857D01*
X182619285Y-110680714D01*
X182583571Y-110537857D01*
X182547857Y-110466428D01*
X182476428Y-110395000D01*
X182369285Y-110359285D01*
X182297857Y-110359285D01*
X182190714Y-110395000D01*
X182155000Y-110430714D01*
X181869285Y-110430714D02*
X181833571Y-110395000D01*
X181762142Y-110359285D01*
X181583571Y-110359285D01*
X181512142Y-110395000D01*
X181476428Y-110430714D01*
X181440714Y-110502142D01*
X181440714Y-110573571D01*
X181476428Y-110680714D01*
X181905000Y-111109285D01*
X181440714Y-111109285D01*
X183465000Y-101647857D02*
X183500714Y-101683571D01*
X183607857Y-101719285D01*
X183679285Y-101719285D01*
X183786428Y-101683571D01*
X183857857Y-101612142D01*
X183893571Y-101540714D01*
X183929285Y-101397857D01*
X183929285Y-101290714D01*
X183893571Y-101147857D01*
X183857857Y-101076428D01*
X183786428Y-101005000D01*
X183679285Y-100969285D01*
X183607857Y-100969285D01*
X183500714Y-101005000D01*
X183465000Y-101040714D01*
X182750714Y-101719285D02*
X183179285Y-101719285D01*
X182965000Y-101719285D02*
X182965000Y-100969285D01*
X183036428Y-101076428D01*
X183107857Y-101147857D01*
X183179285Y-101183571D01*
D15*
X139965801Y-104182549D02*
X139965801Y-103422549D01*
X139169611Y-104110168D02*
X139205801Y-104146359D01*
X139314373Y-104182549D01*
X139386754Y-104182549D01*
X139495325Y-104146359D01*
X139567706Y-104073978D01*
X139603897Y-104001597D01*
X139640087Y-103856835D01*
X139640087Y-103748263D01*
X139603897Y-103603501D01*
X139567706Y-103531120D01*
X139495325Y-103458740D01*
X139386754Y-103422549D01*
X139314373Y-103422549D01*
X139205801Y-103458740D01*
X139169611Y-103494930D01*
X138445801Y-104182549D02*
X138880087Y-104182549D01*
X138662944Y-104182549D02*
X138662944Y-103422549D01*
X138735325Y-103531120D01*
X138807706Y-103603501D01*
X138880087Y-103639692D01*
D16*
X193850550Y-97738292D02*
X194212500Y-97221221D01*
X194471036Y-97738292D02*
X194471036Y-96652442D01*
X194057378Y-96652442D01*
X193953964Y-96704150D01*
X193902257Y-96755857D01*
X193850550Y-96859271D01*
X193850550Y-97014392D01*
X193902257Y-97117807D01*
X193953964Y-97169514D01*
X194057378Y-97221221D01*
X194471036Y-97221221D01*
X193385186Y-97169514D02*
X193023236Y-97169514D01*
X192868114Y-97738292D02*
X193385186Y-97738292D01*
X193385186Y-96652442D01*
X192868114Y-96652442D01*
X192402750Y-97738292D02*
X192402750Y-96652442D01*
X192144214Y-96652442D01*
X191989093Y-96704150D01*
X191885678Y-96807564D01*
X191833971Y-96910978D01*
X191782264Y-97117807D01*
X191782264Y-97272928D01*
X191833971Y-97479757D01*
X191885678Y-97583171D01*
X191989093Y-97686585D01*
X192144214Y-97738292D01*
X192402750Y-97738292D01*
D17*
X194998228Y-112509683D02*
X194998228Y-111665133D01*
X194676494Y-111665133D01*
X194596061Y-111705350D01*
X194555844Y-111745566D01*
X194515628Y-111826000D01*
X194515628Y-111946650D01*
X194555844Y-112027083D01*
X194596061Y-112067300D01*
X194676494Y-112107516D01*
X194998228Y-112107516D01*
X193992811Y-111665133D02*
X193831944Y-111665133D01*
X193751511Y-111705350D01*
X193671078Y-111785783D01*
X193630861Y-111946650D01*
X193630861Y-112228166D01*
X193671078Y-112389033D01*
X193751511Y-112469466D01*
X193831944Y-112509683D01*
X193992811Y-112509683D01*
X194073244Y-112469466D01*
X194153678Y-112389033D01*
X194193894Y-112228166D01*
X194193894Y-111946650D01*
X194153678Y-111785783D01*
X194073244Y-111705350D01*
X193992811Y-111665133D01*
X193349344Y-111665133D02*
X193148261Y-112509683D01*
X192987394Y-111906433D01*
X192826528Y-112509683D01*
X192625444Y-111665133D01*
X192303711Y-112067300D02*
X192022194Y-112067300D01*
X191901544Y-112509683D02*
X192303711Y-112509683D01*
X192303711Y-111665133D01*
X191901544Y-111665133D01*
X191056994Y-112509683D02*
X191338511Y-112107516D01*
X191539594Y-112509683D02*
X191539594Y-111665133D01*
X191217861Y-111665133D01*
X191137428Y-111705350D01*
X191097211Y-111745566D01*
X191056994Y-111826000D01*
X191056994Y-111946650D01*
X191097211Y-112027083D01*
X191137428Y-112067300D01*
X191217861Y-112107516D01*
X191539594Y-112107516D01*
M02*
