G04 #@! TF.GenerationSoftware,KiCad,Pcbnew,5.1.4-e60b266~84~ubuntu18.04.1*
G04 #@! TF.CreationDate,2019-10-14T20:54:47+01:00*
G04 #@! TF.ProjectId,vcsk,7663736b-2e6b-4696-9361-645f70636258,rev?*
G04 #@! TF.SameCoordinates,Original*
G04 #@! TF.FileFunction,Copper,L1,Top*
G04 #@! TF.FilePolarity,Positive*
%FSLAX46Y46*%
G04 Gerber Fmt 4.6, Leading zero omitted, Abs format (unit mm)*
G04 Created by KiCad (PCBNEW 5.1.4-e60b266~84~ubuntu18.04.1) date 2019-10-14 20:54:47*
%MOMM*%
%LPD*%
G04 APERTURE LIST*
%ADD10C,1.150000*%
%ADD11C,0.100000*%
%ADD12C,1.600000*%
%ADD13R,1.600000X1.600000*%
%ADD14O,1.600000X1.600000*%
%ADD15C,2.000000*%
%ADD16C,1.320800*%
%ADD17C,1.650000*%
%ADD18C,2.794000*%
%ADD19R,1.650000X1.650000*%
%ADD20C,1.879600*%
%ADD21C,0.250000*%
G04 APERTURE END LIST*
D10*
X117363000Y-112202000D03*
X118003000Y-97202000D03*
X112923000Y-97202000D03*
D11*
G36*
X113878680Y-111628384D02*
G01*
X113906588Y-111632524D01*
X113933957Y-111639380D01*
X113960521Y-111648885D01*
X113986027Y-111660948D01*
X114010226Y-111675452D01*
X114032888Y-111692259D01*
X114053793Y-111711207D01*
X114072741Y-111732112D01*
X114089548Y-111754774D01*
X114104052Y-111778973D01*
X114116115Y-111804479D01*
X114125620Y-111831043D01*
X114132476Y-111858412D01*
X114136616Y-111886320D01*
X114138000Y-111914500D01*
X114138000Y-112489500D01*
X114136616Y-112517680D01*
X114132476Y-112545588D01*
X114125620Y-112572957D01*
X114116115Y-112599521D01*
X114104052Y-112625027D01*
X114089548Y-112649226D01*
X114072741Y-112671888D01*
X114053793Y-112692793D01*
X114032888Y-112711741D01*
X114010226Y-112728548D01*
X113986027Y-112743052D01*
X113960521Y-112755115D01*
X113933957Y-112764620D01*
X113906588Y-112771476D01*
X113878680Y-112775616D01*
X113850500Y-112777000D01*
X113275500Y-112777000D01*
X113247320Y-112775616D01*
X113219412Y-112771476D01*
X113192043Y-112764620D01*
X113165479Y-112755115D01*
X113139973Y-112743052D01*
X113115774Y-112728548D01*
X113093112Y-112711741D01*
X113072207Y-112692793D01*
X113053259Y-112671888D01*
X113036452Y-112649226D01*
X113021948Y-112625027D01*
X113009885Y-112599521D01*
X113000380Y-112572957D01*
X112993524Y-112545588D01*
X112989384Y-112517680D01*
X112988000Y-112489500D01*
X112988000Y-111914500D01*
X112989384Y-111886320D01*
X112993524Y-111858412D01*
X113000380Y-111831043D01*
X113009885Y-111804479D01*
X113021948Y-111778973D01*
X113036452Y-111754774D01*
X113053259Y-111732112D01*
X113072207Y-111711207D01*
X113093112Y-111692259D01*
X113115774Y-111675452D01*
X113139973Y-111660948D01*
X113165479Y-111648885D01*
X113192043Y-111639380D01*
X113219412Y-111632524D01*
X113247320Y-111628384D01*
X113275500Y-111627000D01*
X113850500Y-111627000D01*
X113878680Y-111628384D01*
X113878680Y-111628384D01*
G37*
D10*
X113563000Y-112202000D03*
X128351000Y-112126000D03*
X128991000Y-97126000D03*
X123911000Y-97126000D03*
D11*
G36*
X124866680Y-111552384D02*
G01*
X124894588Y-111556524D01*
X124921957Y-111563380D01*
X124948521Y-111572885D01*
X124974027Y-111584948D01*
X124998226Y-111599452D01*
X125020888Y-111616259D01*
X125041793Y-111635207D01*
X125060741Y-111656112D01*
X125077548Y-111678774D01*
X125092052Y-111702973D01*
X125104115Y-111728479D01*
X125113620Y-111755043D01*
X125120476Y-111782412D01*
X125124616Y-111810320D01*
X125126000Y-111838500D01*
X125126000Y-112413500D01*
X125124616Y-112441680D01*
X125120476Y-112469588D01*
X125113620Y-112496957D01*
X125104115Y-112523521D01*
X125092052Y-112549027D01*
X125077548Y-112573226D01*
X125060741Y-112595888D01*
X125041793Y-112616793D01*
X125020888Y-112635741D01*
X124998226Y-112652548D01*
X124974027Y-112667052D01*
X124948521Y-112679115D01*
X124921957Y-112688620D01*
X124894588Y-112695476D01*
X124866680Y-112699616D01*
X124838500Y-112701000D01*
X124263500Y-112701000D01*
X124235320Y-112699616D01*
X124207412Y-112695476D01*
X124180043Y-112688620D01*
X124153479Y-112679115D01*
X124127973Y-112667052D01*
X124103774Y-112652548D01*
X124081112Y-112635741D01*
X124060207Y-112616793D01*
X124041259Y-112595888D01*
X124024452Y-112573226D01*
X124009948Y-112549027D01*
X123997885Y-112523521D01*
X123988380Y-112496957D01*
X123981524Y-112469588D01*
X123977384Y-112441680D01*
X123976000Y-112413500D01*
X123976000Y-111838500D01*
X123977384Y-111810320D01*
X123981524Y-111782412D01*
X123988380Y-111755043D01*
X123997885Y-111728479D01*
X124009948Y-111702973D01*
X124024452Y-111678774D01*
X124041259Y-111656112D01*
X124060207Y-111635207D01*
X124081112Y-111616259D01*
X124103774Y-111599452D01*
X124127973Y-111584948D01*
X124153479Y-111572885D01*
X124180043Y-111563380D01*
X124207412Y-111556524D01*
X124235320Y-111552384D01*
X124263500Y-111551000D01*
X124838500Y-111551000D01*
X124866680Y-111552384D01*
X124866680Y-111552384D01*
G37*
D10*
X124551000Y-112126000D03*
D12*
X186840000Y-110880000D03*
D13*
X184340000Y-110880000D03*
D12*
X184650000Y-98700000D03*
D13*
X187150000Y-98700000D03*
D12*
X140716000Y-97536000D03*
X143216000Y-97536000D03*
D14*
X122428000Y-111760000D03*
D12*
X119888000Y-111760000D03*
X134874000Y-111760000D03*
D14*
X132334000Y-111760000D03*
X141224000Y-100838000D03*
X133604000Y-108458000D03*
X138684000Y-100838000D03*
X136144000Y-108458000D03*
X136144000Y-100838000D03*
X138684000Y-108458000D03*
X133604000Y-100838000D03*
D13*
X141224000Y-108458000D03*
D14*
X177800000Y-112014000D03*
D12*
X175260000Y-112014000D03*
D14*
X180594000Y-97790000D03*
D12*
X178054000Y-97790000D03*
D14*
X108110000Y-112398000D03*
D12*
X110650000Y-112398000D03*
D14*
X157582000Y-97673200D03*
D12*
X160122000Y-97673200D03*
D15*
X131906000Y-97536000D03*
X136906000Y-97536000D03*
X155340000Y-111846000D03*
X160340000Y-111846000D03*
D12*
X138856000Y-111872000D03*
X141356000Y-111872000D03*
X144742000Y-103469000D03*
X144742000Y-105969000D03*
X167934000Y-112014000D03*
X170434000Y-112014000D03*
X172240000Y-97740000D03*
X169740000Y-97740000D03*
D16*
X185410000Y-102640000D03*
X187950000Y-102640000D03*
X185510000Y-106750000D03*
X188050000Y-106750000D03*
D17*
X105486000Y-98181000D03*
X105486000Y-101181000D03*
X105486000Y-109681000D03*
D18*
X164541000Y-100181000D03*
X164541000Y-109181000D03*
D17*
X157541000Y-107181000D03*
X157541000Y-104681000D03*
D19*
X157541000Y-102181000D03*
D17*
X151206000Y-111181000D03*
X151206000Y-108181000D03*
X151206000Y-99681000D03*
X184376000Y-104681000D03*
X181376000Y-104681000D03*
X172876000Y-104681000D03*
D20*
X191719000Y-109761000D03*
X191973000Y-107221000D03*
X191719000Y-104681000D03*
X191973000Y-102141000D03*
X191719000Y-99601000D03*
X194259000Y-109761000D03*
X194513000Y-107221000D03*
X194259000Y-104681000D03*
X194513000Y-102141000D03*
X194259000Y-99601000D03*
D21*
X124551000Y-112126000D02*
X123572600Y-113104400D01*
X123572600Y-113104400D02*
X114465400Y-113104400D01*
X114465400Y-113104400D02*
X113563000Y-112202000D01*
X144742000Y-111181000D02*
X142047000Y-111181000D01*
X142047000Y-111181000D02*
X141356000Y-111872000D01*
X151206000Y-111181000D02*
X144742000Y-111181000D01*
X144742000Y-111181000D02*
X144742000Y-105969000D01*
X192989000Y-104681000D02*
X191719000Y-104681000D01*
X194259000Y-104681000D02*
X192989000Y-104681000D01*
X192989000Y-107221000D02*
X191973000Y-107221000D01*
X194513000Y-107221000D02*
X192989000Y-107221000D01*
X192989000Y-104681000D02*
X192989000Y-107221000D01*
X184650000Y-98700000D02*
X184384900Y-98965100D01*
X184384900Y-98965100D02*
X173465100Y-98965100D01*
X173465100Y-98965100D02*
X172240000Y-97740000D01*
X185510000Y-106750000D02*
X184340000Y-107920000D01*
X184340000Y-107920000D02*
X184340000Y-110880000D01*
X144742000Y-105969000D02*
X143216000Y-104443000D01*
X143216000Y-104443000D02*
X143216000Y-97536000D01*
X167934000Y-112014000D02*
X169059300Y-110888700D01*
X169059300Y-110888700D02*
X177800000Y-110888700D01*
X167934000Y-112014000D02*
X163774700Y-112014000D01*
X163774700Y-112014000D02*
X161791300Y-110030600D01*
X161791300Y-110030600D02*
X153055600Y-110030600D01*
X153055600Y-110030600D02*
X151206000Y-108181000D01*
X185410000Y-102640000D02*
X184722000Y-102640000D01*
X184722000Y-102640000D02*
X183214600Y-104147400D01*
X183214600Y-104147400D02*
X183214600Y-105474100D01*
X183214600Y-105474100D02*
X177800000Y-110888700D01*
X185410000Y-102640000D02*
X185410000Y-101565300D01*
X185410000Y-101565300D02*
X187150000Y-99825300D01*
X177800000Y-112014000D02*
X177800000Y-110888700D01*
X187150000Y-98700000D02*
X187150000Y-99825300D01*
X180594000Y-97790000D02*
X179468700Y-97790000D01*
X169740000Y-97740000D02*
X170885200Y-96594800D01*
X170885200Y-96594800D02*
X178554800Y-96594800D01*
X178554800Y-96594800D02*
X179468700Y-97508700D01*
X179468700Y-97508700D02*
X179468700Y-97790000D01*
X144742000Y-103469000D02*
X164011000Y-103469000D01*
X164011000Y-103469000D02*
X169740000Y-97740000D01*
X138684000Y-108458000D02*
X137558700Y-108458000D01*
X133604000Y-100838000D02*
X133604000Y-101963300D01*
X133604000Y-101963300D02*
X134729300Y-103088600D01*
X134729300Y-103088600D02*
X134729300Y-108640800D01*
X134729300Y-108640800D02*
X135671800Y-109583300D01*
X135671800Y-109583300D02*
X136714800Y-109583300D01*
X136714800Y-109583300D02*
X137558700Y-108739400D01*
X137558700Y-108739400D02*
X137558700Y-108458000D01*
X131906000Y-97536000D02*
X133604000Y-99234000D01*
X133604000Y-99234000D02*
X133604000Y-100838000D01*
X141224000Y-108458000D02*
X138684000Y-108458000D01*
X136144000Y-100838000D02*
X138684000Y-100838000D01*
X128991000Y-106253000D02*
X126809700Y-106253000D01*
X126809700Y-106253000D02*
X122428000Y-110634700D01*
X134874000Y-111760000D02*
X129367000Y-106253000D01*
X129367000Y-106253000D02*
X128991000Y-106253000D01*
X128991000Y-106253000D02*
X128991000Y-97126000D01*
X122428000Y-111760000D02*
X122428000Y-110634700D01*
X194259000Y-109761000D02*
X191719000Y-109761000D01*
X132334000Y-111760000D02*
X133459300Y-111760000D01*
X155340000Y-111846000D02*
X154179200Y-113006800D01*
X154179200Y-113006800D02*
X134424800Y-113006800D01*
X134424800Y-113006800D02*
X133459300Y-112041300D01*
X133459300Y-112041300D02*
X133459300Y-111760000D01*
X139954000Y-98298000D02*
X140716000Y-97536000D01*
X136144000Y-107332700D02*
X139954000Y-103522700D01*
X139954000Y-103522700D02*
X139954000Y-98298000D01*
X119888000Y-99087000D02*
X125747300Y-99087000D01*
X125747300Y-99087000D02*
X128625800Y-96208500D01*
X128625800Y-96208500D02*
X137864500Y-96208500D01*
X137864500Y-96208500D02*
X139954000Y-98298000D01*
X119888000Y-99087000D02*
X118003000Y-97202000D01*
X119888000Y-111760000D02*
X119888000Y-99087000D01*
X136144000Y-108458000D02*
X136144000Y-107332700D01*
M02*
