M48
; DRILL file {KiCad 5.1.4-e60b266~84~ubuntu18.04.1} date Mon 14 Oct 2019 20:54:44 BST
; FORMAT={-:-/ absolute / inch / decimal}
; #@! TF.CreationDate,2019-10-14T20:54:44+01:00
; #@! TF.GenerationSoftware,Kicad,Pcbnew,5.1.4-e60b266~84~ubuntu18.04.1
; #@! TF.FileFunction,Plated,1,2,PTH
FMAT,2
INCH
T1C0.0217
T2C0.0315
T3C0.0320
T4C0.0394
T5C0.0400
T6C0.0433
T7C0.0827
%
G90
G05
T1
X4.4458Y-3.8269
X4.471Y-4.4174
X4.6206Y-4.4174
X4.6458Y-3.8269
X4.8784Y-3.8239
X4.9036Y-4.4144
X5.0532Y-4.4144
X5.0784Y-3.8239
T2
X5.21Y-4.4
X5.31Y-4.4
X5.54Y-3.84
X5.6384Y-3.84
X5.6985Y-4.0736
X5.6985Y-4.172
X6.6116Y-4.41
X6.71Y-4.41
X5.26Y-3.97
X5.26Y-4.27
X5.36Y-3.97
X5.36Y-4.27
X5.46Y-3.97
X5.46Y-4.27
X5.56Y-3.97
X5.56Y-4.27
X7.2697Y-3.8858
X7.3681Y-3.8858
X7.2575Y-4.3654
X7.3559Y-4.3654
X6.204Y-3.8454
X6.304Y-3.8454
X4.2563Y-4.4251
X4.3563Y-4.4251
X6.9Y-4.41
X7.0Y-4.41
X6.6827Y-3.848
X6.7811Y-3.848
X5.4668Y-4.4044
X5.5652Y-4.4044
X7.01Y-3.85
X7.11Y-3.85
X4.72Y-4.4
X4.82Y-4.4
T3
X7.2996Y-4.0409
X7.3996Y-4.0409
X7.3035Y-4.2028
X7.4035Y-4.2028
T4
X5.1931Y-3.84
X5.39Y-3.84
X6.1157Y-4.4034
X6.3126Y-4.4034
T5
X7.548Y-3.9213
X7.548Y-4.1213
X7.548Y-4.3213
X7.558Y-4.0213
X7.558Y-4.2213
X7.648Y-3.9213
X7.648Y-4.1213
X7.648Y-4.3213
X7.658Y-4.0213
X7.658Y-4.2213
T6
X5.953Y-3.9244
X5.953Y-4.2591
X5.953Y-4.3772
X6.8061Y-4.1213
X7.1408Y-4.1213
X7.2589Y-4.1213
X6.2024Y-4.0229
X6.2024Y-4.1213
X6.2024Y-4.2197
X4.153Y-3.8654
X4.153Y-3.9835
X4.153Y-4.3181
T7
X6.478Y-3.9441
X6.478Y-4.2985
T0
M30
