G04 #@! TF.GenerationSoftware,KiCad,Pcbnew,5.1.4-e60b266~84~ubuntu18.04.1*
G04 #@! TF.CreationDate,2019-10-14T20:54:47+01:00*
G04 #@! TF.ProjectId,vcsk,7663736b-2e6b-4696-9361-645f70636258,rev?*
G04 #@! TF.SameCoordinates,Original*
G04 #@! TF.FileFunction,Copper,L2,Bot*
G04 #@! TF.FilePolarity,Positive*
%FSLAX46Y46*%
G04 Gerber Fmt 4.6, Leading zero omitted, Abs format (unit mm)*
G04 Created by KiCad (PCBNEW 5.1.4-e60b266~84~ubuntu18.04.1) date 2019-10-14 20:54:47*
%MOMM*%
%LPD*%
G04 APERTURE LIST*
%ADD10C,1.150000*%
%ADD11C,0.100000*%
%ADD12C,1.600000*%
%ADD13R,1.600000X1.600000*%
%ADD14O,1.600000X1.600000*%
%ADD15C,2.000000*%
%ADD16C,1.320800*%
%ADD17C,1.650000*%
%ADD18C,2.794000*%
%ADD19R,1.650000X1.650000*%
%ADD20C,1.879600*%
%ADD21C,0.250000*%
G04 APERTURE END LIST*
D10*
X117363000Y-112202000D03*
X118003000Y-97202000D03*
X112923000Y-97202000D03*
D11*
G36*
X113878680Y-111628384D02*
G01*
X113906588Y-111632524D01*
X113933957Y-111639380D01*
X113960521Y-111648885D01*
X113986027Y-111660948D01*
X114010226Y-111675452D01*
X114032888Y-111692259D01*
X114053793Y-111711207D01*
X114072741Y-111732112D01*
X114089548Y-111754774D01*
X114104052Y-111778973D01*
X114116115Y-111804479D01*
X114125620Y-111831043D01*
X114132476Y-111858412D01*
X114136616Y-111886320D01*
X114138000Y-111914500D01*
X114138000Y-112489500D01*
X114136616Y-112517680D01*
X114132476Y-112545588D01*
X114125620Y-112572957D01*
X114116115Y-112599521D01*
X114104052Y-112625027D01*
X114089548Y-112649226D01*
X114072741Y-112671888D01*
X114053793Y-112692793D01*
X114032888Y-112711741D01*
X114010226Y-112728548D01*
X113986027Y-112743052D01*
X113960521Y-112755115D01*
X113933957Y-112764620D01*
X113906588Y-112771476D01*
X113878680Y-112775616D01*
X113850500Y-112777000D01*
X113275500Y-112777000D01*
X113247320Y-112775616D01*
X113219412Y-112771476D01*
X113192043Y-112764620D01*
X113165479Y-112755115D01*
X113139973Y-112743052D01*
X113115774Y-112728548D01*
X113093112Y-112711741D01*
X113072207Y-112692793D01*
X113053259Y-112671888D01*
X113036452Y-112649226D01*
X113021948Y-112625027D01*
X113009885Y-112599521D01*
X113000380Y-112572957D01*
X112993524Y-112545588D01*
X112989384Y-112517680D01*
X112988000Y-112489500D01*
X112988000Y-111914500D01*
X112989384Y-111886320D01*
X112993524Y-111858412D01*
X113000380Y-111831043D01*
X113009885Y-111804479D01*
X113021948Y-111778973D01*
X113036452Y-111754774D01*
X113053259Y-111732112D01*
X113072207Y-111711207D01*
X113093112Y-111692259D01*
X113115774Y-111675452D01*
X113139973Y-111660948D01*
X113165479Y-111648885D01*
X113192043Y-111639380D01*
X113219412Y-111632524D01*
X113247320Y-111628384D01*
X113275500Y-111627000D01*
X113850500Y-111627000D01*
X113878680Y-111628384D01*
X113878680Y-111628384D01*
G37*
D10*
X113563000Y-112202000D03*
X128351000Y-112126000D03*
X128991000Y-97126000D03*
X123911000Y-97126000D03*
D11*
G36*
X124866680Y-111552384D02*
G01*
X124894588Y-111556524D01*
X124921957Y-111563380D01*
X124948521Y-111572885D01*
X124974027Y-111584948D01*
X124998226Y-111599452D01*
X125020888Y-111616259D01*
X125041793Y-111635207D01*
X125060741Y-111656112D01*
X125077548Y-111678774D01*
X125092052Y-111702973D01*
X125104115Y-111728479D01*
X125113620Y-111755043D01*
X125120476Y-111782412D01*
X125124616Y-111810320D01*
X125126000Y-111838500D01*
X125126000Y-112413500D01*
X125124616Y-112441680D01*
X125120476Y-112469588D01*
X125113620Y-112496957D01*
X125104115Y-112523521D01*
X125092052Y-112549027D01*
X125077548Y-112573226D01*
X125060741Y-112595888D01*
X125041793Y-112616793D01*
X125020888Y-112635741D01*
X124998226Y-112652548D01*
X124974027Y-112667052D01*
X124948521Y-112679115D01*
X124921957Y-112688620D01*
X124894588Y-112695476D01*
X124866680Y-112699616D01*
X124838500Y-112701000D01*
X124263500Y-112701000D01*
X124235320Y-112699616D01*
X124207412Y-112695476D01*
X124180043Y-112688620D01*
X124153479Y-112679115D01*
X124127973Y-112667052D01*
X124103774Y-112652548D01*
X124081112Y-112635741D01*
X124060207Y-112616793D01*
X124041259Y-112595888D01*
X124024452Y-112573226D01*
X124009948Y-112549027D01*
X123997885Y-112523521D01*
X123988380Y-112496957D01*
X123981524Y-112469588D01*
X123977384Y-112441680D01*
X123976000Y-112413500D01*
X123976000Y-111838500D01*
X123977384Y-111810320D01*
X123981524Y-111782412D01*
X123988380Y-111755043D01*
X123997885Y-111728479D01*
X124009948Y-111702973D01*
X124024452Y-111678774D01*
X124041259Y-111656112D01*
X124060207Y-111635207D01*
X124081112Y-111616259D01*
X124103774Y-111599452D01*
X124127973Y-111584948D01*
X124153479Y-111572885D01*
X124180043Y-111563380D01*
X124207412Y-111556524D01*
X124235320Y-111552384D01*
X124263500Y-111551000D01*
X124838500Y-111551000D01*
X124866680Y-111552384D01*
X124866680Y-111552384D01*
G37*
D10*
X124551000Y-112126000D03*
D12*
X186840000Y-110880000D03*
D13*
X184340000Y-110880000D03*
D12*
X184650000Y-98700000D03*
D13*
X187150000Y-98700000D03*
D12*
X140716000Y-97536000D03*
X143216000Y-97536000D03*
D14*
X122428000Y-111760000D03*
D12*
X119888000Y-111760000D03*
X134874000Y-111760000D03*
D14*
X132334000Y-111760000D03*
X141224000Y-100838000D03*
X133604000Y-108458000D03*
X138684000Y-100838000D03*
X136144000Y-108458000D03*
X136144000Y-100838000D03*
X138684000Y-108458000D03*
X133604000Y-100838000D03*
D13*
X141224000Y-108458000D03*
D14*
X177800000Y-112014000D03*
D12*
X175260000Y-112014000D03*
D14*
X180594000Y-97790000D03*
D12*
X178054000Y-97790000D03*
D14*
X108110000Y-112398000D03*
D12*
X110650000Y-112398000D03*
D14*
X157582000Y-97673200D03*
D12*
X160122000Y-97673200D03*
D15*
X131906000Y-97536000D03*
X136906000Y-97536000D03*
X155340000Y-111846000D03*
X160340000Y-111846000D03*
D12*
X138856000Y-111872000D03*
X141356000Y-111872000D03*
X144742000Y-103469000D03*
X144742000Y-105969000D03*
X167934000Y-112014000D03*
X170434000Y-112014000D03*
X172240000Y-97740000D03*
X169740000Y-97740000D03*
D16*
X185410000Y-102640000D03*
X187950000Y-102640000D03*
X185510000Y-106750000D03*
X188050000Y-106750000D03*
D17*
X105486000Y-98181000D03*
X105486000Y-101181000D03*
X105486000Y-109681000D03*
D18*
X164541000Y-100181000D03*
X164541000Y-109181000D03*
D17*
X157541000Y-107181000D03*
X157541000Y-104681000D03*
D19*
X157541000Y-102181000D03*
D17*
X151206000Y-111181000D03*
X151206000Y-108181000D03*
X151206000Y-99681000D03*
X184376000Y-104681000D03*
X181376000Y-104681000D03*
X172876000Y-104681000D03*
D20*
X191719000Y-109761000D03*
X191973000Y-107221000D03*
X191719000Y-104681000D03*
X191973000Y-102141000D03*
X191719000Y-99601000D03*
X194259000Y-109761000D03*
X194513000Y-107221000D03*
X194259000Y-104681000D03*
X194513000Y-102141000D03*
X194259000Y-99601000D03*
D21*
X113563000Y-112202000D02*
X113563000Y-106258000D01*
X113563000Y-106258000D02*
X105486000Y-98181000D01*
X187289500Y-102640000D02*
X187289500Y-102901500D01*
X187289500Y-102901500D02*
X185510000Y-104681000D01*
X184650000Y-98700000D02*
X187289500Y-101339500D01*
X187289500Y-101339500D02*
X187289500Y-102640000D01*
X187950000Y-102640000D02*
X187289500Y-102640000D01*
X185510000Y-104681000D02*
X184376000Y-104681000D01*
X185510000Y-104681000D02*
X185510000Y-106750000D01*
X141356000Y-111872000D02*
X139835600Y-113392400D01*
X139835600Y-113392400D02*
X131536500Y-113392400D01*
X131536500Y-113392400D02*
X129342900Y-111198800D01*
X129342900Y-111198800D02*
X125478200Y-111198800D01*
X125478200Y-111198800D02*
X124551000Y-112126000D01*
X194259000Y-102268000D02*
X194259000Y-104681000D01*
X194259000Y-102268000D02*
X192100000Y-102268000D01*
X192100000Y-102268000D02*
X191973000Y-102141000D01*
X194513000Y-102141000D02*
X194386000Y-102268000D01*
X194386000Y-102268000D02*
X194259000Y-102268000D01*
X191973000Y-102141000D02*
X188449000Y-102141000D01*
X188449000Y-102141000D02*
X187950000Y-102640000D01*
X172240000Y-97740000D02*
X169799000Y-100181000D01*
X169799000Y-100181000D02*
X164541000Y-100181000D01*
X164541000Y-109181000D02*
X167601000Y-109181000D01*
X167601000Y-109181000D02*
X170434000Y-112014000D01*
X162541000Y-102181000D02*
X162541000Y-107181000D01*
X162541000Y-107181000D02*
X164541000Y-109181000D01*
X162541000Y-102181000D02*
X164541000Y-100181000D01*
X157541000Y-102181000D02*
X162541000Y-102181000D01*
X164541000Y-109181000D02*
X163247800Y-110474200D01*
X163247800Y-110474200D02*
X151912800Y-110474200D01*
X151912800Y-110474200D02*
X151206000Y-111181000D01*
X147647800Y-104705200D02*
X147730200Y-104705200D01*
X147730200Y-104705200D02*
X151206000Y-108181000D01*
X138856000Y-111872000D02*
X140365400Y-110362600D01*
X140365400Y-110362600D02*
X141990400Y-110362600D01*
X141990400Y-110362600D02*
X147647800Y-104705200D01*
X147647800Y-104705200D02*
X143780500Y-100838000D01*
X143780500Y-100838000D02*
X141224000Y-100838000D01*
X186840000Y-107762500D02*
X185126300Y-107762500D01*
X185126300Y-107762500D02*
X182876100Y-105512300D01*
X182876100Y-105512300D02*
X182876100Y-101197400D01*
X182876100Y-101197400D02*
X180594000Y-98915300D01*
X188050000Y-106750000D02*
X187037500Y-107762500D01*
X187037500Y-107762500D02*
X186840000Y-107762500D01*
X186840000Y-107762500D02*
X186840000Y-110880000D01*
X180594000Y-97790000D02*
X180594000Y-98915300D01*
X133604000Y-108458000D02*
X134729300Y-108458000D01*
X144742000Y-103469000D02*
X139437000Y-103469000D01*
X139437000Y-103469000D02*
X134729300Y-108176700D01*
X134729300Y-108176700D02*
X134729300Y-108458000D01*
X136144000Y-100838000D02*
X136144000Y-101963300D01*
X136144000Y-101963300D02*
X132446400Y-105660900D01*
X132446400Y-105660900D02*
X132446400Y-110072200D01*
X132446400Y-110072200D02*
X133503900Y-111129700D01*
X133503900Y-111129700D02*
X133503900Y-112198700D01*
X133503900Y-112198700D02*
X132807100Y-112895500D01*
X132807100Y-112895500D02*
X131871500Y-112895500D01*
X131871500Y-112895500D02*
X129591900Y-110615900D01*
X129591900Y-110615900D02*
X117044500Y-110615900D01*
X117044500Y-110615900D02*
X114526100Y-113134300D01*
X114526100Y-113134300D02*
X111386300Y-113134300D01*
X111386300Y-113134300D02*
X110650000Y-112398000D01*
X128991000Y-97126000D02*
X128063300Y-96198300D01*
X128063300Y-96198300D02*
X113926700Y-96198300D01*
X113926700Y-96198300D02*
X112923000Y-97202000D01*
X136906000Y-97536000D02*
X135568300Y-96198300D01*
X135568300Y-96198300D02*
X129918700Y-96198300D01*
X129918700Y-96198300D02*
X128991000Y-97126000D01*
X191719000Y-99601000D02*
X188779100Y-96661100D01*
X188779100Y-96661100D02*
X179182900Y-96661100D01*
X179182900Y-96661100D02*
X178054000Y-97790000D01*
X194259000Y-99601000D02*
X191719000Y-99601000D01*
X191719000Y-109761000D02*
X188318600Y-113161400D01*
X188318600Y-113161400D02*
X176407400Y-113161400D01*
X176407400Y-113161400D02*
X175260000Y-112014000D01*
X157541000Y-107181000D02*
X158695300Y-106026700D01*
X158695300Y-106026700D02*
X158695300Y-104204000D01*
X158695300Y-104204000D02*
X157822700Y-103331400D01*
X157822700Y-103331400D02*
X156569600Y-103331400D01*
X156569600Y-103331400D02*
X156390600Y-103152400D01*
X156390600Y-103152400D02*
X156390600Y-101177300D01*
X156390600Y-101177300D02*
X159894700Y-97673200D01*
X159894700Y-97673200D02*
X160122000Y-97673200D01*
X128351000Y-112126000D02*
X130067800Y-113842800D01*
X130067800Y-113842800D02*
X143396800Y-113842800D01*
X143396800Y-113842800D02*
X147595300Y-109644300D01*
X147595300Y-109644300D02*
X152577700Y-109644300D01*
X152577700Y-109644300D02*
X157541000Y-104681000D01*
X128351000Y-112126000D02*
X127433100Y-113043900D01*
X127433100Y-113043900D02*
X118204900Y-113043900D01*
X118204900Y-113043900D02*
X117363000Y-112202000D01*
X172876000Y-104681000D02*
X172876000Y-111167300D01*
X172876000Y-111167300D02*
X170897300Y-113146000D01*
X170897300Y-113146000D02*
X161640000Y-113146000D01*
X161640000Y-113146000D02*
X160340000Y-111846000D01*
X132334000Y-111760000D02*
X132334000Y-110634700D01*
X132334000Y-110634700D02*
X123911000Y-102211700D01*
X123911000Y-102211700D02*
X123911000Y-97126000D01*
X108110000Y-112398000D02*
X108110000Y-111272700D01*
X105486000Y-109681000D02*
X107077700Y-111272700D01*
X107077700Y-111272700D02*
X108110000Y-111272700D01*
X157582000Y-97673200D02*
X156456700Y-97673200D01*
X151206000Y-99681000D02*
X154448900Y-99681000D01*
X154448900Y-99681000D02*
X156456700Y-97673200D01*
M02*
